<mxfile host="65bd71144e" pages="2">
    <diagram name="FastAPI python " id="i0NK7ikFIhA3pcGOng0x">
        <mxGraphModel dx="389" dy="1137" grid="1" gridSize="10" guides="1" tooltips="1" connect="1" arrows="1" fold="1" page="1" pageScale="1" pageWidth="1100" pageHeight="850" math="0" shadow="0">
            <root>
                <mxCell id="0"/>
                <mxCell id="1" parent="0"/>
                <mxCell id="3VWdn4LphZUSEgOxshhf-17" style="edgeStyle=orthogonalEdgeStyle;rounded=0;orthogonalLoop=1;jettySize=auto;html=1;exitX=0.5;exitY=1;exitDx=0;exitDy=0;entryX=0.5;entryY=0;entryDx=0;entryDy=0;fontFamily=Helvetica;fontSize=12;fontColor=default;curved=1;sketch=1;curveFitting=1;jiggle=2;flowAnimation=1;" parent="1" source="3VWdn4LphZUSEgOxshhf-1" target="3VWdn4LphZUSEgOxshhf-16" edge="1">
                    <mxGeometry relative="1" as="geometry"/>
                </mxCell>
                <mxCell id="3VWdn4LphZUSEgOxshhf-1" value="HTTP Infos" style="rounded=1;whiteSpace=wrap;html=1;sketch=1;curveFitting=1;jiggle=2;glass=0;shadow=0;fontFamily=Comic Sans MS;" parent="1" vertex="1">
                    <mxGeometry x="670" y="-120" width="120" height="50" as="geometry"/>
                </mxCell>
                <mxCell id="3VWdn4LphZUSEgOxshhf-3" value="CRUD" style="rounded=1;whiteSpace=wrap;html=1;shadow=0;glass=0;sketch=1;jiggle=2;curveFitting=1;strokeColor=default;align=center;verticalAlign=middle;fontFamily=Helvetica;fontSize=12;fontColor=default;fillColor=default;" parent="1" vertex="1">
                    <mxGeometry x="520" width="100" height="30" as="geometry"/>
                </mxCell>
                <mxCell id="3VWdn4LphZUSEgOxshhf-4" value="read method that retrieves data" style="rounded=1;whiteSpace=wrap;html=1;shadow=0;glass=0;sketch=1;jiggle=2;curveFitting=1;strokeColor=default;align=center;verticalAlign=middle;fontFamily=Helvetica;fontSize=12;fontColor=default;fillColor=default;" parent="1" vertex="1">
                    <mxGeometry x="480" y="40" width="200" height="20" as="geometry"/>
                </mxCell>
                <mxCell id="3VWdn4LphZUSEgOxshhf-5" value="POST" style="rounded=1;whiteSpace=wrap;html=1;shadow=0;glass=0;sketch=1;jiggle=2;curveFitting=1;strokeColor=default;align=center;verticalAlign=middle;fontFamily=Helvetica;fontSize=12;fontColor=default;fillColor=default;" parent="1" vertex="1">
                    <mxGeometry x="400" y="70" width="50" height="20" as="geometry"/>
                </mxCell>
                <mxCell id="3VWdn4LphZUSEgOxshhf-7" value="GET" style="rounded=1;whiteSpace=wrap;html=1;shadow=0;glass=0;sketch=1;jiggle=2;curveFitting=1;strokeColor=default;align=center;verticalAlign=middle;fontFamily=Helvetica;fontSize=12;fontColor=default;fillColor=default;" parent="1" vertex="1">
                    <mxGeometry x="400" y="40" width="50" height="20" as="geometry"/>
                </mxCell>
                <mxCell id="3VWdn4LphZUSEgOxshhf-8" value="PUT" style="rounded=1;whiteSpace=wrap;html=1;shadow=0;glass=0;sketch=1;jiggle=2;curveFitting=1;strokeColor=default;align=center;verticalAlign=middle;fontFamily=Helvetica;fontSize=12;fontColor=default;fillColor=default;" parent="1" vertex="1">
                    <mxGeometry x="400" y="100" width="50" height="20" as="geometry"/>
                </mxCell>
                <mxCell id="3VWdn4LphZUSEgOxshhf-9" value="PATCH" style="rounded=1;whiteSpace=wrap;html=1;shadow=0;glass=0;sketch=1;jiggle=2;curveFitting=1;strokeColor=default;align=center;verticalAlign=middle;fontFamily=Helvetica;fontSize=12;fontColor=default;fillColor=default;" parent="1" vertex="1">
                    <mxGeometry x="400" y="130" width="50" height="20" as="geometry"/>
                </mxCell>
                <mxCell id="3VWdn4LphZUSEgOxshhf-10" value="DELETE" style="rounded=1;whiteSpace=wrap;html=1;shadow=0;glass=0;sketch=1;jiggle=2;curveFitting=1;strokeColor=default;align=center;verticalAlign=middle;fontFamily=Helvetica;fontSize=12;fontColor=default;fillColor=default;" parent="1" vertex="1">
                    <mxGeometry x="400" y="160" width="50" height="20" as="geometry"/>
                </mxCell>
                <mxCell id="3VWdn4LphZUSEgOxshhf-11" value="update entire resource" style="rounded=1;whiteSpace=wrap;html=1;shadow=0;glass=0;sketch=1;jiggle=2;curveFitting=1;strokeColor=default;align=center;verticalAlign=middle;fontFamily=Helvetica;fontSize=12;fontColor=default;fillColor=default;" parent="1" vertex="1">
                    <mxGeometry x="480" y="100" width="200" height="20" as="geometry"/>
                </mxCell>
                <mxCell id="3VWdn4LphZUSEgOxshhf-12" value="update part of resource" style="rounded=1;whiteSpace=wrap;html=1;shadow=0;glass=0;sketch=1;jiggle=2;curveFitting=1;strokeColor=default;align=center;verticalAlign=middle;fontFamily=Helvetica;fontSize=12;fontColor=default;fillColor=default;" parent="1" vertex="1">
                    <mxGeometry x="480" y="130" width="200" height="20" as="geometry"/>
                </mxCell>
                <mxCell id="3VWdn4LphZUSEgOxshhf-13" value="delete the resource" style="rounded=1;whiteSpace=wrap;html=1;shadow=0;glass=0;sketch=1;jiggle=2;curveFitting=1;strokeColor=default;align=center;verticalAlign=middle;fontFamily=Helvetica;fontSize=12;fontColor=default;fillColor=default;" parent="1" vertex="1">
                    <mxGeometry x="480" y="160" width="200" height="20" as="geometry"/>
                </mxCell>
                <mxCell id="3VWdn4LphZUSEgOxshhf-14" value="create method, to submit data" style="rounded=1;whiteSpace=wrap;html=1;shadow=0;glass=0;sketch=1;jiggle=2;curveFitting=1;strokeColor=default;align=center;verticalAlign=middle;fillColor=default;hachureAngle=-35;absoluteArcSize=0;imageAspect=1;arcSize=7;" parent="1" vertex="1">
                    <mxGeometry x="480" y="70" width="200" height="20" as="geometry"/>
                </mxCell>
                <mxCell id="3VWdn4LphZUSEgOxshhf-15" style="edgeStyle=orthogonalEdgeStyle;rounded=0;orthogonalLoop=1;jettySize=auto;html=1;exitX=0.5;exitY=1;exitDx=0;exitDy=0;entryX=0.603;entryY=-0.016;entryDx=0;entryDy=0;entryPerimeter=0;fontFamily=Helvetica;fontSize=12;fontColor=default;endArrow=classic;endFill=1;curved=1;sketch=1;curveFitting=1;jiggle=2;flowAnimation=1;" parent="1" source="3VWdn4LphZUSEgOxshhf-1" target="3VWdn4LphZUSEgOxshhf-3" edge="1">
                    <mxGeometry relative="1" as="geometry"/>
                </mxCell>
                <mxCell id="3VWdn4LphZUSEgOxshhf-16" value="Status Code" style="rounded=1;whiteSpace=wrap;html=1;shadow=0;glass=0;sketch=1;jiggle=2;curveFitting=1;strokeColor=default;align=center;verticalAlign=middle;fontFamily=Helvetica;fontSize=12;fontColor=default;fillColor=default;" parent="1" vertex="1">
                    <mxGeometry x="860" width="100" height="30" as="geometry"/>
                </mxCell>
                <mxCell id="3VWdn4LphZUSEgOxshhf-18" value="information response: request processing" style="rounded=1;whiteSpace=wrap;html=1;shadow=0;glass=0;sketch=1;jiggle=2;curveFitting=1;strokeColor=default;align=center;verticalAlign=middle;fontFamily=Helvetica;fontSize=12;fontColor=default;fillColor=default;" parent="1" vertex="1">
                    <mxGeometry x="840" y="40" width="280" height="20" as="geometry"/>
                </mxCell>
                <mxCell id="3VWdn4LphZUSEgOxshhf-19" value="2XX" style="rounded=1;whiteSpace=wrap;html=1;shadow=0;glass=0;sketch=1;jiggle=2;curveFitting=1;strokeColor=default;align=center;verticalAlign=middle;fontFamily=Helvetica;fontSize=12;fontColor=default;fillColor=default;" parent="1" vertex="1">
                    <mxGeometry x="760" y="70" width="50" height="20" as="geometry"/>
                </mxCell>
                <mxCell id="3VWdn4LphZUSEgOxshhf-20" value="1XX" style="rounded=1;whiteSpace=wrap;html=1;shadow=0;glass=0;sketch=1;jiggle=2;curveFitting=1;strokeColor=default;align=center;verticalAlign=middle;fontFamily=Helvetica;fontSize=12;fontColor=default;fillColor=default;" parent="1" vertex="1">
                    <mxGeometry x="760" y="40" width="50" height="20" as="geometry"/>
                </mxCell>
                <mxCell id="3VWdn4LphZUSEgOxshhf-21" value="3XX" style="rounded=1;whiteSpace=wrap;html=1;shadow=0;glass=0;sketch=1;jiggle=2;curveFitting=1;strokeColor=default;align=center;verticalAlign=middle;fontFamily=Helvetica;fontSize=12;fontColor=default;fillColor=default;" parent="1" vertex="1">
                    <mxGeometry x="760" y="100" width="50" height="20" as="geometry"/>
                </mxCell>
                <mxCell id="3VWdn4LphZUSEgOxshhf-22" value="4XX" style="rounded=1;whiteSpace=wrap;html=1;shadow=0;glass=0;sketch=1;jiggle=2;curveFitting=1;strokeColor=default;align=center;verticalAlign=middle;fontFamily=Helvetica;fontSize=12;fontColor=default;fillColor=default;" parent="1" vertex="1">
                    <mxGeometry x="760" y="130" width="50" height="20" as="geometry"/>
                </mxCell>
                <mxCell id="3VWdn4LphZUSEgOxshhf-23" value="5XX" style="rounded=1;whiteSpace=wrap;html=1;shadow=0;glass=0;sketch=1;jiggle=2;curveFitting=1;strokeColor=default;align=center;verticalAlign=middle;fontFamily=Helvetica;fontSize=12;fontColor=default;fillColor=default;" parent="1" vertex="1">
                    <mxGeometry x="760" y="160" width="50" height="20" as="geometry"/>
                </mxCell>
                <mxCell id="3VWdn4LphZUSEgOxshhf-24" value="redirection: further action must be complete" style="rounded=1;whiteSpace=wrap;html=1;shadow=0;glass=0;sketch=1;jiggle=2;curveFitting=1;strokeColor=default;align=center;verticalAlign=middle;fontFamily=Helvetica;fontSize=12;fontColor=default;fillColor=default;" parent="1" vertex="1">
                    <mxGeometry x="840" y="100" width="280" height="20" as="geometry"/>
                </mxCell>
                <mxCell id="3VWdn4LphZUSEgOxshhf-25" value="Client Errors: an errors caused by client request" style="rounded=1;whiteSpace=wrap;html=1;shadow=0;glass=0;sketch=1;jiggle=2;curveFitting=1;strokeColor=default;align=center;verticalAlign=middle;fontFamily=Helvetica;fontSize=12;fontColor=default;fillColor=default;" parent="1" vertex="1">
                    <mxGeometry x="840" y="130" width="280" height="20" as="geometry"/>
                </mxCell>
                <mxCell id="3VWdn4LphZUSEgOxshhf-26" value="Server Errors: an errors caused by server request" style="rounded=1;whiteSpace=wrap;html=1;shadow=0;glass=0;sketch=1;jiggle=2;curveFitting=1;strokeColor=default;align=center;verticalAlign=middle;fontFamily=Helvetica;fontSize=12;fontColor=default;fillColor=default;" parent="1" vertex="1">
                    <mxGeometry x="840" y="160" width="280" height="20" as="geometry"/>
                </mxCell>
                <mxCell id="3VWdn4LphZUSEgOxshhf-27" value="success: request successfully complete" style="rounded=1;whiteSpace=wrap;html=1;shadow=0;glass=0;sketch=1;jiggle=2;curveFitting=1;strokeColor=default;align=center;verticalAlign=middle;fillColor=default;hachureAngle=-35;absoluteArcSize=0;imageAspect=1;arcSize=7;" parent="1" vertex="1">
                    <mxGeometry x="840" y="70" width="280" height="20" as="geometry"/>
                </mxCell>
                <mxCell id="D9DMYmV1NRxUSZtDC-V4-4" style="edgeStyle=orthogonalEdgeStyle;shape=connector;curved=1;rounded=0;sketch=1;jiggle=2;curveFitting=1;orthogonalLoop=1;jettySize=auto;html=1;exitX=0;exitY=0.5;exitDx=0;exitDy=0;entryX=1;entryY=0.5;entryDx=0;entryDy=0;strokeColor=default;align=center;verticalAlign=middle;fontFamily=Helvetica;fontSize=12;fontColor=default;labelBackgroundColor=default;endArrow=classic;flowAnimation=1;" parent="1" source="D9DMYmV1NRxUSZtDC-V4-3" target="D9DMYmV1NRxUSZtDC-V4-1" edge="1">
                    <mxGeometry relative="1" as="geometry"/>
                </mxCell>
                <mxCell id="D9DMYmV1NRxUSZtDC-V4-5" style="edgeStyle=orthogonalEdgeStyle;shape=connector;curved=1;rounded=0;sketch=1;jiggle=2;curveFitting=1;orthogonalLoop=1;jettySize=auto;html=1;exitX=1;exitY=0.5;exitDx=0;exitDy=0;entryX=0;entryY=0.5;entryDx=0;entryDy=0;strokeColor=default;align=center;verticalAlign=middle;fontFamily=Helvetica;fontSize=12;fontColor=default;labelBackgroundColor=default;endArrow=classic;flowAnimation=1;" parent="1" source="D9DMYmV1NRxUSZtDC-V4-1" target="D9DMYmV1NRxUSZtDC-V4-2" edge="1">
                    <mxGeometry relative="1" as="geometry"/>
                </mxCell>
                <mxCell id="D9DMYmV1NRxUSZtDC-V4-1" value="DeepLearning with FastAPI" style="rounded=0;whiteSpace=wrap;html=1;shadow=0;glass=0;sketch=1;jiggle=2;curveFitting=1;strokeColor=default;align=center;verticalAlign=middle;fontFamily=Helvetica;fontSize=12;fontColor=default;labelBackgroundColor=default;fillColor=default;" parent="1" vertex="1">
                    <mxGeometry x="342.5" y="525" width="110" height="50" as="geometry"/>
                </mxCell>
                <mxCell id="D9DMYmV1NRxUSZtDC-V4-49" value="" style="edgeStyle=orthogonalEdgeStyle;shape=connector;curved=1;rounded=0;sketch=1;jiggle=2;curveFitting=1;orthogonalLoop=1;jettySize=auto;html=1;strokeColor=default;align=center;verticalAlign=middle;fontFamily=Helvetica;fontSize=12;fontColor=default;labelBackgroundColor=default;endArrow=classic;flowAnimation=1;" parent="1" source="D9DMYmV1NRxUSZtDC-V4-2" target="D9DMYmV1NRxUSZtDC-V4-48" edge="1">
                    <mxGeometry relative="1" as="geometry"/>
                </mxCell>
                <mxCell id="D9DMYmV1NRxUSZtDC-V4-2" value="Python" style="rounded=1;whiteSpace=wrap;html=1;shadow=0;glass=0;sketch=1;jiggle=2;curveFitting=1;strokeColor=default;align=center;verticalAlign=middle;fontFamily=Helvetica;fontSize=12;fontColor=default;labelBackgroundColor=default;fillColor=default;" parent="1" vertex="1">
                    <mxGeometry x="512.5" y="455" width="80" height="40" as="geometry"/>
                </mxCell>
                <mxCell id="D9DMYmV1NRxUSZtDC-V4-10" style="edgeStyle=orthogonalEdgeStyle;shape=connector;curved=1;rounded=0;sketch=1;jiggle=2;curveFitting=1;orthogonalLoop=1;jettySize=auto;html=1;exitX=0;exitY=0.5;exitDx=0;exitDy=0;entryX=1;entryY=0.5;entryDx=0;entryDy=0;strokeColor=default;align=center;verticalAlign=middle;fontFamily=Helvetica;fontSize=12;fontColor=default;labelBackgroundColor=default;endArrow=classic;flowAnimation=1;" parent="1" source="D9DMYmV1NRxUSZtDC-V4-6" target="D9DMYmV1NRxUSZtDC-V4-3" edge="1">
                    <mxGeometry relative="1" as="geometry"/>
                </mxCell>
                <mxCell id="D9DMYmV1NRxUSZtDC-V4-18" value="" style="edgeStyle=orthogonalEdgeStyle;shape=connector;curved=1;rounded=0;sketch=1;jiggle=2;curveFitting=1;orthogonalLoop=1;jettySize=auto;html=1;strokeColor=default;align=center;verticalAlign=middle;fontFamily=Helvetica;fontSize=12;fontColor=default;labelBackgroundColor=default;endArrow=classic;flowAnimation=1;exitX=0.003;exitY=0.583;exitDx=0;exitDy=0;exitPerimeter=0;" parent="1" source="D9DMYmV1NRxUSZtDC-V4-19" target="D9DMYmV1NRxUSZtDC-V4-3" edge="1">
                    <mxGeometry relative="1" as="geometry">
                        <mxPoint x="672.5" y="860" as="sourcePoint"/>
                    </mxGeometry>
                </mxCell>
                <mxCell id="D9DMYmV1NRxUSZtDC-V4-28" style="edgeStyle=orthogonalEdgeStyle;shape=connector;curved=1;rounded=0;sketch=1;jiggle=2;curveFitting=1;orthogonalLoop=1;jettySize=auto;html=1;exitX=0;exitY=0.5;exitDx=0;exitDy=0;strokeColor=default;align=center;verticalAlign=middle;fontFamily=Helvetica;fontSize=12;fontColor=default;labelBackgroundColor=default;endArrow=classic;flowAnimation=1;entryX=1;entryY=0.5;entryDx=0;entryDy=0;" parent="1" source="D9DMYmV1NRxUSZtDC-V4-29" target="D9DMYmV1NRxUSZtDC-V4-3" edge="1">
                    <mxGeometry relative="1" as="geometry">
                        <mxPoint x="672.5" y="1025" as="sourcePoint"/>
                    </mxGeometry>
                </mxCell>
                <mxCell id="D9DMYmV1NRxUSZtDC-V4-3" value="Database" style="rounded=1;whiteSpace=wrap;html=1;shadow=0;glass=0;sketch=1;jiggle=2;curveFitting=1;strokeColor=default;align=center;verticalAlign=middle;fontFamily=Helvetica;fontSize=12;fontColor=default;labelBackgroundColor=default;fillColor=default;" parent="1" vertex="1">
                    <mxGeometry x="532.5" y="845" width="80" height="40" as="geometry"/>
                </mxCell>
                <mxCell id="D9DMYmV1NRxUSZtDC-V4-6" value="MongoDB" style="whiteSpace=wrap;html=1;rounded=1;shadow=0;glass=0;sketch=1;jiggle=2;curveFitting=1;labelBackgroundColor=default;" parent="1" vertex="1">
                    <mxGeometry x="672.5" y="925" width="100" height="40" as="geometry"/>
                </mxCell>
                <mxCell id="D9DMYmV1NRxUSZtDC-V4-13" style="edgeStyle=orthogonalEdgeStyle;shape=connector;curved=1;rounded=0;sketch=1;jiggle=2;curveFitting=1;orthogonalLoop=1;jettySize=auto;html=1;entryX=0;entryY=0.5;entryDx=0;entryDy=0;strokeColor=default;align=center;verticalAlign=middle;fontFamily=Helvetica;fontSize=12;fontColor=default;labelBackgroundColor=default;endArrow=classic;flowAnimation=1;" parent="1" source="D9DMYmV1NRxUSZtDC-V4-11" target="D9DMYmV1NRxUSZtDC-V4-1" edge="1">
                    <mxGeometry relative="1" as="geometry"/>
                </mxCell>
                <mxCell id="D9DMYmV1NRxUSZtDC-V4-11" value="Docker" style="rounded=1;whiteSpace=wrap;html=1;shadow=0;glass=0;sketch=1;jiggle=2;curveFitting=1;strokeColor=default;align=center;verticalAlign=middle;fontFamily=Helvetica;fontSize=12;fontColor=default;labelBackgroundColor=default;fillColor=default;" parent="1" vertex="1">
                    <mxGeometry x="182.5" y="525" width="110" height="50" as="geometry"/>
                </mxCell>
                <mxCell id="D9DMYmV1NRxUSZtDC-V4-14" value="Dockerfile" style="whiteSpace=wrap;html=1;rounded=1;shadow=0;glass=0;sketch=1;jiggle=2;curveFitting=1;labelBackgroundColor=default;" parent="1" vertex="1">
                    <mxGeometry x="180" y="615" width="115" height="20" as="geometry"/>
                </mxCell>
                <mxCell id="D9DMYmV1NRxUSZtDC-V4-16" style="edgeStyle=orthogonalEdgeStyle;shape=connector;curved=1;rounded=0;sketch=1;jiggle=2;curveFitting=1;orthogonalLoop=1;jettySize=auto;html=1;exitX=0.5;exitY=0;exitDx=0;exitDy=0;entryX=0.458;entryY=1.057;entryDx=0;entryDy=0;entryPerimeter=0;strokeColor=default;align=center;verticalAlign=middle;fontFamily=Helvetica;fontSize=12;fontColor=default;labelBackgroundColor=default;endArrow=classic;flowAnimation=1;" parent="1" source="D9DMYmV1NRxUSZtDC-V4-14" target="D9DMYmV1NRxUSZtDC-V4-11" edge="1">
                    <mxGeometry relative="1" as="geometry"/>
                </mxCell>
                <mxCell id="D9DMYmV1NRxUSZtDC-V4-19" value="SQLAlchemy" style="whiteSpace=wrap;html=1;rounded=1;shadow=0;glass=0;sketch=1;jiggle=2;curveFitting=1;labelBackgroundColor=default;" parent="1" vertex="1">
                    <mxGeometry x="672.5" y="855" width="100" height="40" as="geometry"/>
                </mxCell>
                <mxCell id="D9DMYmV1NRxUSZtDC-V4-20" value="FastAPI" style="rounded=1;whiteSpace=wrap;html=1;shadow=0;glass=0;sketch=1;jiggle=2;curveFitting=1;strokeColor=default;align=center;verticalAlign=middle;fontFamily=Helvetica;fontSize=12;fontColor=default;labelBackgroundColor=default;fillColor=default;" parent="1" vertex="1">
                    <mxGeometry x="902.5" y="440" width="100" height="30" as="geometry"/>
                </mxCell>
                <mxCell id="D9DMYmV1NRxUSZtDC-V4-22" value="sqlalchemy" style="rounded=1;whiteSpace=wrap;html=1;shadow=0;glass=0;sketch=1;jiggle=2;curveFitting=1;strokeColor=default;align=center;verticalAlign=middle;fontFamily=Helvetica;fontSize=12;fontColor=default;labelBackgroundColor=default;fillColor=default;" parent="1" vertex="1">
                    <mxGeometry x="902.5" y="605" width="100" height="30" as="geometry"/>
                </mxCell>
                <mxCell id="D9DMYmV1NRxUSZtDC-V4-23" value="pydnatic" style="rounded=1;whiteSpace=wrap;html=1;shadow=0;glass=0;sketch=1;jiggle=2;curveFitting=1;strokeColor=default;align=center;verticalAlign=middle;fontFamily=Helvetica;fontSize=12;fontColor=default;labelBackgroundColor=default;fillColor=default;" parent="1" vertex="1">
                    <mxGeometry x="902.5" y="495" width="100" height="30" as="geometry"/>
                </mxCell>
                <mxCell id="D9DMYmV1NRxUSZtDC-V4-24" value="uvicorn" style="rounded=1;whiteSpace=wrap;html=1;shadow=0;glass=0;sketch=1;jiggle=2;curveFitting=1;strokeColor=default;align=center;verticalAlign=middle;fontFamily=Helvetica;fontSize=12;fontColor=default;labelBackgroundColor=default;fillColor=default;" parent="1" vertex="1">
                    <mxGeometry x="902.5" y="545" width="100" height="30" as="geometry"/>
                </mxCell>
                <mxCell id="D9DMYmV1NRxUSZtDC-V4-29" value="PostgreSQL" style="whiteSpace=wrap;html=1;rounded=1;shadow=0;glass=0;sketch=1;jiggle=2;curveFitting=1;labelBackgroundColor=default;" parent="1" vertex="1">
                    <mxGeometry x="672.5" y="985" width="100" height="40" as="geometry"/>
                </mxCell>
                <mxCell id="D9DMYmV1NRxUSZtDC-V4-43" style="edgeStyle=orthogonalEdgeStyle;shape=connector;curved=1;rounded=0;sketch=1;jiggle=2;curveFitting=1;orthogonalLoop=1;jettySize=auto;html=1;strokeColor=default;align=center;verticalAlign=middle;fontFamily=Helvetica;fontSize=12;fontColor=default;labelBackgroundColor=default;endArrow=classic;flowAnimation=1;entryX=1;entryY=0.5;entryDx=0;entryDy=0;" parent="1" source="D9DMYmV1NRxUSZtDC-V4-20" target="D9DMYmV1NRxUSZtDC-V4-31" edge="1">
                    <mxGeometry relative="1" as="geometry"/>
                </mxCell>
                <mxCell id="D9DMYmV1NRxUSZtDC-V4-44" style="edgeStyle=orthogonalEdgeStyle;shape=connector;curved=1;rounded=0;sketch=1;jiggle=2;curveFitting=1;orthogonalLoop=1;jettySize=auto;html=1;strokeColor=default;align=center;verticalAlign=middle;fontFamily=Helvetica;fontSize=12;fontColor=default;labelBackgroundColor=default;endArrow=classic;flowAnimation=1;entryX=1;entryY=0.5;entryDx=0;entryDy=0;" parent="1" source="D9DMYmV1NRxUSZtDC-V4-23" target="D9DMYmV1NRxUSZtDC-V4-31" edge="1">
                    <mxGeometry relative="1" as="geometry"/>
                </mxCell>
                <mxCell id="D9DMYmV1NRxUSZtDC-V4-45" style="edgeStyle=orthogonalEdgeStyle;shape=connector;curved=1;rounded=0;sketch=1;jiggle=2;curveFitting=1;orthogonalLoop=1;jettySize=auto;html=1;exitX=0;exitY=0.5;exitDx=0;exitDy=0;entryX=1;entryY=0.5;entryDx=0;entryDy=0;strokeColor=default;align=center;verticalAlign=middle;fontFamily=Helvetica;fontSize=12;fontColor=default;labelBackgroundColor=default;endArrow=classic;flowAnimation=1;" parent="1" source="D9DMYmV1NRxUSZtDC-V4-24" target="D9DMYmV1NRxUSZtDC-V4-31" edge="1">
                    <mxGeometry relative="1" as="geometry"/>
                </mxCell>
                <mxCell id="D9DMYmV1NRxUSZtDC-V4-46" style="edgeStyle=orthogonalEdgeStyle;shape=connector;curved=1;rounded=0;sketch=1;jiggle=2;curveFitting=1;orthogonalLoop=1;jettySize=auto;html=1;exitX=0;exitY=0.5;exitDx=0;exitDy=0;entryX=1;entryY=0.5;entryDx=0;entryDy=0;strokeColor=default;align=center;verticalAlign=middle;fontFamily=Helvetica;fontSize=12;fontColor=default;labelBackgroundColor=default;endArrow=classic;flowAnimation=1;" parent="1" source="D9DMYmV1NRxUSZtDC-V4-22" target="D9DMYmV1NRxUSZtDC-V4-31" edge="1">
                    <mxGeometry relative="1" as="geometry"/>
                </mxCell>
                <mxCell id="D9DMYmV1NRxUSZtDC-V4-31" value="App" style="whiteSpace=wrap;html=1;rounded=1;shadow=0;glass=0;sketch=1;jiggle=2;curveFitting=1;labelBackgroundColor=default;" parent="1" vertex="1">
                    <mxGeometry x="662.5" y="455" width="110" height="40" as="geometry"/>
                </mxCell>
                <mxCell id="D9DMYmV1NRxUSZtDC-V4-47" style="edgeStyle=orthogonalEdgeStyle;shape=connector;curved=1;rounded=0;sketch=1;jiggle=2;curveFitting=1;orthogonalLoop=1;jettySize=auto;html=1;exitX=1;exitY=0.5;exitDx=0;exitDy=0;entryX=0.029;entryY=0.548;entryDx=0;entryDy=0;entryPerimeter=0;strokeColor=default;align=center;verticalAlign=middle;fontFamily=Helvetica;fontSize=12;fontColor=default;labelBackgroundColor=default;endArrow=classic;flowAnimation=1;" parent="1" source="D9DMYmV1NRxUSZtDC-V4-2" target="D9DMYmV1NRxUSZtDC-V4-31" edge="1">
                    <mxGeometry relative="1" as="geometry"/>
                </mxCell>
                <mxCell id="D9DMYmV1NRxUSZtDC-V4-48" value="Deep Learning Model" style="whiteSpace=wrap;html=1;rounded=1;shadow=0;glass=0;sketch=1;jiggle=2;curveFitting=1;labelBackgroundColor=default;" parent="1" vertex="1">
                    <mxGeometry x="562.5" y="595" width="120" height="40" as="geometry"/>
                </mxCell>
                <mxCell id="D9DMYmV1NRxUSZtDC-V4-51" style="edgeStyle=orthogonalEdgeStyle;shape=connector;curved=1;rounded=0;sketch=1;jiggle=2;curveFitting=1;orthogonalLoop=1;jettySize=auto;html=1;exitX=0.5;exitY=0;exitDx=0;exitDy=0;entryX=0.5;entryY=1;entryDx=0;entryDy=0;strokeColor=default;align=center;verticalAlign=middle;fontFamily=Helvetica;fontSize=12;fontColor=default;labelBackgroundColor=default;endArrow=classic;flowAnimation=1;" parent="1" source="D9DMYmV1NRxUSZtDC-V4-50" target="D9DMYmV1NRxUSZtDC-V4-48" edge="1">
                    <mxGeometry relative="1" as="geometry"/>
                </mxCell>
                <mxCell id="D9DMYmV1NRxUSZtDC-V4-50" value="Training" style="whiteSpace=wrap;html=1;rounded=1;shadow=0;glass=0;sketch=1;jiggle=2;curveFitting=1;labelBackgroundColor=default;" parent="1" vertex="1">
                    <mxGeometry x="562.5" y="705" width="120" height="30" as="geometry"/>
                </mxCell>
                <mxCell id="D9DMYmV1NRxUSZtDC-V4-53" style="edgeStyle=orthogonalEdgeStyle;shape=connector;curved=1;rounded=0;sketch=1;jiggle=2;curveFitting=1;orthogonalLoop=1;jettySize=auto;html=1;exitX=0.5;exitY=0;exitDx=0;exitDy=0;entryX=0.987;entryY=0.413;entryDx=0;entryDy=0;strokeColor=default;align=center;verticalAlign=middle;fontFamily=Helvetica;fontSize=12;fontColor=default;labelBackgroundColor=default;endArrow=classic;flowAnimation=1;entryPerimeter=0;" parent="1" source="D9DMYmV1NRxUSZtDC-V4-52" target="D9DMYmV1NRxUSZtDC-V4-50" edge="1">
                    <mxGeometry relative="1" as="geometry"/>
                </mxCell>
                <mxCell id="D9DMYmV1NRxUSZtDC-V4-52" value="Private data" style="whiteSpace=wrap;html=1;rounded=1;shadow=0;glass=0;sketch=1;jiggle=2;curveFitting=1;labelBackgroundColor=default;" parent="1" vertex="1">
                    <mxGeometry x="742.5" y="705" width="120" height="30" as="geometry"/>
                </mxCell>
                <mxCell id="D9DMYmV1NRxUSZtDC-V4-54" style="edgeStyle=orthogonalEdgeStyle;shape=connector;curved=1;rounded=0;sketch=1;jiggle=2;curveFitting=1;orthogonalLoop=1;jettySize=auto;html=1;exitX=1;exitY=0.5;exitDx=0;exitDy=0;entryX=0.535;entryY=1.048;entryDx=0;entryDy=0;entryPerimeter=0;strokeColor=default;align=center;verticalAlign=middle;fontFamily=Helvetica;fontSize=12;fontColor=default;labelBackgroundColor=default;endArrow=classic;flowAnimation=1;" parent="1" source="D9DMYmV1NRxUSZtDC-V4-48" target="D9DMYmV1NRxUSZtDC-V4-31" edge="1">
                    <mxGeometry relative="1" as="geometry"/>
                </mxCell>
                <mxCell id="D9DMYmV1NRxUSZtDC-V4-55" value="Serving" style="edgeLabel;html=1;align=center;verticalAlign=middle;resizable=0;points=[];rounded=1;shadow=0;glass=0;sketch=1;jiggle=2;curveFitting=1;strokeColor=default;fontFamily=Helvetica;fontSize=12;fontColor=default;labelBackgroundColor=default;fillColor=default;" parent="D9DMYmV1NRxUSZtDC-V4-54" connectable="0" vertex="1">
                    <mxGeometry x="0.2479" y="3" relative="1" as="geometry">
                        <mxPoint as="offset"/>
                    </mxGeometry>
                </mxCell>
                <mxCell id="C8qa_s4hDMUf0WsffLNC-2" value="Deep learning API" style="rounded=1;whiteSpace=wrap;html=1;sketch=1;curveFitting=1;jiggle=2;fontFamily=Comic Sans MS;fillColor=#d5e8d4;strokeColor=#82b366;" parent="1" vertex="1">
                    <mxGeometry x="1830" y="425" width="120" height="35" as="geometry"/>
                </mxCell>
                <mxCell id="C8qa_s4hDMUf0WsffLNC-37" style="edgeStyle=orthogonalEdgeStyle;shape=connector;curved=1;rounded=0;sketch=1;jiggle=2;curveFitting=1;orthogonalLoop=1;jettySize=auto;html=1;entryX=-0.022;entryY=0.631;entryDx=0;entryDy=0;strokeColor=default;align=center;verticalAlign=middle;fontFamily=Comic Sans MS;fontSize=12;fontColor=default;labelBackgroundColor=default;elbow=vertical;endArrow=classic;entryPerimeter=0;" parent="1" source="C8qa_s4hDMUf0WsffLNC-4" target="C8qa_s4hDMUf0WsffLNC-16" edge="1">
                    <mxGeometry relative="1" as="geometry"/>
                </mxCell>
                <mxCell id="C8qa_s4hDMUf0WsffLNC-43" style="edgeStyle=orthogonalEdgeStyle;shape=connector;curved=1;rounded=0;sketch=1;jiggle=2;curveFitting=1;orthogonalLoop=1;jettySize=auto;html=1;exitX=0.5;exitY=0;exitDx=0;exitDy=0;strokeColor=default;align=center;verticalAlign=middle;fontFamily=Comic Sans MS;fontSize=12;fontColor=default;labelBackgroundColor=default;elbow=vertical;endArrow=classic;" parent="1" source="C8qa_s4hDMUf0WsffLNC-4" target="C8qa_s4hDMUf0WsffLNC-2" edge="1">
                    <mxGeometry relative="1" as="geometry"/>
                </mxCell>
                <mxCell id="C8qa_s4hDMUf0WsffLNC-4" value="App" style="rounded=1;whiteSpace=wrap;html=1;sketch=1;jiggle=2;curveFitting=1;strokeColor=#6c8ebf;align=center;verticalAlign=middle;fontFamily=Comic Sans MS;fontSize=12;fillColor=#dae8fc;" parent="1" vertex="1">
                    <mxGeometry x="1830" y="535" width="120" height="35" as="geometry"/>
                </mxCell>
                <mxCell id="C8qa_s4hDMUf0WsffLNC-5" style="edgeStyle=orthogonalEdgeStyle;rounded=0;orthogonalLoop=1;jettySize=auto;html=1;exitX=0.5;exitY=1;exitDx=0;exitDy=0;fontFamily=Comic Sans MS;fontSize=12;fontColor=default;" parent="1" source="C8qa_s4hDMUf0WsffLNC-4" target="C8qa_s4hDMUf0WsffLNC-4" edge="1">
                    <mxGeometry relative="1" as="geometry"/>
                </mxCell>
                <mxCell id="C8qa_s4hDMUf0WsffLNC-46" style="edgeStyle=orthogonalEdgeStyle;shape=connector;curved=1;rounded=0;sketch=1;jiggle=2;curveFitting=1;orthogonalLoop=1;jettySize=auto;html=1;exitX=0.5;exitY=0;exitDx=0;exitDy=0;strokeColor=default;align=center;verticalAlign=middle;fontFamily=Comic Sans MS;fontSize=12;fontColor=default;labelBackgroundColor=default;elbow=vertical;endArrow=classic;" parent="1" source="C8qa_s4hDMUf0WsffLNC-7" edge="1">
                    <mxGeometry relative="1" as="geometry">
                        <mxPoint x="1890" y="570" as="targetPoint"/>
                    </mxGeometry>
                </mxCell>
                <mxCell id="C8qa_s4hDMUf0WsffLNC-7" value="assets" style="rounded=1;whiteSpace=wrap;html=1;sketch=1;jiggle=2;curveFitting=1;strokeColor=#82b366;align=center;verticalAlign=middle;fontFamily=Comic Sans MS;fontSize=12;fillColor=#d5e8d4;" parent="1" vertex="1">
                    <mxGeometry x="2170" y="650" width="120" height="35" as="geometry"/>
                </mxCell>
                <mxCell id="C8qa_s4hDMUf0WsffLNC-51" style="edgeStyle=orthogonalEdgeStyle;shape=connector;curved=1;rounded=0;sketch=1;jiggle=2;curveFitting=1;orthogonalLoop=1;jettySize=auto;html=1;exitX=0.5;exitY=0;exitDx=0;exitDy=0;entryX=0.5;entryY=1;entryDx=0;entryDy=0;strokeColor=default;align=center;verticalAlign=middle;fontFamily=Comic Sans MS;fontSize=12;fontColor=default;labelBackgroundColor=default;elbow=vertical;endArrow=classic;" parent="1" source="C8qa_s4hDMUf0WsffLNC-8" target="C8qa_s4hDMUf0WsffLNC-50" edge="1">
                    <mxGeometry relative="1" as="geometry"/>
                </mxCell>
                <mxCell id="C8qa_s4hDMUf0WsffLNC-53" value="weights" style="edgeLabel;html=1;align=center;verticalAlign=middle;resizable=0;points=[];rounded=1;sketch=1;jiggle=2;curveFitting=1;strokeColor=default;fontFamily=Comic Sans MS;fontSize=12;fontColor=default;labelBackgroundColor=default;fillColor=default;" parent="C8qa_s4hDMUf0WsffLNC-51" connectable="0" vertex="1">
                    <mxGeometry x="0.0351" y="1" relative="1" as="geometry">
                        <mxPoint as="offset"/>
                    </mxGeometry>
                </mxCell>
                <mxCell id="C8qa_s4hDMUf0WsffLNC-8" value="models" style="rounded=1;whiteSpace=wrap;html=1;sketch=1;jiggle=2;curveFitting=1;strokeColor=#82b366;align=center;verticalAlign=middle;fontFamily=Comic Sans MS;fontSize=12;fillColor=#d5e8d4;" parent="1" vertex="1">
                    <mxGeometry x="1500" y="849.17" width="120" height="35" as="geometry"/>
                </mxCell>
                <mxCell id="C8qa_s4hDMUf0WsffLNC-35" style="edgeStyle=orthogonalEdgeStyle;shape=connector;curved=1;rounded=0;sketch=1;jiggle=2;curveFitting=1;orthogonalLoop=1;jettySize=auto;html=1;exitX=0.5;exitY=0;exitDx=0;exitDy=0;entryX=0.5;entryY=1;entryDx=0;entryDy=0;strokeColor=default;align=center;verticalAlign=middle;fontFamily=Comic Sans MS;fontSize=12;fontColor=default;labelBackgroundColor=default;elbow=vertical;endArrow=classic;" parent="1" source="C8qa_s4hDMUf0WsffLNC-9" target="C8qa_s4hDMUf0WsffLNC-12" edge="1">
                    <mxGeometry relative="1" as="geometry"/>
                </mxCell>
                <mxCell id="C8qa_s4hDMUf0WsffLNC-59" style="edgeStyle=orthogonalEdgeStyle;shape=connector;curved=1;rounded=0;sketch=1;jiggle=2;curveFitting=1;orthogonalLoop=1;jettySize=auto;html=1;exitX=1;exitY=0.5;exitDx=0;exitDy=0;strokeColor=default;align=center;verticalAlign=middle;fontFamily=Comic Sans MS;fontSize=12;fontColor=default;labelBackgroundColor=default;elbow=vertical;endArrow=classic;entryX=0;entryY=0.5;entryDx=0;entryDy=0;" parent="1" source="C8qa_s4hDMUf0WsffLNC-9" target="C8qa_s4hDMUf0WsffLNC-60" edge="1">
                    <mxGeometry relative="1" as="geometry">
                        <mxPoint x="2050" y="755" as="targetPoint"/>
                    </mxGeometry>
                </mxCell>
                <mxCell id="C8qa_s4hDMUf0WsffLNC-9" value="schemas&amp;nbsp;" style="rounded=1;whiteSpace=wrap;html=1;sketch=1;jiggle=2;curveFitting=1;strokeColor=#82b366;align=center;verticalAlign=middle;fontFamily=Comic Sans MS;fontSize=12;fillColor=#d5e8d4;" parent="1" vertex="1">
                    <mxGeometry x="1830" y="735" width="120" height="35" as="geometry"/>
                </mxCell>
                <mxCell id="C8qa_s4hDMUf0WsffLNC-30" style="edgeStyle=orthogonalEdgeStyle;shape=connector;curved=1;rounded=0;sketch=1;jiggle=2;curveFitting=1;orthogonalLoop=1;jettySize=auto;html=1;exitX=0.5;exitY=0;exitDx=0;exitDy=0;strokeColor=default;align=center;verticalAlign=middle;fontFamily=Comic Sans MS;fontSize=12;fontColor=default;labelBackgroundColor=default;elbow=vertical;endArrow=classic;" parent="1" source="C8qa_s4hDMUf0WsffLNC-10" target="C8qa_s4hDMUf0WsffLNC-8" edge="1">
                    <mxGeometry relative="1" as="geometry"/>
                </mxCell>
                <mxCell id="C8qa_s4hDMUf0WsffLNC-10" value="training" style="rounded=1;whiteSpace=wrap;html=1;sketch=1;jiggle=2;curveFitting=1;strokeColor=#82b366;align=center;verticalAlign=middle;fontFamily=Comic Sans MS;fontSize=12;fillColor=#d5e8d4;" parent="1" vertex="1">
                    <mxGeometry x="1500" y="939.17" width="120" height="35" as="geometry"/>
                </mxCell>
                <mxCell id="C8qa_s4hDMUf0WsffLNC-29" style="edgeStyle=orthogonalEdgeStyle;shape=connector;curved=1;rounded=0;sketch=1;jiggle=2;curveFitting=1;orthogonalLoop=1;jettySize=auto;html=1;exitX=0.5;exitY=0;exitDx=0;exitDy=0;entryX=0.5;entryY=1;entryDx=0;entryDy=0;strokeColor=default;align=center;verticalAlign=middle;fontFamily=Comic Sans MS;fontSize=12;fontColor=default;labelBackgroundColor=default;elbow=vertical;endArrow=classic;" parent="1" source="C8qa_s4hDMUf0WsffLNC-11" target="C8qa_s4hDMUf0WsffLNC-10" edge="1">
                    <mxGeometry relative="1" as="geometry"/>
                </mxCell>
                <mxCell id="C8qa_s4hDMUf0WsffLNC-11" value="private data&amp;nbsp;" style="rounded=1;whiteSpace=wrap;html=1;sketch=1;jiggle=2;curveFitting=1;strokeColor=#82b366;align=center;verticalAlign=middle;fontFamily=Comic Sans MS;fontSize=12;fillColor=#d5e8d4;" parent="1" vertex="1">
                    <mxGeometry x="1500" y="1034.17" width="120" height="35" as="geometry"/>
                </mxCell>
                <mxCell id="C8qa_s4hDMUf0WsffLNC-42" style="edgeStyle=orthogonalEdgeStyle;shape=connector;curved=1;rounded=0;sketch=1;jiggle=2;curveFitting=1;orthogonalLoop=1;jettySize=auto;html=1;exitX=0.5;exitY=0;exitDx=0;exitDy=0;strokeColor=default;align=center;verticalAlign=middle;fontFamily=Comic Sans MS;fontSize=12;fontColor=default;labelBackgroundColor=default;elbow=vertical;endArrow=classic;" parent="1" source="C8qa_s4hDMUf0WsffLNC-12" edge="1">
                    <mxGeometry relative="1" as="geometry">
                        <mxPoint x="1889.7586206896553" y="570" as="targetPoint"/>
                    </mxGeometry>
                </mxCell>
                <mxCell id="C8qa_s4hDMUf0WsffLNC-12" value="routers" style="rounded=1;whiteSpace=wrap;html=1;sketch=1;jiggle=2;curveFitting=1;strokeColor=#82b366;align=center;verticalAlign=middle;fontFamily=Comic Sans MS;fontSize=12;fillColor=#d5e8d4;" parent="1" vertex="1">
                    <mxGeometry x="1830" y="650" width="120" height="35" as="geometry"/>
                </mxCell>
                <mxCell id="C8qa_s4hDMUf0WsffLNC-26" style="edgeStyle=orthogonalEdgeStyle;shape=connector;curved=1;rounded=0;sketch=1;jiggle=2;curveFitting=1;orthogonalLoop=1;jettySize=auto;html=1;strokeColor=default;align=center;verticalAlign=middle;fontFamily=Comic Sans MS;fontSize=12;fontColor=default;labelBackgroundColor=default;elbow=vertical;endArrow=classic;" parent="1" source="C8qa_s4hDMUf0WsffLNC-14" target="C8qa_s4hDMUf0WsffLNC-8" edge="1">
                    <mxGeometry relative="1" as="geometry"/>
                </mxCell>
                <mxCell id="C8qa_s4hDMUf0WsffLNC-27" style="edgeStyle=orthogonalEdgeStyle;shape=connector;curved=1;rounded=0;sketch=1;jiggle=2;curveFitting=1;orthogonalLoop=1;jettySize=auto;html=1;exitX=1;exitY=0.5;exitDx=0;exitDy=0;entryX=0;entryY=0.5;entryDx=0;entryDy=0;strokeColor=default;align=center;verticalAlign=middle;fontFamily=Comic Sans MS;fontSize=12;fontColor=default;labelBackgroundColor=default;elbow=vertical;endArrow=classic;" parent="1" source="C8qa_s4hDMUf0WsffLNC-14" target="C8qa_s4hDMUf0WsffLNC-10" edge="1">
                    <mxGeometry relative="1" as="geometry"/>
                </mxCell>
                <mxCell id="C8qa_s4hDMUf0WsffLNC-28" style="edgeStyle=orthogonalEdgeStyle;shape=connector;curved=1;rounded=0;sketch=1;jiggle=2;curveFitting=1;orthogonalLoop=1;jettySize=auto;html=1;exitX=1;exitY=0.5;exitDx=0;exitDy=0;entryX=0;entryY=0.5;entryDx=0;entryDy=0;strokeColor=default;align=center;verticalAlign=middle;fontFamily=Comic Sans MS;fontSize=12;fontColor=default;labelBackgroundColor=default;elbow=vertical;endArrow=classic;" parent="1" source="C8qa_s4hDMUf0WsffLNC-14" target="C8qa_s4hDMUf0WsffLNC-11" edge="1">
                    <mxGeometry relative="1" as="geometry"/>
                </mxCell>
                <mxCell id="C8qa_s4hDMUf0WsffLNC-33" style="edgeStyle=orthogonalEdgeStyle;shape=connector;curved=1;rounded=0;sketch=1;jiggle=2;curveFitting=1;orthogonalLoop=1;jettySize=auto;html=1;exitX=0.5;exitY=0;exitDx=0;exitDy=0;entryX=0;entryY=0.5;entryDx=0;entryDy=0;strokeColor=default;align=center;verticalAlign=middle;fontFamily=Comic Sans MS;fontSize=12;fontColor=default;labelBackgroundColor=default;elbow=vertical;endArrow=classic;" parent="1" source="C8qa_s4hDMUf0WsffLNC-14" target="C8qa_s4hDMUf0WsffLNC-12" edge="1">
                    <mxGeometry relative="1" as="geometry"/>
                </mxCell>
                <mxCell id="ZZNGa623A1HRorKvTUEP-1" value="Format" style="edgeLabel;html=1;align=center;verticalAlign=middle;resizable=0;points=[];" parent="C8qa_s4hDMUf0WsffLNC-33" connectable="0" vertex="1">
                    <mxGeometry x="0.1807" y="-15" relative="1" as="geometry">
                        <mxPoint y="1" as="offset"/>
                    </mxGeometry>
                </mxCell>
                <mxCell id="C8qa_s4hDMUf0WsffLNC-14" value="utils" style="rounded=1;whiteSpace=wrap;html=1;sketch=1;jiggle=2;curveFitting=1;strokeColor=#b85450;align=center;verticalAlign=middle;fontFamily=Comic Sans MS;fontSize=12;fillColor=#f8cecc;" parent="1" vertex="1">
                    <mxGeometry x="1280" y="720" width="120" height="35" as="geometry"/>
                </mxCell>
                <mxCell id="C8qa_s4hDMUf0WsffLNC-36" style="edgeStyle=orthogonalEdgeStyle;shape=connector;curved=1;rounded=0;sketch=1;jiggle=2;curveFitting=1;orthogonalLoop=1;jettySize=auto;html=1;exitX=0.5;exitY=0;exitDx=0;exitDy=0;entryX=0.5;entryY=1;entryDx=0;entryDy=0;strokeColor=default;align=center;verticalAlign=middle;fontFamily=Comic Sans MS;fontSize=12;fontColor=default;labelBackgroundColor=default;elbow=vertical;endArrow=classic;" parent="1" source="C8qa_s4hDMUf0WsffLNC-15" target="C8qa_s4hDMUf0WsffLNC-9" edge="1">
                    <mxGeometry relative="1" as="geometry"/>
                </mxCell>
                <mxCell id="C8qa_s4hDMUf0WsffLNC-15" value="middleware" style="rounded=1;whiteSpace=wrap;html=1;sketch=1;jiggle=2;curveFitting=1;strokeColor=#82b366;align=center;verticalAlign=middle;fontFamily=Comic Sans MS;fontSize=12;fillColor=#d5e8d4;" parent="1" vertex="1">
                    <mxGeometry x="1830" y="825" width="120" height="35" as="geometry"/>
                </mxCell>
                <mxCell id="C8qa_s4hDMUf0WsffLNC-16" value="logging" style="rounded=1;whiteSpace=wrap;html=1;sketch=1;jiggle=2;curveFitting=1;strokeColor=#82b366;align=center;verticalAlign=middle;fontFamily=Comic Sans MS;fontSize=12;fillColor=#d5e8d4;" parent="1" vertex="1">
                    <mxGeometry x="2030" y="535" width="120" height="35" as="geometry"/>
                </mxCell>
                <mxCell id="C8qa_s4hDMUf0WsffLNC-25" style="edgeStyle=orthogonalEdgeStyle;shape=connector;curved=1;rounded=0;sketch=1;jiggle=2;curveFitting=1;orthogonalLoop=1;jettySize=auto;html=1;exitX=1;exitY=0.5;exitDx=0;exitDy=0;strokeColor=default;align=center;verticalAlign=middle;fontFamily=Comic Sans MS;fontSize=12;fontColor=default;labelBackgroundColor=default;elbow=vertical;endArrow=classic;" parent="1" source="C8qa_s4hDMUf0WsffLNC-17" target="C8qa_s4hDMUf0WsffLNC-4" edge="1">
                    <mxGeometry relative="1" as="geometry"/>
                </mxCell>
                <mxCell id="C8qa_s4hDMUf0WsffLNC-63" value="request" style="edgeLabel;html=1;align=center;verticalAlign=middle;resizable=0;points=[];rounded=1;sketch=1;jiggle=2;curveFitting=1;strokeColor=default;fontFamily=Comic Sans MS;fontSize=12;fontColor=default;labelBackgroundColor=default;fillColor=default;" parent="C8qa_s4hDMUf0WsffLNC-25" connectable="0" vertex="1">
                    <mxGeometry x="-0.0903" relative="1" as="geometry">
                        <mxPoint as="offset"/>
                    </mxGeometry>
                </mxCell>
                <mxCell id="C8qa_s4hDMUf0WsffLNC-17" value="Database" style="rounded=1;whiteSpace=wrap;html=1;sketch=1;jiggle=2;curveFitting=1;strokeColor=#b85450;align=center;verticalAlign=middle;fontFamily=Comic Sans MS;fontSize=12;fillColor=#f8cecc;" parent="1" vertex="1">
                    <mxGeometry x="1470" y="535" width="120" height="35" as="geometry"/>
                </mxCell>
                <mxCell id="C8qa_s4hDMUf0WsffLNC-21" style="edgeStyle=orthogonalEdgeStyle;rounded=0;orthogonalLoop=1;jettySize=auto;html=1;exitX=1;exitY=0.5;exitDx=0;exitDy=0;fontFamily=Comic Sans MS;fontSize=12;fontColor=default;entryX=0;entryY=0.5;entryDx=0;entryDy=0;sketch=1;curveFitting=1;jiggle=2;shadow=0;curved=1;fillColor=#f8cecc;strokeColor=#b85450;" parent="1" source="C8qa_s4hDMUf0WsffLNC-18" target="C8qa_s4hDMUf0WsffLNC-17" edge="1">
                    <mxGeometry relative="1" as="geometry">
                        <mxPoint x="1460" y="550" as="targetPoint"/>
                        <Array as="points">
                            <mxPoint x="1435" y="477"/>
                            <mxPoint x="1435" y="553"/>
                        </Array>
                    </mxGeometry>
                </mxCell>
                <mxCell id="C8qa_s4hDMUf0WsffLNC-18" value="PostgreSQL" style="rounded=1;whiteSpace=wrap;html=1;sketch=1;jiggle=2;curveFitting=1;strokeColor=#b85450;align=center;verticalAlign=middle;fontFamily=Comic Sans MS;fontSize=12;fillColor=#f8cecc;" parent="1" vertex="1">
                    <mxGeometry x="1280" y="460" width="120" height="35" as="geometry"/>
                </mxCell>
                <mxCell id="C8qa_s4hDMUf0WsffLNC-22" style="edgeStyle=orthogonalEdgeStyle;rounded=0;orthogonalLoop=1;jettySize=auto;html=1;exitX=1;exitY=0.5;exitDx=0;exitDy=0;fontFamily=Comic Sans MS;fontSize=12;fontColor=default;elbow=vertical;sketch=1;curveFitting=1;jiggle=2;curved=1;fillColor=#f8cecc;strokeColor=#b85450;" parent="1" source="C8qa_s4hDMUf0WsffLNC-19" edge="1">
                    <mxGeometry relative="1" as="geometry">
                        <mxPoint x="1470" y="553" as="targetPoint"/>
                        <Array as="points">
                            <mxPoint x="1435" y="553"/>
                            <mxPoint x="1435" y="554"/>
                            <mxPoint x="1470" y="554"/>
                        </Array>
                    </mxGeometry>
                </mxCell>
                <mxCell id="C8qa_s4hDMUf0WsffLNC-19" value="mySQL" style="rounded=1;whiteSpace=wrap;html=1;sketch=1;jiggle=2;curveFitting=1;strokeColor=#b85450;align=center;verticalAlign=middle;fontFamily=Comic Sans MS;fontSize=12;fillColor=#f8cecc;" parent="1" vertex="1">
                    <mxGeometry x="1280" y="535" width="120" height="35" as="geometry"/>
                </mxCell>
                <mxCell id="C8qa_s4hDMUf0WsffLNC-24" style="edgeStyle=orthogonalEdgeStyle;shape=connector;curved=1;rounded=0;sketch=1;jiggle=2;curveFitting=1;orthogonalLoop=1;jettySize=auto;html=1;exitX=1;exitY=0.5;exitDx=0;exitDy=0;entryX=0;entryY=0.5;entryDx=0;entryDy=0;strokeColor=#b85450;align=center;verticalAlign=middle;fontFamily=Comic Sans MS;fontSize=12;fontColor=default;labelBackgroundColor=default;elbow=vertical;endArrow=classic;fillColor=#f8cecc;" parent="1" source="C8qa_s4hDMUf0WsffLNC-20" target="C8qa_s4hDMUf0WsffLNC-17" edge="1">
                    <mxGeometry relative="1" as="geometry"/>
                </mxCell>
                <mxCell id="C8qa_s4hDMUf0WsffLNC-20" value="MongoDB" style="rounded=1;whiteSpace=wrap;html=1;sketch=1;jiggle=2;curveFitting=1;strokeColor=#b85450;align=center;verticalAlign=middle;fontFamily=Comic Sans MS;fontSize=12;fillColor=#f8cecc;" parent="1" vertex="1">
                    <mxGeometry x="1280" y="605" width="120" height="35" as="geometry"/>
                </mxCell>
                <mxCell id="C8qa_s4hDMUf0WsffLNC-45" style="edgeStyle=orthogonalEdgeStyle;shape=connector;curved=1;rounded=0;sketch=1;jiggle=2;curveFitting=1;orthogonalLoop=1;jettySize=auto;html=1;exitX=0.5;exitY=0;exitDx=0;exitDy=0;strokeColor=default;align=center;verticalAlign=middle;fontFamily=Comic Sans MS;fontSize=12;fontColor=default;labelBackgroundColor=default;elbow=vertical;endArrow=classic;" parent="1" source="C8qa_s4hDMUf0WsffLNC-44" edge="1">
                    <mxGeometry relative="1" as="geometry">
                        <mxPoint x="1890" y="570" as="targetPoint"/>
                    </mxGeometry>
                </mxCell>
                <mxCell id="JNIeYi1GIVnIYDPHy1YM-1" value="" style="edgeStyle=orthogonalEdgeStyle;shape=connector;curved=1;rounded=0;sketch=1;jiggle=2;curveFitting=1;orthogonalLoop=1;jettySize=auto;html=1;strokeColor=default;align=center;verticalAlign=middle;fontFamily=Comic Sans MS;fontSize=12;fontColor=default;labelBackgroundColor=default;endArrow=classic;" parent="1" source="C8qa_s4hDMUf0WsffLNC-44" target="C8qa_s4hDMUf0WsffLNC-7" edge="1">
                    <mxGeometry relative="1" as="geometry"/>
                </mxCell>
                <mxCell id="C8qa_s4hDMUf0WsffLNC-44" value="requirement packages" style="rounded=1;whiteSpace=wrap;html=1;sketch=1;jiggle=2;curveFitting=1;strokeColor=#b85450;align=center;verticalAlign=middle;fontFamily=Comic Sans MS;fontSize=12;fillColor=#f8cecc;" parent="1" vertex="1">
                    <mxGeometry x="2000" y="650" width="120" height="35" as="geometry"/>
                </mxCell>
                <mxCell id="C8qa_s4hDMUf0WsffLNC-52" style="edgeStyle=orthogonalEdgeStyle;shape=connector;curved=1;rounded=0;sketch=1;jiggle=2;curveFitting=1;orthogonalLoop=1;jettySize=auto;html=1;exitX=0.5;exitY=0;exitDx=0;exitDy=0;entryX=0;entryY=0.5;entryDx=0;entryDy=0;strokeColor=default;align=center;verticalAlign=middle;fontFamily=Comic Sans MS;fontSize=12;fontColor=default;labelBackgroundColor=default;elbow=vertical;endArrow=classic;" parent="1" source="C8qa_s4hDMUf0WsffLNC-50" target="C8qa_s4hDMUf0WsffLNC-12" edge="1">
                    <mxGeometry relative="1" as="geometry"/>
                </mxCell>
                <mxCell id="C8qa_s4hDMUf0WsffLNC-50" value="model predictor" style="rounded=1;whiteSpace=wrap;html=1;sketch=1;jiggle=2;curveFitting=1;strokeColor=#82b366;align=center;verticalAlign=middle;fontFamily=Comic Sans MS;fontSize=12;fillColor=#d5e8d4;" parent="1" vertex="1">
                    <mxGeometry x="1590" y="720" width="120" height="35" as="geometry"/>
                </mxCell>
                <mxCell id="C8qa_s4hDMUf0WsffLNC-55" style="edgeStyle=orthogonalEdgeStyle;shape=connector;curved=1;rounded=0;sketch=1;jiggle=2;curveFitting=1;orthogonalLoop=1;jettySize=auto;html=1;exitX=0;exitY=0.5;exitDx=0;exitDy=0;entryX=1;entryY=0.5;entryDx=0;entryDy=0;strokeColor=default;align=center;verticalAlign=middle;fontFamily=Comic Sans MS;fontSize=12;fontColor=default;labelBackgroundColor=default;elbow=vertical;endArrow=classic;" parent="1" source="C8qa_s4hDMUf0WsffLNC-54" target="C8qa_s4hDMUf0WsffLNC-8" edge="1">
                    <mxGeometry relative="1" as="geometry"/>
                </mxCell>
                <mxCell id="C8qa_s4hDMUf0WsffLNC-56" style="edgeStyle=orthogonalEdgeStyle;shape=connector;curved=1;rounded=0;sketch=1;jiggle=2;curveFitting=1;orthogonalLoop=1;jettySize=auto;html=1;exitX=0.5;exitY=0;exitDx=0;exitDy=0;entryX=0.5;entryY=1;entryDx=0;entryDy=0;strokeColor=default;align=center;verticalAlign=middle;fontFamily=Comic Sans MS;fontSize=12;fontColor=default;labelBackgroundColor=default;elbow=vertical;endArrow=classic;" parent="1" source="C8qa_s4hDMUf0WsffLNC-54" target="C8qa_s4hDMUf0WsffLNC-50" edge="1">
                    <mxGeometry relative="1" as="geometry"/>
                </mxCell>
                <mxCell id="C8qa_s4hDMUf0WsffLNC-57" style="edgeStyle=orthogonalEdgeStyle;shape=connector;curved=1;rounded=0;sketch=1;jiggle=2;curveFitting=1;orthogonalLoop=1;jettySize=auto;html=1;exitX=0.5;exitY=1;exitDx=0;exitDy=0;entryX=1;entryY=0.5;entryDx=0;entryDy=0;strokeColor=default;align=center;verticalAlign=middle;fontFamily=Comic Sans MS;fontSize=12;fontColor=default;labelBackgroundColor=default;elbow=vertical;endArrow=classic;" parent="1" source="C8qa_s4hDMUf0WsffLNC-54" target="C8qa_s4hDMUf0WsffLNC-10" edge="1">
                    <mxGeometry relative="1" as="geometry"/>
                </mxCell>
                <mxCell id="C8qa_s4hDMUf0WsffLNC-54" value="config" style="rounded=1;whiteSpace=wrap;html=1;sketch=1;jiggle=2;curveFitting=1;strokeColor=#82b366;align=center;verticalAlign=middle;fontFamily=Comic Sans MS;fontSize=12;fillColor=#d5e8d4;" parent="1" vertex="1">
                    <mxGeometry x="1670" y="849.17" width="130" height="35" as="geometry"/>
                </mxCell>
                <mxCell id="C8qa_s4hDMUf0WsffLNC-60" value="output schema" style="rounded=1;whiteSpace=wrap;html=1;sketch=1;jiggle=2;curveFitting=1;strokeColor=#82b366;align=center;verticalAlign=middle;fontFamily=Comic Sans MS;fontSize=12;labelBackgroundColor=default;fillColor=#d5e8d4;" parent="1" vertex="1">
                    <mxGeometry x="2070" y="735" width="90" height="35" as="geometry"/>
                </mxCell>
                <mxCell id="C8qa_s4hDMUf0WsffLNC-62" style="edgeStyle=orthogonalEdgeStyle;shape=connector;curved=1;rounded=0;sketch=1;jiggle=2;curveFitting=1;orthogonalLoop=1;jettySize=auto;html=1;exitX=0;exitY=0.5;exitDx=0;exitDy=0;entryX=1;entryY=0.5;entryDx=0;entryDy=0;strokeColor=default;align=center;verticalAlign=middle;fontFamily=Comic Sans MS;fontSize=12;fontColor=default;labelBackgroundColor=default;elbow=vertical;endArrow=classic;" parent="1" source="C8qa_s4hDMUf0WsffLNC-61" target="C8qa_s4hDMUf0WsffLNC-9" edge="1">
                    <mxGeometry relative="1" as="geometry"/>
                </mxCell>
                <mxCell id="C8qa_s4hDMUf0WsffLNC-61" value="input schema" style="rounded=1;whiteSpace=wrap;html=1;sketch=1;jiggle=2;curveFitting=1;strokeColor=#82b366;align=center;verticalAlign=middle;fontFamily=Comic Sans MS;fontSize=12;labelBackgroundColor=default;fillColor=#d5e8d4;" parent="1" vertex="1">
                    <mxGeometry x="2080" y="927.5" width="90" height="35" as="geometry"/>
                </mxCell>
                <mxCell id="GWDCUABjOga6RXXY2cN4-5" value="" style="group" parent="1" connectable="0" vertex="1">
                    <mxGeometry x="2280" y="747.5" width="140" height="235" as="geometry"/>
                </mxCell>
                <mxCell id="GWDCUABjOga6RXXY2cN4-4" value="" style="rounded=1;whiteSpace=wrap;html=1;sketch=1;jiggle=2;curveFitting=1;strokeColor=default;align=center;verticalAlign=middle;fontFamily=Comic Sans MS;fontSize=12;fontColor=default;fillColor=default;" parent="GWDCUABjOga6RXXY2cN4-5" vertex="1">
                    <mxGeometry width="140" height="235" as="geometry"/>
                </mxCell>
                <mxCell id="GWDCUABjOga6RXXY2cN4-1" value="Pending" style="rounded=1;whiteSpace=wrap;html=1;sketch=1;jiggle=2;curveFitting=1;strokeColor=#b85450;align=center;verticalAlign=middle;fontFamily=Comic Sans MS;fontSize=12;fillColor=#f8cecc;" parent="GWDCUABjOga6RXXY2cN4-5" vertex="1">
                    <mxGeometry x="10" y="25" width="120" height="35" as="geometry"/>
                </mxCell>
                <mxCell id="GWDCUABjOga6RXXY2cN4-2" value="In progress" style="rounded=1;whiteSpace=wrap;html=1;sketch=1;jiggle=2;curveFitting=1;strokeColor=#6c8ebf;align=center;verticalAlign=middle;fontFamily=Comic Sans MS;fontSize=12;fillColor=#dae8fc;" parent="GWDCUABjOga6RXXY2cN4-5" vertex="1">
                    <mxGeometry x="10" y="100" width="120" height="35" as="geometry"/>
                </mxCell>
                <mxCell id="GWDCUABjOga6RXXY2cN4-3" value="Done" style="rounded=1;whiteSpace=wrap;html=1;sketch=1;jiggle=2;curveFitting=1;strokeColor=#82b366;align=center;verticalAlign=middle;fontFamily=Comic Sans MS;fontSize=12;fillColor=#d5e8d4;" parent="GWDCUABjOga6RXXY2cN4-5" vertex="1">
                    <mxGeometry x="10" y="180" width="120" height="35" as="geometry"/>
                </mxCell>
            </root>
        </mxGraphModel>
    </diagram>
    <diagram id="qxNWD2rTzuLWR1Kk-x85" name="aws step function">
        <mxGraphModel dx="1489" dy="1137" grid="1" gridSize="10" guides="1" tooltips="1" connect="1" arrows="1" fold="1" page="1" pageScale="1" pageWidth="1100" pageHeight="850" math="0" shadow="0">
            <root>
                <mxCell id="0"/>
                <mxCell id="1" parent="0"/>
                <mxCell id="gEiMeqD2YP8ZFfkb5nAJ-3" value="" style="edgeStyle=orthogonalEdgeStyle;rounded=0;orthogonalLoop=1;jettySize=auto;html=1;fontFamily=Comic Sans MS;fontSize=12;fontColor=default;sketch=1;curveFitting=1;jiggle=2;" parent="1" source="gEiMeqD2YP8ZFfkb5nAJ-1" target="gEiMeqD2YP8ZFfkb5nAJ-2" edge="1">
                    <mxGeometry relative="1" as="geometry"/>
                </mxCell>
                <mxCell id="gEiMeqD2YP8ZFfkb5nAJ-1" value="AWS&lt;br&gt;Step Function" style="rounded=1;whiteSpace=wrap;html=1;sketch=1;curveFitting=1;jiggle=2;fontFamily=Comic Sans MS;" parent="1" vertex="1">
                    <mxGeometry x="-880" y="50" width="120" height="60" as="geometry"/>
                </mxCell>
                <mxCell id="gEiMeqD2YP8ZFfkb5nAJ-5" value="" style="edgeStyle=orthogonalEdgeStyle;rounded=0;orthogonalLoop=1;jettySize=auto;html=1;fontFamily=Comic Sans MS;fontSize=12;fontColor=default;sketch=1;curveFitting=1;jiggle=2;" parent="1" source="gEiMeqD2YP8ZFfkb5nAJ-2" target="gEiMeqD2YP8ZFfkb5nAJ-4" edge="1">
                    <mxGeometry relative="1" as="geometry"/>
                </mxCell>
                <mxCell id="gEiMeqD2YP8ZFfkb5nAJ-2" value="Features" style="whiteSpace=wrap;html=1;fontFamily=Comic Sans MS;rounded=1;sketch=1;curveFitting=1;jiggle=2;" parent="1" vertex="1">
                    <mxGeometry x="-850" y="182.5" width="120" height="60" as="geometry"/>
                </mxCell>
                <mxCell id="gEiMeqD2YP8ZFfkb5nAJ-4" value="Dynamic Sequence" style="whiteSpace=wrap;html=1;fontFamily=Comic Sans MS;rounded=1;sketch=1;curveFitting=1;jiggle=2;" parent="1" vertex="1">
                    <mxGeometry x="-880" y="302.5" width="120" height="60" as="geometry"/>
                </mxCell>
                <mxCell id="uCUXts_ET8Qx4ScvXAXh-32" style="edgeStyle=orthogonalEdgeStyle;shape=connector;curved=1;rounded=0;sketch=1;jiggle=2;curveFitting=1;orthogonalLoop=1;jettySize=auto;html=1;exitX=0;exitY=0.5;exitDx=0;exitDy=0;entryX=0.5;entryY=0;entryDx=0;entryDy=0;strokeColor=default;align=center;verticalAlign=middle;fontFamily=Comic Sans MS;fontSize=12;fontColor=default;labelBackgroundColor=default;endArrow=classic;" parent="1" source="uCUXts_ET8Qx4ScvXAXh-1" target="uCUXts_ET8Qx4ScvXAXh-11" edge="1">
                    <mxGeometry relative="1" as="geometry"/>
                </mxCell>
                <mxCell id="uCUXts_ET8Qx4ScvXAXh-37" value="" style="edgeLabel;html=1;align=center;verticalAlign=middle;resizable=0;points=[];rounded=1;sketch=1;jiggle=2;curveFitting=1;strokeColor=default;fontFamily=Comic Sans MS;fontSize=12;fontColor=default;fillColor=default;" parent="uCUXts_ET8Qx4ScvXAXh-32" connectable="0" vertex="1">
                    <mxGeometry x="-0.9348" y="-19" relative="1" as="geometry">
                        <mxPoint as="offset"/>
                    </mxGeometry>
                </mxCell>
                <mxCell id="uCUXts_ET8Qx4ScvXAXh-38" value="workflow" style="edgeLabel;html=1;align=center;verticalAlign=middle;resizable=0;points=[];rounded=1;sketch=1;jiggle=2;curveFitting=1;strokeColor=default;fontFamily=Comic Sans MS;fontSize=12;fontColor=default;fillColor=default;" parent="uCUXts_ET8Qx4ScvXAXh-32" connectable="0" vertex="1">
                    <mxGeometry x="-0.0376" y="5" relative="1" as="geometry">
                        <mxPoint as="offset"/>
                    </mxGeometry>
                </mxCell>
                <mxCell id="uCUXts_ET8Qx4ScvXAXh-36" style="edgeStyle=orthogonalEdgeStyle;shape=connector;curved=1;rounded=0;sketch=1;jiggle=2;curveFitting=1;orthogonalLoop=1;jettySize=auto;html=1;exitX=0;exitY=0.5;exitDx=0;exitDy=0;entryX=1;entryY=0.5;entryDx=0;entryDy=0;strokeColor=default;align=center;verticalAlign=middle;fontFamily=Comic Sans MS;fontSize=12;fontColor=default;labelBackgroundColor=default;endArrow=classic;" parent="1" source="uCUXts_ET8Qx4ScvXAXh-1" target="uCUXts_ET8Qx4ScvXAXh-2" edge="1">
                    <mxGeometry relative="1" as="geometry"/>
                </mxCell>
                <mxCell id="uCUXts_ET8Qx4ScvXAXh-41" value="" style="edgeStyle=orthogonalEdgeStyle;shape=connector;curved=1;rounded=0;sketch=1;jiggle=2;curveFitting=1;orthogonalLoop=1;jettySize=auto;html=1;strokeColor=default;align=center;verticalAlign=middle;fontFamily=Comic Sans MS;fontSize=12;fontColor=default;labelBackgroundColor=default;endArrow=classic;" parent="1" source="uCUXts_ET8Qx4ScvXAXh-1" target="uCUXts_ET8Qx4ScvXAXh-40" edge="1">
                    <mxGeometry relative="1" as="geometry"/>
                </mxCell>
                <mxCell id="uCUXts_ET8Qx4ScvXAXh-1" value="AWS Step functions" style="rounded=1;whiteSpace=wrap;html=1;sketch=1;curveFitting=1;jiggle=2;fontFamily=Comic Sans MS;" parent="1" vertex="1">
                    <mxGeometry x="680" y="80" width="130" height="50" as="geometry"/>
                </mxCell>
                <mxCell id="uCUXts_ET8Qx4ScvXAXh-35" style="edgeStyle=orthogonalEdgeStyle;shape=connector;curved=1;rounded=0;sketch=1;jiggle=2;curveFitting=1;orthogonalLoop=1;jettySize=auto;html=1;exitX=0;exitY=0.5;exitDx=0;exitDy=0;entryX=0.5;entryY=1;entryDx=0;entryDy=0;strokeColor=default;align=center;verticalAlign=middle;fontFamily=Comic Sans MS;fontSize=12;fontColor=default;labelBackgroundColor=default;endArrow=classic;" parent="1" source="uCUXts_ET8Qx4ScvXAXh-2" target="uCUXts_ET8Qx4ScvXAXh-9" edge="1">
                    <mxGeometry relative="1" as="geometry"/>
                </mxCell>
                <mxCell id="uCUXts_ET8Qx4ScvXAXh-2" value="&lt;font style=&quot;font-size: 8px;&quot;&gt;&lt;br&gt;&lt;span style=&quot;color: rgb(15, 20, 26); font-style: normal; font-variant-ligatures: normal; font-variant-caps: normal; font-weight: 400; letter-spacing: normal; orphans: 2; text-align: start; text-indent: 0px; text-transform: none; widows: 2; word-spacing: 0px; -webkit-text-stroke-width: 0px; white-space: normal; background-color: rgb(255, 255, 255); text-decoration-thickness: initial; text-decoration-style: initial; text-decoration-color: initial; float: none; display: inline !important;&quot;&gt;Step Functions is based on&lt;span&gt;&amp;nbsp;&lt;/span&gt;&lt;/span&gt;&lt;em style=&quot;color: rgb(15, 20, 26); font-variant-ligatures: normal; font-variant-caps: normal; font-weight: 400; letter-spacing: normal; orphans: 2; text-align: start; text-indent: 0px; text-transform: none; widows: 2; word-spacing: 0px; -webkit-text-stroke-width: 0px; white-space: normal; background-color: rgb(255, 255, 255); text-decoration-thickness: initial; text-decoration-style: initial; text-decoration-color: initial;&quot;&gt;state machines&lt;/em&gt;&lt;span style=&quot;color: rgb(15, 20, 26); font-style: normal; font-variant-ligatures: normal; font-variant-caps: normal; font-weight: 400; letter-spacing: normal; orphans: 2; text-align: start; text-indent: 0px; text-transform: none; widows: 2; word-spacing: 0px; -webkit-text-stroke-width: 0px; white-space: normal; background-color: rgb(255, 255, 255); text-decoration-thickness: initial; text-decoration-style: initial; text-decoration-color: initial; float: none; display: inline !important;&quot;&gt;&lt;span&gt;&amp;nbsp;&lt;/span&gt;and&lt;span&gt;&amp;nbsp;&lt;/span&gt;&lt;/span&gt;&lt;em style=&quot;color: rgb(15, 20, 26); font-variant-ligatures: normal; font-variant-caps: normal; font-weight: 400; letter-spacing: normal; orphans: 2; text-align: start; text-indent: 0px; text-transform: none; widows: 2; word-spacing: 0px; -webkit-text-stroke-width: 0px; white-space: normal; background-color: rgb(255, 255, 255); text-decoration-thickness: initial; text-decoration-style: initial; text-decoration-color: initial;&quot;&gt;tasks&lt;/em&gt;&lt;span style=&quot;color: rgb(15, 20, 26); font-style: normal; font-variant-ligatures: normal; font-variant-caps: normal; font-weight: 400; letter-spacing: normal; orphans: 2; text-align: start; text-indent: 0px; text-transform: none; widows: 2; word-spacing: 0px; -webkit-text-stroke-width: 0px; white-space: normal; background-color: rgb(255, 255, 255); text-decoration-thickness: initial; text-decoration-style: initial; text-decoration-color: initial; float: none; display: inline !important;&quot;&gt;. In Step Functions, state machines are called&lt;span&gt;&amp;nbsp;&lt;/span&gt;&lt;/span&gt;&lt;em style=&quot;color: rgb(15, 20, 26); font-variant-ligatures: normal; font-variant-caps: normal; font-weight: 400; letter-spacing: normal; orphans: 2; text-align: start; text-indent: 0px; text-transform: none; widows: 2; word-spacing: 0px; -webkit-text-stroke-width: 0px; white-space: normal; background-color: rgb(255, 255, 255); text-decoration-thickness: initial; text-decoration-style: initial; text-decoration-color: initial;&quot;&gt;workflows&lt;/em&gt;&lt;span style=&quot;color: rgb(15, 20, 26); font-style: normal; font-variant-ligatures: normal; font-variant-caps: normal; font-weight: 400; letter-spacing: normal; orphans: 2; text-align: start; text-indent: 0px; text-transform: none; widows: 2; word-spacing: 0px; -webkit-text-stroke-width: 0px; white-space: normal; background-color: rgb(255, 255, 255); text-decoration-thickness: initial; text-decoration-style: initial; text-decoration-color: initial; float: none; display: inline !important;&quot;&gt;, which are a series of event-driven steps. Each step in a workflow is called a&lt;span&gt;&amp;nbsp;&lt;/span&gt;&lt;/span&gt;&lt;em style=&quot;color: rgb(15, 20, 26); font-variant-ligatures: normal; font-variant-caps: normal; font-weight: 400; letter-spacing: normal; orphans: 2; text-align: start; text-indent: 0px; text-transform: none; widows: 2; word-spacing: 0px; -webkit-text-stroke-width: 0px; white-space: normal; background-color: rgb(255, 255, 255); text-decoration-thickness: initial; text-decoration-style: initial; text-decoration-color: initial;&quot;&gt;state&lt;/em&gt;&lt;span style=&quot;color: rgb(15, 20, 26); font-style: normal; font-variant-ligatures: normal; font-variant-caps: normal; font-weight: 400; letter-spacing: normal; orphans: 2; text-align: start; text-indent: 0px; text-transform: none; widows: 2; word-spacing: 0px; -webkit-text-stroke-width: 0px; white-space: normal; background-color: rgb(255, 255, 255); text-decoration-thickness: initial; text-decoration-style: initial; text-decoration-color: initial; float: none; display: inline !important;&quot;&gt;.&lt;/span&gt;&lt;br&gt;&lt;/font&gt;" style="whiteSpace=wrap;html=1;fontFamily=Comic Sans MS;rounded=1;sketch=1;curveFitting=1;jiggle=2;fontSize=7;" parent="1" vertex="1">
                    <mxGeometry x="150" width="140" height="90" as="geometry"/>
                </mxCell>
                <mxCell id="uCUXts_ET8Qx4ScvXAXh-9" value="" style="shape=image;verticalLabelPosition=bottom;labelBackgroundColor=default;verticalAlign=top;aspect=fixed;imageAspect=0;image=https://docs.aws.amazon.com/images/step-functions/latest/dg/images/step-functions-example.png;sketch=1;curveFitting=1;jiggle=2;imageBorder=default;imageBackground=#A882FF;" parent="1" vertex="1">
                    <mxGeometry x="-40" y="-245.15" width="180" height="135.15" as="geometry"/>
                </mxCell>
                <mxCell id="uCUXts_ET8Qx4ScvXAXh-18" style="edgeStyle=orthogonalEdgeStyle;shape=connector;curved=1;rounded=0;sketch=1;jiggle=2;curveFitting=1;orthogonalLoop=1;jettySize=auto;html=1;exitX=0;exitY=0.5;exitDx=0;exitDy=0;entryX=0.5;entryY=0;entryDx=0;entryDy=0;strokeColor=default;align=center;verticalAlign=middle;fontFamily=Comic Sans MS;fontSize=12;fontColor=default;labelBackgroundColor=default;endArrow=classic;" parent="1" source="uCUXts_ET8Qx4ScvXAXh-11" target="uCUXts_ET8Qx4ScvXAXh-12" edge="1">
                    <mxGeometry relative="1" as="geometry"/>
                </mxCell>
                <mxCell id="uCUXts_ET8Qx4ScvXAXh-19" style="edgeStyle=orthogonalEdgeStyle;shape=connector;curved=1;rounded=0;sketch=1;jiggle=2;curveFitting=1;orthogonalLoop=1;jettySize=auto;html=1;exitX=1;exitY=0.5;exitDx=0;exitDy=0;entryX=0.5;entryY=0;entryDx=0;entryDy=0;strokeColor=default;align=center;verticalAlign=middle;fontFamily=Comic Sans MS;fontSize=12;fontColor=default;labelBackgroundColor=default;endArrow=classic;" parent="1" source="uCUXts_ET8Qx4ScvXAXh-11" target="uCUXts_ET8Qx4ScvXAXh-13" edge="1">
                    <mxGeometry relative="1" as="geometry"/>
                </mxCell>
                <mxCell id="uCUXts_ET8Qx4ScvXAXh-11" value="Workflow Types" style="rounded=1;whiteSpace=wrap;html=1;sketch=1;jiggle=2;curveFitting=1;strokeColor=default;align=center;verticalAlign=middle;fontFamily=Comic Sans MS;fontSize=12;fontColor=default;fillColor=default;" parent="1" vertex="1">
                    <mxGeometry x="-105" y="232.5" width="120" height="60" as="geometry"/>
                </mxCell>
                <mxCell id="uCUXts_ET8Qx4ScvXAXh-15" value="" style="edgeStyle=orthogonalEdgeStyle;shape=connector;curved=1;rounded=0;sketch=1;jiggle=2;curveFitting=1;orthogonalLoop=1;jettySize=auto;html=1;strokeColor=default;align=center;verticalAlign=middle;fontFamily=Comic Sans MS;fontSize=12;fontColor=default;labelBackgroundColor=default;endArrow=classic;entryX=1;entryY=0.5;entryDx=0;entryDy=0;" parent="1" source="uCUXts_ET8Qx4ScvXAXh-12" target="uCUXts_ET8Qx4ScvXAXh-14" edge="1">
                    <mxGeometry relative="1" as="geometry"/>
                </mxCell>
                <mxCell id="uCUXts_ET8Qx4ScvXAXh-17" value="" style="edgeStyle=orthogonalEdgeStyle;shape=connector;curved=1;rounded=0;sketch=1;jiggle=2;curveFitting=1;orthogonalLoop=1;jettySize=auto;html=1;strokeColor=default;align=center;verticalAlign=middle;fontFamily=Comic Sans MS;fontSize=12;fontColor=default;labelBackgroundColor=default;endArrow=classic;" parent="1" source="uCUXts_ET8Qx4ScvXAXh-12" target="uCUXts_ET8Qx4ScvXAXh-16" edge="1">
                    <mxGeometry relative="1" as="geometry"/>
                </mxCell>
                <mxCell id="uCUXts_ET8Qx4ScvXAXh-31" style="edgeStyle=orthogonalEdgeStyle;shape=connector;curved=1;rounded=0;sketch=1;jiggle=2;curveFitting=1;orthogonalLoop=1;jettySize=auto;html=1;exitX=0.5;exitY=1;exitDx=0;exitDy=0;entryX=0;entryY=0.5;entryDx=0;entryDy=0;strokeColor=default;align=center;verticalAlign=middle;fontFamily=Comic Sans MS;fontSize=12;fontColor=default;labelBackgroundColor=default;endArrow=classic;" parent="1" source="uCUXts_ET8Qx4ScvXAXh-12" target="uCUXts_ET8Qx4ScvXAXh-27" edge="1">
                    <mxGeometry relative="1" as="geometry"/>
                </mxCell>
                <mxCell id="uCUXts_ET8Qx4ScvXAXh-12" value="Standard" style="rounded=1;whiteSpace=wrap;html=1;sketch=1;jiggle=2;curveFitting=1;strokeColor=#6c8ebf;align=center;verticalAlign=middle;fontFamily=Comic Sans MS;fontSize=12;fillColor=#dae8fc;" parent="1" vertex="1">
                    <mxGeometry x="-250" y="332.5" width="120" height="30" as="geometry"/>
                </mxCell>
                <mxCell id="uCUXts_ET8Qx4ScvXAXh-21" value="" style="edgeStyle=orthogonalEdgeStyle;shape=connector;curved=1;rounded=0;sketch=1;jiggle=2;curveFitting=1;orthogonalLoop=1;jettySize=auto;html=1;strokeColor=default;align=center;verticalAlign=middle;fontFamily=Comic Sans MS;fontSize=12;fontColor=default;labelBackgroundColor=default;endArrow=classic;entryX=0;entryY=0.5;entryDx=0;entryDy=0;" parent="1" source="uCUXts_ET8Qx4ScvXAXh-13" target="uCUXts_ET8Qx4ScvXAXh-20" edge="1">
                    <mxGeometry relative="1" as="geometry"/>
                </mxCell>
                <mxCell id="uCUXts_ET8Qx4ScvXAXh-23" value="" style="edgeStyle=orthogonalEdgeStyle;shape=connector;curved=1;rounded=0;sketch=1;jiggle=2;curveFitting=1;orthogonalLoop=1;jettySize=auto;html=1;strokeColor=default;align=center;verticalAlign=middle;fontFamily=Comic Sans MS;fontSize=12;fontColor=default;labelBackgroundColor=default;endArrow=classic;" parent="1" source="uCUXts_ET8Qx4ScvXAXh-13" target="uCUXts_ET8Qx4ScvXAXh-22" edge="1">
                    <mxGeometry relative="1" as="geometry"/>
                </mxCell>
                <mxCell id="uCUXts_ET8Qx4ScvXAXh-26" value="" style="edgeStyle=orthogonalEdgeStyle;shape=connector;curved=1;rounded=0;sketch=1;jiggle=2;curveFitting=1;orthogonalLoop=1;jettySize=auto;html=1;strokeColor=default;align=center;verticalAlign=middle;fontFamily=Comic Sans MS;fontSize=12;fontColor=default;labelBackgroundColor=default;endArrow=classic;entryX=0;entryY=0.5;entryDx=0;entryDy=0;" parent="1" source="uCUXts_ET8Qx4ScvXAXh-13" target="uCUXts_ET8Qx4ScvXAXh-25" edge="1">
                    <mxGeometry relative="1" as="geometry"/>
                </mxCell>
                <mxCell id="uCUXts_ET8Qx4ScvXAXh-30" style="edgeStyle=orthogonalEdgeStyle;shape=connector;curved=1;rounded=0;sketch=1;jiggle=2;curveFitting=1;orthogonalLoop=1;jettySize=auto;html=1;exitX=0.5;exitY=1;exitDx=0;exitDy=0;entryX=1;entryY=0.5;entryDx=0;entryDy=0;strokeColor=default;align=center;verticalAlign=middle;fontFamily=Comic Sans MS;fontSize=12;fontColor=default;labelBackgroundColor=default;endArrow=classic;" parent="1" source="uCUXts_ET8Qx4ScvXAXh-13" target="uCUXts_ET8Qx4ScvXAXh-27" edge="1">
                    <mxGeometry relative="1" as="geometry"/>
                </mxCell>
                <mxCell id="uCUXts_ET8Qx4ScvXAXh-13" value="Express" style="rounded=1;whiteSpace=wrap;html=1;sketch=1;jiggle=2;curveFitting=1;strokeColor=#b85450;align=center;verticalAlign=middle;fontFamily=Comic Sans MS;fontSize=12;fillColor=#f8cecc;" parent="1" vertex="1">
                    <mxGeometry x="100" y="342.5" width="120" height="30" as="geometry"/>
                </mxCell>
                <mxCell id="uCUXts_ET8Qx4ScvXAXh-14" value="long-running, auditable workflows" style="whiteSpace=wrap;html=1;fontFamily=Comic Sans MS;fillColor=#dae8fc;strokeColor=#6c8ebf;rounded=1;sketch=1;jiggle=2;curveFitting=1;" parent="1" vertex="1">
                    <mxGeometry x="-410" y="232.5" width="120" height="35" as="geometry"/>
                </mxCell>
                <mxCell id="uCUXts_ET8Qx4ScvXAXh-16" value="exactly-once workflow execution and can run for up to one year." style="whiteSpace=wrap;html=1;fontFamily=Comic Sans MS;fillColor=#dae8fc;strokeColor=#6c8ebf;rounded=1;sketch=1;jiggle=2;curveFitting=1;" parent="1" vertex="1">
                    <mxGeometry x="-410" y="342.5" width="120" height="70" as="geometry"/>
                </mxCell>
                <mxCell id="uCUXts_ET8Qx4ScvXAXh-20" value="ideal for high-event-rate workloads,&amp;nbsp;" style="whiteSpace=wrap;html=1;fontFamily=Comic Sans MS;fillColor=#f8cecc;strokeColor=#b85450;rounded=1;sketch=1;jiggle=2;curveFitting=1;" parent="1" vertex="1">
                    <mxGeometry x="340" y="220" width="120" height="60" as="geometry"/>
                </mxCell>
                <mxCell id="uCUXts_ET8Qx4ScvXAXh-22" value="idea for streaming data processing and IoT data ingestion" style="whiteSpace=wrap;html=1;fontFamily=Comic Sans MS;fillColor=#f8cecc;strokeColor=#b85450;rounded=1;sketch=1;jiggle=2;curveFitting=1;" parent="1" vertex="1">
                    <mxGeometry x="340" y="312.5" width="120" height="60" as="geometry"/>
                </mxCell>
                <mxCell id="uCUXts_ET8Qx4ScvXAXh-25" value="at-least-once workflow execution and can run for up to five minutes." style="whiteSpace=wrap;html=1;fontFamily=Comic Sans MS;fillColor=#f8cecc;strokeColor=#b85450;rounded=1;sketch=1;jiggle=2;curveFitting=1;" parent="1" vertex="1">
                    <mxGeometry x="340" y="422.5" width="120" height="70" as="geometry"/>
                </mxCell>
                <mxCell id="uCUXts_ET8Qx4ScvXAXh-27" value="" style="shape=image;verticalLabelPosition=bottom;labelBackgroundColor=default;verticalAlign=top;aspect=fixed;imageAspect=0;image=data:image/png,iVBORw0KGgoAAAANSUhEUgAAAnwAAAJGCAYAAADBDFidAAAAAXNSR0IArs4c6QAAAARnQU1BAACxjwv8YQUAAAAJcEhZcwAADsMAAA7DAcdvqGQAAP+lSURBVHhe7J0FeFRHF4YPEtwluIbgEiRAcHd3Ky6F4oVCcShQKG0p/Lh78Rb34E6CQ3AIFtwtyP73O7mzbJa1hATC9rx57rO7c+eOz5kzZ2ZuIhk0SBAEQRAEQXBaIuufgiAIgiAIgpMiCp8gCIIgCIKTE+nDhw+GwMC35Ot7SncSBEEQBEEQvmXy5ctJ0aK5UKRIkfh3JE3ZM1y7eZOSJ0nGDoIgCMK3wcmTZyhXruz6L0EQhCAgG5KmSEzpUqUiF5eo7BbZQAZ68yaQfwiCIAiCIAjfPtDtoOMpZA+fIAiCIAiCkyMKnyAIgiAIgpMjCp8gCIIgCIKTIwqfIAiCIAiCkyMKnyAIgiAIgpMjCp8gCIIgCIKTIwqfIAiCIAiCkyMKnyAIgiAIgpMjCp8gCIIgCIKTIwqfIAiCIAiCkyMKnyAIgiAIgpMjCp8gCIIgCIKTIwqfIAiCIAiCkyMKnyAIgiAIgpMjCp8gCIIgCIKTIwqfIAiCIAiCkyMKnyAIgiAIgpMjCp8gCIIgCIKTIwqfIAiCIAiCkyMKnyAIgiAIgpMT7grf+/fv6XZAAG3Zto127t5Nd+/eZbevze69e6lgkWJUp35Duv/gge4atnyJOEIK0oH0IF1Iny1Qb3UbNKLUGdz4mjVnLs1fuIif7dSlK718+VL3KQiCIDgKZCdkKGQpZKot3r17R7/+NobSurmzHG7WshX5+B6lcpWq8OV37pzuUxBsE64K34WLF6lsxcrk6VWUWrVtT02bt6R8hbyoVLkKRgXonab87T9wkLbv2EmvX79mty8B4rp1+zbdvHWLPoSTAvol4ggpSAfSg3TZKm/Uy/CRv9LBw4cpcuTIlDx5MnJxcaFnz57xs3fv3SeD7lcQBOfhhaaM1GvUxDjRM78weRc+D8hOyFDIUshUW6zbsJEmTp5CHz58oMSJElG8uHE1JfAtXfP35ysw8K3uUxBsE24KHxpxz9596OKlSxQ3ThyqV6c2NWnUiIoVLUIxY8Y0KkAPNcWv+4+9qG//AfT06VN2E74+jx49oqPHj/P3cX/8Tkf276Pvmjbh34Ig/DeIFSsWpUyRItgVI0YM/a7wJdijr8RUqVyJfA4doEn/G6+NobHYTRBCQrgpfFeuXmNTc9SoUWju7Jn0l6Y0/PbrCFq8YD5tXr+WXF1d2Z//9Rv04OFDtijB6ocl3zdv3vA9LP1eu+ZPGzdv0WY5G+jEyZNs3lbAH/xjRmowGOj6jRvs9+ChQ8H8AYR14uQpPZxT2u8P+p2PIIw7d+7wDBb+YHlUaQEIA2l89Ogx+8W9e/fvG+NyJA5TkG6kX4UHVJ4suSFutRyOOFEeltIJVNhwRzgIz5pCrfJlGi/CDwwMDLqvzSxxD2HaAmWBskMdoC7spR/+LbmZlqkKE/mExVj5FQQh/OnepTMd2rcn2FWsSBGWE+jTpjLFVJ7BGoVP1b9hybIkm5VsUv6UDDCVZ7ivZMDlK1eMcgXgGcgF3IMfPGuKI/Ljc+STafzYsmRurVNhK9mJ8kJ+TPOgUGVhmha4vdJXYiJpfzCQwE+QjdAySAPSYp5n0/BNZTnSZM1N1S/yq8YbS/kUvg3CfQ/fu3fvaffuPRaXDydNmUq16tXne1C0KlSpxku+u/bs4QaPpd+ipUpT2w7fU4dOnalKjVpUuXpN3lsG4A/+GzRqQtVq1SGv4iXZb92Gjal5qzbGBozG2alLN+35mno4Nen7H37gewrsqfiuVWvKX7gILz/DX/3GTXg5+szZs+zngZamqloaylepQgsW/U0eBQpSkRKltPt+DsVhztZt3pz+MhUr0XVN8QXLVqxkt8rVa2hlcpfd/vrfBHbr1rMXvX37ljtevoKFuTxUOrPkzE0bNm5i/2DuvPn8zG9//Ek/dO1GufLlp0FDh+l3PwIhMHXGTM5LAS2v+w8coB07d3G+AwLusB9YYBEWwrQEhMHPAwZSXs9CXHaoA9QFyhPlcur0GSpUrAQVKOxFPkeP8jP7Dx7kPMDf6TNB5btm7ToOo75Wnw8fPaKp02cYw0Q+S5evyJZgQRC+HpEiRaKly5ezTKikySlM7qBINGjclN1wD0pKu46duM9XqlaD96op2VyhajW6cfMmh/Xy1Sv2V1iTDwv/Xkwly5XnPg/ZzrJJkwGQXUoGlChTjvoNHMQyB7KlRZu2LBdwD37wLLYHqWcdkR+hkU+PHj/mPJSvUtUYP7YsZcvtwfEifqDGqB69etPwkaMoe568nN9XWr7NgfzOU8BTL8MV9PDhQx7//l21mu9D2cI9PP/ixaeTb5VnpAFpUXlGGpFWTNwHDB5sTA+MLFBIO3fvwW4DBw/hMJ48eUKNmzVntxX//svPos7UeIOwTcdF4dsh3BQ+N7eM5Jk/P38fO/5/lDNvfu5sly5fZjeQLWtWKlGsGH/H/rBaNWvwsi+WDUCpkiVozKhfaeqkCfTr8F/YKnjWz48OHDjI9xXHNQUok5sbTRw/jpeOwWEfH7p0KSiu5f/8w50FS8kD+/3M/ipVqMj3TMmRPTuNGDaU4/vf2D8ps3smVjzWrFuv+wgCihAUHHSgVClT8h43R+MwJa9HHt4bd1+bMV677s+d7YA2AwYBdwLI/8Z17pCnz5xht3JlS9PzFy+ou9ZZka48uXNzOqtXrcoCsE+//nT+/AX2q4AAWK0JKpQd0mYOZr+jfhvD3/v+1JsqV6qo+U3KdYE6Aagj1AvqyxJ/L1nKG4+jRo1KXX7oxGWYKGFCVhx/H/sXuWdyo5w5crDyr9J37Nhxzi8E36VLl9jN99gx/sSy/3vN7+y587hsf9bSBcsw8lqkcGH2IwhC+LN2/Xr66ef+xgvKFGjWtAnLBX//6zRj1mxNxqyl4ydOULkyZajFd83YD0CfRx9G3x09cgTLdsiAX0f/xgqHApN+KHI3b95iWRUlchQ+VDZi1GhKmzYNLft7Ea35ZwV/x2QbChkuyBi4QWbPnz2LZQ/kFybLjsoPyPmQyqc4sWPTgEFD2H+6dGk5b21bt+L7SLP5gbj1GzbSlOnTeQ9e/HhxddePQOns1fdntoxC1rZv05qiR49O1apUoTSpU7MffOJe2TKlWdaao8oLNG7YkFfVMC4ijUjru7dvqUL58nz/4sWLbL3DOKIUt3PnzgdZ9u7d08aj6xQvXjwur9Vr1nIY+fPlpXmzZtLsGdOoT+9eFDfup/kQIjbhpvDFjhWLxv35O1WqWIF/o0Ojo5YsW54VP/wuXaoktWrZnO+7Jk1KgzRFCcu+ULySJE5MvwwZrDXcBlS1cmXeP1aiWFH2qyx8Cihd/fv+RDWrV6PWLVsGU2xgudu0eQt/b1i/HrVv24b91a1Ti90U2KsCwQBhhfhq16qpKY91+N7t27f505TJE8bT+dMnacfWzZQxQ3qH4jAnpZbufHnzsmCBgMGs8Yym3CHv4MgRH3qqzWKxD1J1vpMnT3Hnw+8/x4zmdI78ZZgmsLJz592xaxc/q0AnPX3Ml3wP7mel2RQI619G/MpCpkO7tixkMHtH+aMuUCcAdYR6QX2Zg/KFoguaNWlMP/3Yk8twgPY8gEL5JjCQhSSAQou6h0IO4QelEoIK1lgsPyB+DBoUSRss3gctm8SKHYsK5M/HecUlCMKXAVtTFi1ebLww4QaQ7/369mE5NHP2HBoweAhP8vr1+emTPX6Qhei3TRs3YhkLcBjsnqZYmNKrZw+6ct6PZVWZ0qXYogbZ1KlDB/IqXEibIHtQ4wYNWF5CDmJSqEjmmowNBJA9kF8G7c9R+QHFJaTy6crVq3RAUzjxe8TQoZy3AT/31Sb55TnNSLspyZIlo4N7d9Nxn8M0c9pUHm8Uj588oeG//srKFsaegf36skKHskV5Firoyf7wCTncsX07VgbNUeVVskQJbewcxMYPjA3YVoW0Yjk8b548lFST69hKdV1T6jC23L17j5XJ81r+rmljwo0bN+mxNhahvNOlTWtcEgZQbsuXLUutWjQ3KqLCt0O4LumiYc2YMpn3fXTt/AMf3gBQ/P7RzdS2OH/hIpvssRyA5d59+w/odxwHHdVfa9gga5Ys3EGtAUWyd99+HB8U0+UrV+p3PsVUqIUkDlOiRolClSsEKcQnT5+my5evcEdsrylfUAaPaTNm7GFEh8yeLRul1jqYErjJk7ly+YK42owxrdYxgbmZ3cUlGkXVLXXmDPllOAuuOrVqsSC2NGu0x/Pnz+nKlav83TTv6dOnY0Fz7959TWEOYGURv69oeUScSGcNbSCAEMPM0t/fn4UPlHeEk1wTkBDuEGADBw9lC/FIbfb6TItPEIQvQzdNbkMBU1eL5t/pd4gnmbgPoIRhkpc5szv/tkaq1KlYDjx58pRlgynRNDml5AdkKvaBAxgI1Anh0b//wW6gcKFCPKHFxBVbg4qVLkNr1q1jBSWk8iOk8glvOsBqS/z48SlVqpQcBuSnu3tQ/pF25EEBWe9iRb5OnjqN9uzdx3mBQhcay5lpecEAocan1KlSUcKEiTitSHNKLa2eBfKzUovxBoaGxIkTs3VSWTNPaWMRKOpVmMOpWqUyK3d4FQzGxao1a/NeTNS58G0R7nv4AMz4sPzs3uHNsy+ABmMLmLjRiXfu2s0zDQ9tZhJF6zSfg633xkHZw76Fv5csoWzZsmodvWCoTqPZisMS+fPlY8UNnWzX7t0s8AprQgZLDCdOnOSZGTpnGU0gYVatlLLXb94YZ17v371jP0AtwzpCrpw5+HOrt7exk4eUSJEjUxRNUALTvGMpGodWomj3IUizaIIwR7bsvKSPZSEoscWLFeW6xcxy9569vLRdRBMyyTRlFuXQs3s3XsbBkjUOkEzSBGOXbj2MeRUEIXyJHTs2L7GqCzJIgSXZq9eClAzgvX0Hby2xhZILsFDFjGldvkLtg9wAnTq05yVb0wuT1IQJE9CShQtowl9jeVzB5Lhj5660aPGSEMuPkMqnqFGC5DCWSbGvWoEJMEDaHZv2a3FnzsxLz0c15Wvvvv26a8gwLS/T/L0JfGNMH9JsamTYtn07WzLdMmZkCyrGoW07dtCJU6d4laxY0aAVtYwZMtDmDet4qxIsfFi6r9+46SfL1kLEJ9wUPggD0z0aAPsy9AkcpdD36SkCtUb5+vXHk1lQfmDirla1Ck2Z+D+e+SjTdkjAO4uwjwH4Hj1mVSBB4cEMrmCBArz/DvFh/4QjOBqHJSA8oHhBwCzUBFXmTJm4AxbQFEHMyMZPnBSs80EZhTCD1QwzW4BlX/Ud+/ocpXPHjrwnBOXcpXtP40bqkGCadwgCVecoS8wAU6ZMQcmTJ+eZcD5tBouZJg6mYFaZNXMWLm/MLJFP7KHBFgA1y8cnBC6Wz9f++w/vm4GFE+kVBOHrsm//fj5ogQk9lAXs98NePltgKRZyIV2aNMYtI5bAkqe7JgsBDnZUqVSJsNypLux9BpiUY7/xxrWrWSEBPr6+/BkS+RFS+ZQ6dSpKkCAB+79wMWiPHxSty/pqB9Juumxri9pa+rF/GtZI7OM7pr8OKySYlpffufPGU7TYE4lDGEgr0gxyauMNfu8/eIhXzWDxS58unaZ4uvNewy1bt/I4gn34CqzOYdvPrm1beZsV0nrqVOiMBMLXI9wUvjNnzlIuj3x80qdN+w580rNUufJsucPeBHRaABM5OiL2czRu3pxf+ImZA/wA36NHacU///LBD7yAMqRgJlmrRnX+DoGEk2RIS6+f+rKbAoIDHdnv/HlarnV4/FeJ6bNm63dt42gclsCzFcqVY2GBk8pZsmTmvHt4wKIZma1mWELIkD4d+8eev+Ka8odZG97U3qtPX2rYtBkrWFC8sKHXUVyiufBSLjo3ljEQlhIU1lAWxiPazPAnTThhiQR79zBDXbVmLdc1TnIN/WUE+2tYvz7v7QEVypfjMsZeGCi1iZMk5k8MFtgzAiGOvAIsqeA/gvQfNJj++XcVzZ0/n4UrygbL1IIghD94QwC2uJhekM94iwK2hEB5GzpoIO87AzikhVO7pvw5bjxb3rA9Z+To39gNy6VQsmxRq0bQwbE58+bzf/xRB0caNGlKO3ft4kMZjZp9R39oceIk60pNToBEiRKFSn6ERD5lyJCBqlcNMgj07def5X2T71pwuhAH5J6jIE7sn4aBwdHJN6x5WD2BMvpz/wG8JxJxIu6jx45Ri9ZtOU0dO3fhOkJakWaQVlO28+X14PEG4w4OD0JhhHIMSygU2yKFCxmtuQOHDGW5Dgvp4qXLeNUNJNTluvDtEG4KX5w4sXkWgXf5bNqylZav/IfftweT8KxpU3j/B8js7k7NmzXl7zDJYwkTm3ErlCvLMw9YrtBwsZ8OZufQUKNaNV4WAIeOHKF/V6+hokW8gi1/QpGqUa0qdzhsQB7zx5+8h8FRHInDGsgnOiqAMgcBkDZ1GkqeLDm7lS5ZwrivA53wjzGjqZCnJ1sA0QFxiAPK3sTxf1GK5EHPOAqWRUYMG8LxYx/JsBEjgy0JmIOXf2KfDqyYR7WZKIQJNvEOHzqEleZt3tv5EAdmgD90/J7atGqpPxm0xw8CFCDPyIsSqgB5wt5FEDtWbFYm585fQF169KQly5Zz2/nrjzGcZkEQwh9MOPEOPdMLbuPGT2C5U7Z0ad7/BgscDjNAXo/VFDzTVQ70bxzegmwAkJOmcsEaUEqmT5nE1iXIVHVwBKsoMWLGZCvcER9fNgZARuBtBpDhPbp2CZX8CIl8wtIoDlTAuoh4ML4hjTjoMXHcX8bxzVEwkR6gKc0Z0qfnyXfP3j+xkmkNjJvqAAreUvHyxUuOE3EjDUgL0oS0IY1IK9IMYGRQB/CgzMKSCaD4AYxZOPihgCV2yzZv3gOJN0GgDaAO69cNOtQofDtEehMYaLhw+SqlS5VGdwpbsJn0hdboAGZWCRLEZ4XGHAgILE3G1xQPtVcPe9RwchUk1JTHz93Dh/0jiANhWTqgAOXl8eMnfLrLmh972IsjLIFyCuXMVrmGFxD6WGo2jRN1iPoyaMoeZu8QLJ+LymNkre7Dog0IgjNx8uQZypUrZMrFlwByH1YmTOChbGA5ELIByltI5YIaB/Dfmcxlnek9TDjVxFnxJeSHGuO+hozCSg/KwnSsMS2T2Fp5m+67DC2msj2swhTCF8iGeIniknvG9HwgCoS7wicIgiCED9+Kwtfp+w76HUEQvgSWFL4vckpXEARBEARB+HqIwicIgiCEKbFixqTpkyd98u4+QRC+HqLwCYIgCGEK9pXhcIT5u/sEQfh6iMInCIIgCILg5IjCJwiCIAiC4OSIwicIgiAIguDkiMInCIIgCILg5IjCJwiCIAiC4OSIwicIgiAIguDkiMInCIIgCILg5IjCJwiCIAiC4OSIwicIgiAIguDkiMInCIIgCILg5IjCJwiCIAiC4OSIwicIgiAIguDkiMInCIIgCILg5IjCJwiCIAiC4OSIwicIgiAIguDkiMInCIIgCILg5IjCJwiCIAiC4OREehMYaLhw+So9ffhMdxIEQRAEQRC+ZeIlikvuGdNTNBcX/m1U+HJkcWcHQRAE4dtg/35f8vLKp/8SBEEIArLBXOGTJV1BEARBEAQnRxQ+QRAEQRAEJ0cUPkEQBEEQBCdHFD5BEARBEAQnRxQ+QRAEQRAEJ0cUPkEQBEEQBCdHFD5BEARBEAQnRxQ+QRAEQRAEJ0cUPkEQBEEQBCcn3BU+g8FA9+7fJ+/tO8nP7xy9fftOv2Ob12/ekI/vMb5evHihuwYHYQcE3KFt23fQrVu36f379/qd4Dx8+Ih27tpDly5fcTh+wT47du6mHB6e/OlsoC0dOHiIzpz1010EQbCEI/IV7pD/e/bupydPnuqutnFUvjsyVoQmfsE+L1++pNbtOvKF785GwJ27tNV7u/PkDf9a7ZTfea1vhT0+vkcNnl4lDPGTpDReHgW8DCdOntJ9fMqHDx8M02fOMSRJkdb4DL7DDfcUN2/eMpSvXD1Y2PgNd4XWsQ2t2n4fzI+9+AXH2bBxM5cpPr9ltAHLsGnLNv5UnD5z1pDWLauhSo26hufPn+uuEY9Xr14ZNm/dZtAGRN1F+C+xb5+P/i3sefDgoeG3P/4yJEud0ZA8jZvh6LHj+p0gHJWvaJ+pM2QJ5m/Q0OGGwMC3uo9PcUS+OzpWhCZ+wTEgGyEjI7qctIc1Odr9xz7cXr7FMQ6yAboddDxFuCp8PXr1Mfw8YLDhmr+/4e3bt1ygGESbNG9tePX6te4rOPv2HzAkTZnO8EPXngZttsbX8JGjDYmTpzV4b9/JftBRW7Ruz2HtP3DQ8O7dOxYyefJ7GRo2ac6Vhw6P5xK6pjYsW/EP+7l67ZqhUrXahkLFShvu3rvHYQmhx1kUPrTLVOkzBxvQ0F7QtqD4RWROnjrNaf/W60AIHeGl8C36eynLTrcsuQyFipb6ROFzVL5eunzFkCWHh6FarXrsBtk9Z94CluczZ89jP+Y4It+BI2NFaOIXHMdZFD5rcvR2wB3Dlm3e3La+NSwpfOG6pDty+FAa+csQSpsmDUWNGpXKlSlNFcqVpeMnTtLjx090Xx/R0kPzFy6m9OnS0aABfSlWrFh8tWvbijJmSE8LFi0mrfPT6TNnaNOWbdS/709UuFBBihIlCuXKmYM6fd+OvHfspBMnT/NSwOJlK6hNq+ZUt3ZN9pMubVr6sUcXOn/+Au3avVePNThYNsASNJYJsAygCTlejn769JnuIzhYzsB9LBXgGQW+IxyEZxqmJXD/nJamVWvWWVz2VssR69ZvJP/r17mczEHYMD/jMo9HpdFSPkzTqeLZuGkLacJR9/ER0/JAmI6idRYuH/P4sbSi4laofJjmwdrzpiAsPGcaHsJAPkzLU9UFwlS8f/ee29WDhw85DHXPzS0jpUqZkr8rVBmhrlBnpmlHvaBc1POq3FFmpmkwR6VJ5Rl5wQUQJu4hHNQL2rVp/SPdeB79CWlXzymstU9BsEXCRAlpw9p/6Nzpo9SoQT3d9SOOytfVWj/RJvf028hfKGmSJOTiEpUa1q9LJYsXo0WLl1jsz47Id0fHitDED9CH0XcQD2QI+p55f1dYk0/m8sA0TEvgWYSBC/7MsdeXIWOQVlMZpghLuaXKA+FpCrTuahvEd+XqNR7DTONXaTZNr0oPLlVW1p43xVL+VVjmchH3TccKa3I0bpzYlDtXTq3dROPfClVGuMzbEOpGha3K3dqY+sUJTwufOfZmA48ePTaUKlfZ0LbDD8FM8qDDD115pnn/wQPDkmUreJkBS8amYAaKmeisOfN5ZohZnNbh9btBQGPP4eFp+KnvAN0lOOp+nfpNDBkz5zQuAWCpwDQszBSxLIB76TJl4/uIe6v3dr6PmUJ69+wGTfDwMoc1S5jWsAx1GzTl+4gPM+YadRoYZxSY2eJ5uKv0YParyk9rqIbJ02YEW9ZA+pEP0zSaXlimwT2ANCHdnbr04DJVfhDf+g2b2A/w97/OM3fTcNRyvTXrkumSS4q0mfhCuDNmzeX7q9as5TpavHQ5/0aaOnbuzuFi6cbe80DreFwepulCWwEqb2gXClW/Y8dNMNy5e5etBqbP4sI95U+FBVRdmPpFWv3OBfUf1b5hTYClw9RfrXqNrM6AVVy/jx1nzAvi1QTEJ2WOa+SoMRwW2on5PZVee+1TcA7Cc0lXgf5g3o8cka9Y1fmuZTtDxaq1DM+ePdN9BIEwIR9V3zHFEfnuyFiB/h2a+AHuw7pZs27DYP0LshoyG9iTT0oedOneyzBg8DB+3trYh3JEOLjQX+EXKw/AXl9GOjZs2hJs2dq0vsJKbiGe/02cEux+5uweHK+1fAHT5XmUKT7LVKjKbQVlCTlWunwV3kIADh/xZWsb4gK2nge28q/yZirHAeoX7fTylas25ah52w/LMTW8+eIWPnMOHfahg4cO84wwduzYuutHlGYcI0YMihQpku4ahHsmN3ry9Cm9ef2GN/DCYhgtWnCt2zVpUkqQID49fPSQNXVo7TFixtDvBhEndixKnSqV5sf6TAs8efqEvLeso8f3btL1y35UumQJ6tn7Z7pw8RLfX712Hc2cPY9WLl1EVy+c0fyco/Jly9Cvo383avyaUKIp02bS4IH96KTvQSpapDC7m7Lin1V02MeHdm/fTJfOnaQHAf60cO5MihkzJofTo1cfyuuRh25cOcf3V69cShs3b+ULaA2I+g0YQt27/ED+l/w4vQd2e2uz2cScxvETJtOg/n05XFz4PnrMn7R1mzc/D169eqXNYFzohO8Bfv7Qvp1aWSahVdrzAOU45JeRpHUe2rNjC/u5de0CVa1Sie9bQ+u4/NyfY0bRzavnuRy7delEmmJD1/z9qUqlitS8WWMaPHQ4aR2PNmzaRP+sWkOjtdl4ypQp7D6PdGmdj7bv3EVLFs2je7eucR5/HzVCT4FtEidKRFs2rqbePbtxm1uxdCH5nTpK7dq01H18RNVF5MiRyffQXi4DfGIW17f/oGAz1AsXLrKlQ6WnR7fOdODgYWPbscZf4ydRrlw5yOfgHhoyoJ82u4xDixfM5nAQHz6bNGpA8xb+ze179vQpNGXCOH4Wn0j76BG/8G9H2qcghBZH5Ovr16/Zah49ejTuN6a4ZcygyZ3XwfqNwhH57shY8fTJ01DFr8CzNapV5X736O4NWjRvFu3as4dG//4n37cnnxR/L1lKgW8Caf+ubTRz6kQtPdH1O0EgnhGjxlCzJo0p4Ppl7q8BNy5T8WJF+b69vowVs1Ztv6dKFcrR+TPHWFZc8jtBObJnD1O5hfwOG/Er9erRVUvnJS6TpX/Po/jx4/F9S6CNDBzyC2lKGVuLL2rpwvhy8+ZNmjN3PsWLF5d+GTKQLl2+TJOnTud29cvIUVRMGyvbtm5h93lgK//2QPuxJUfNCasx9WvxxRS+69dvUK8+/VjpqVenlu5qGXRGc6JEjsKNQZlF0fGTJEnC3xWRo0Rh879qoFCaYMY3BcIBfm7dDrB58iaTJjSwRAHixo1LPbt3oUePH7OZG8JmydLlVKZUSSpRPKhTouHUr1uLzcEvtcpW9O/bm2rVqEZp0qTmcMyJrQlIbWZA2myUFVCkL4420OPT9+gxOn3Gj9q3bcXLFSBf3jzkkSc3lyc6w7IV/1Jm90z0fYe23HkAnkdYq1avY7+tWzbnPONq1rQRL3msWbchmMKLzgKBClJpypabm5sWx00WCDe0zoVlhIb16lLOHEGdCOkp5FmAv1tjxcp/WfhWr1rFWO7Vq1bme1CGIdR79eimpTseaTN1GjRkBHXu2J5KlSzOfuw9j3Rt3rKNGtWvRxXLl+XlGvhB/h0BftE+MPlA+FAAkydztTgZOXP2LB07fpL69O7J5Qfw2aFdm0+UOZSdV6GCxvSgnCAAsAxmi6pVKtKP3bty+0+ePBm3KSxZIRyAz8oVy3M/wGCXKFFC7gcAn0g7hG9I2qcghBb78jWonaVIkdwovxQYDKEQ3r1reZnLEfkObI0V6CMgNPED9BnIW/Q75KuCJmMqVahA+/Yf5PDtySdFQU9PXnbOli0r92vIPVOQXpTlI01JVmNSDE0pxOVIX16zdoPmFp16aRNXJcORX6Q7LOXWps1bKWGChDyGIA3Icya3jMZx0hI4uY1l+PZtW1MyV1d2Q5lBmb2qK8VYMu3dszv9b9JUat+xM53XFE9sB0McjjxvK//2QB6syVFzMN6G1Zj6tfgiCh9mGZ27/8jfJ/z1h1ExsQYq2Zz3H95zZagCRIe7r3doxQdt1oKZCxoEQGNVnV6BCoGflBaEgC0SJkyoKWxxgl4PoFX8C02YwSKVp4AXv5oEV5cevThspMNRKlUoT0W9NCW4YTMqWKQkLV6ynAURwCfy0KxFW2McnpqfQ4ePcHm80YQBZoeJEydm4WCKupcmdWpNAfqowMTW8pxUK8Nr/tcdPmqOsn767BllyeKuuzjGk2dPefblVaKMMf0NGjfn/RGYsQFY8mDRO3b8BLm6JqEfOnbgTgjsPa/SBYEe3iAukFZT3E3Bb0eUudACgdy33yDy9CpBTZq3piXLV+p3rBOW7VMQrGFfvsZkt9sWJtdv377lAd3VNUiem+OIfAe2xgqljIYmfktAUUuhKWzIMxQxR+SbIyCtPbt1pnUbNlLGLDmpU5ceRkXMkb588/YtnqTGjx+ktJgSlnIL8UBeJ4ifQHexD+J4/foN/fTzAGPac+YtSP+uXsN7p5WCBGteqRLFaMu27TR86CCjcurI87byH5aE5Zj6tQh3hQ/KXhdN2bt46TLNmTmVLV3WgNKCTooOA21agUr18ztP8ePFo+iaJo9GB2UIS4ymBNy5wzOrRAkTcSdCBzWdaQGkB+b2RJoCpxSL0IIlyW2b1hmvA3t20C7vTZRMmyE4CpTfJYvm0taNayl//rzUqWsPqlGnAW8KBRBKUyePN8axfcsGOnPCh77XZmjfAvnzedC6VSuM6d+zcysdO7KPcuXMyfdRtydOnmIBefLUGW4npth73plBuZSrVI1Oa7P03j92583mpoLGHmHRPgXBEo7IV8guWM3hhlUMU85fvEgxY8awaE13RL47MlbEix8vVPGHhLCST9WrVaFzp47Rb7+OoP0HDlKhoqV48q/41vvyqOHDgqX/5NHD9PvokcYx+N69+6zkov62ee/gww6m2HtecIxwVfjQafsPGkpHfI/S4gVz+KSVLSBEChbIz3vabt66pbtqjUGbUWEmlS+vBwuSPLlzsbXN/IW/R3yOcgPI65Gb3N0zsbkZZmhTgXDGz4/u3LlrXDZ0lOs3brBwyZLZnfdgQJDcf/CQT/HABKwuCCGYeUMC/BfQlD3sH1i1Yglbu3yOHuXy+KDNVrH/wzQOXBBUKh33cMrJbGah7vmdO8f7aRQQfjjpmy5tGoctnEhHvLhx6fARH+6QjpIqRUpedoipCX7TtMNKq8ztvkeP09jxE2jMqBFUuJAn79dAGoG951W60FaspQvuIZltWwNxAZwQNMXv3HlejsFSTVize88+Hqiwx6VBvTpUs3pVqlW9mn7XOmHdPgXBHEfkKxTC0qVK8KlbLNMpMC7s23eQsmfLRqlTBT8FDxyR746MFWjroYnfGngOE1IsYaJfOSLfQgKWFlu1aEaH9u2iypUq0N9Ll9H79x/s9mWk49mzZ/To4UM9pI+EpdxCPJevXKHbt2/rLvZRMhrKumnacallUyh3v48dzxa6CeP+4KXyNevW8z1HnreVf4WpNTG0hOWY+rUIN4UPldin3yA+Ho89VtiUjyPh6sLRaoDZDJar8AmaNmnIZtHhI3/jfWq4+g8cqilcN3ndHB0e+zZq16xOk6fN4MML6HT4HDHqN3bHZk1UTLMmjTguHN+HHwiMXj/1p0IFPaloES+OzxoYbNesXR/sucyaslegQD4WZNhDgTT/NX6iUUGBVe7g4SNs7neUq9euGd8ijwu/o0ULmr1CQfYsUIB+HjCE9w7iPsr11Okz7A/paNywHguhPj9j4+sVTi9mSs+ePed7KPfpM2ZzmSKd2Bx88+YtLf21HZ4dYRM29q8sWLSElixdwXEgDbPmzNN9WKZ6tcp0//4DPlih9l5i/wLKDZ9Iz4DBw6iwVh/fNW1EQwf15z0n/5s4mTunveeRLux7w4bmqTNmcTkibfjvGBiEokSNwkJ6qzZjfBMYyMsXEyZNYX+mKIvC2bPn+HlLyxyoi+LFitCkKdPp5KnTHP7efftZWS1ZvChlzZJZ9xl2QHggXahDlAeEtHmZQyCiHRzTBjnTtIdV+xQESzgqX7G3FvtQBw8bwTIffe8PbXDHQSu80gUTV7TLWvUa0UhNNgFH5DtwZKxwJH5rYDlx9twFLFfVc9hPpg4d2pNPjoI+DpmlnsGyIeLDK6Gg+NrryzVrVGW3bj/+xHIZ5YU0Y194WMot5BcT0GEjRxvLcrmmnGGvuTXU2IH48KodjF8Yx/CKFaQHQLlbvGQZDezXh18BhHrtN2Awyz1HnreVf7SBqNo4gAMnUPpRXtt37OJXCpliSY6aTmSAGm/DYkz9aoTXa1nU8XzTo8umF447gwmTpvILNs+YvODW/M3o+I5j1x9Mjt8/sfCWd7zSQusIug/LR6hxvPuav7/u41NUuouWLGfwKl7G+Jz5G+S1xvDJ61BwtW7XkV8qjaPZ+G3tlSUKvLbF9Hkc3Z44eZoxr0ir+RvncdQbLx0F8IfXAJge/3bLkotfGIx75m+ih7+/lywzhm8pneoou+lRe5Sr6etPEAdecorwrOURcZgfl8eF/GiC0qAJUH7VzNmzfkb/mlAz5s/W8+oIP9oBXs1ger9Rs5b8WhvcU6+8wYVwhw0fxa86Ue0PoM4rVqlp9Ie3q6t2YHqc3/T1AOqqXb+xQZt98n1L5QbstQVLcQHz9KMN9u0/ONhLohEP2pzyA//Iu732KTgHX+u1LMBR+Wr+WhC0SbRNtFGgXno7dfos/g0cke/AkbHCXvyWQJ7x2hm86BkyWT2L/CLfwJ58siYPzIFfvGLGNIzipSvwq7CAI30Z5QCZrO4hzdu8d/C9sJJblvKLNEDm2Mqj+diBC+nDy73RVvBqrD79BhnrDPnOV7AoP4OytvW8wlb+1Stv1L1ylarxOACZC9kLkHZLctS87SONYTWmhjeWXssSCT8uXL5KOUK4IT+s6NK9F88UFs6byXs+FNDkHz0OMpviZJA1E7kmGPjFmjCrWzsejpnTs+cvKJqLCyVMmMCmFg7tHvumihX14iVWhI8ZhbXnVDq1umaTe2j2hJiGgZmG+QEMoPIZJUpkXtY2X5ZDGmFmxokv87Q6WpaOgLJ88ybQbjmaotKG5Qlb9WQNR57HzA0blM3rQD0LLJWbKZix4QWb9srHkTYXVmh91LhPylaZK6udedsJi/YpRFz27/clL698+q+vgyPy1bQPm8u4Ldu8qX3HLrR+1Qo+yWqKI33NEflmK35LwJo2+vextGHNSrYoIny8TcDSc58r3xQqr9bK0V5fVrICh1Ysybqwklsqv3jrhL1yNEW1k8iRI4VqHLL3vK38q2ftyUBrctScsBxTwwvIhniJ4pJ7xvTcpsBXVfhQCQ2atKAW3zXhPUoRAXOFTxAEIaISERS+zwXKFfbyzpo+iZfNIgKmCh9ewyEI3xqWFL4v9h4+S0ADx0sc8RJJQRAE4b9HsaJFqP/PvSOMsicIzspXX9KNaChzdTSXaOG+XCcIgvA5OIOFLyKC1Se8+SCiLtcJgj0inIUvIgKrI07IirInCILw3wT7vEL7ehVBiKiIwicIgiAIguDkiMInCIIgCILg5IjCJwiCIAiC4OSIwicIgiAIguDkiMInCIIgCILg5IjCJwiCIAiC4OSIwicIgiAIguDkiMInCIIgCILg5IjCJwiCIIQJr1+/pi3bvOn27QDdRRCEiIIofIIgCEKYcPHSZWrVtiMdP3FSdxEEIaIgCp8gCIJgBP9P/N79+/T6zRv+/eTJU76AwWDge97bd9LGTVsoIOAOuynevXvHzz9+/IQC7tw1Pqd4+PARP7tn735j+IIgfBlE4RMEQRCM3Lv/gEqXr0ITJ0+llm06ULpM2ahP/4Gs6HmVKEvu2fJQnQZNqFGzlpQ1Vz4a9dsf9OLFC6pZtyGVKleZXr16Rd937kZZc+bl58Dbt+9o8LARlDFLTmrdviPVrt+IMrjnoG3bd/B9QRDCH1H4BEEQhE/4a/wkypUrB/kc3ENDBvSjuHHi0OIFs+nerWv0+N5N/mzSqAHNW/g3W/RmT59CUyaM42fx6XfqKI0e8Qv/Xr12Hc2cPY9WLl1EVy+coeuXz1H5smXo19G/09Onz9iPIAjhiyh8giAIwidUrVKRfuzeldwyZqDkyZNRjBgxKH26dOTiEpXv47NyxfKs7MH6lyhRQkqQID7fw2fyZK4UP348XrpdsnQ5lSlVkkoUL8r3EVb9urV42fflq1fsJghC+CIKnyAIguAQFy5eor79BpGnVwlq0rw1LVm+Ur9jnffv3tGLl69ow6ZNlKeAF+Xw8OSrS49evN/vg3YJghD+iMInCIIg2OXEyVNUrlI1On32LPX+sTs1rF+X4sSJrd+1T5VKFWnbpnXG68CeHbTLexMlS+aq+xAEITwRhU8QBEGwy+49+ygw8C39MmQgNahXh2pWr0q1qlfT71onevTolDhRIrr/4CHF1RRELPWqK2mSJBQlShTdpyAI4YkofIIgCIJdYsWKxS9WvnzlKr+Kxe/ceZo1Z55+Nwjs3YsaNSodO3GS9+fhtS0A+/X2HzhIf42faDykgVe0HDx8RF7PIghfCFH4BEEQBLvUrV2TypYuRa3bdaSErqmpcbOW5ObmFsxClytnDrb84VUteC1L524/UmBgIFWpXJFGDh9Cf/1vIqV1y0oJkqbiV7RMmz5Lf1IQhPAm0pvAQMOFy1cpRxZ33UkQBEH4Fti/35e8vPLpv8IfWPYePXrM3xMmTECRIkXi7+Yoq12M6NH5U4H38T16/Ig+fDDw8m7s2I7vARQEwXEgG+IlikvuGdNTNBcXdhMLnyAIguAQUPDw+hVc1pQ9AEXPXNkDeJWLa9KkvH9PlD1B+LKIwicIgiAIguDkiMInCIIgCILg5IjCJwiCIAiC4OSIwicIgiAIguDkiMInCIIgCILg5IjCJwiCIAiC4OSIwicIgiAIguDkiMInCIIgCILg5Bj/08bTh0H/31AQBEEQBEH4tjH/Txvyr9UEQRC+Ub70v1YTBOHbQP61miAIgiAIwn8QUfgEQRAEQRCcHFH4BEEQBEEQnBxR+ARBEARBEJwcUfgEQRAEQRCcHFH4BEEQBEEQnBxR+ARBEARBEJwcUfgEQRAEQRCcHFH4BEEQBEEQnJwIq/C9fvOGfHyP8fXixQvdNTgGg4ECAu7Qtu076Nat2/T+/Xv9TnAePnxEO3ftoUuXr9Dbt+90V+Fz2bFzN+Xw8ORPIWxAGz5w8BCdOeunu1gGbf/U6TN08PAR/i4IzsbLly+pdbuOfOH718Zc3oVlH3z27Blt2eZNDx4+1F3CFpHVAvhiCh8UrW49f6IESVPRxk1bdNdPQceZMWsupcmQmcpWrMpXevfs7GbaqaDgVaxak7Lmykd1GzSl7HkKUOXqtdld8fTpMxYWGbPkpJp1G1L+QsWoYJESdPLUad2H8Dm8fv2abt68xZ+h4dz5C7Rn73569y5kSjjig3C8fTtAdwk9jx49ps1bvfkzIoAyadi0BfXuO8A40bGUxvsPHlCL1u2pTftOdOfuPd01YnLE5yhfwrcB2l3VmvUoUbI0tGHjZt31I9937sb3rU3EwwrIe7RtXJ+rUIUF5vIuLPvgoiXLqH6j72j+gr91l9DLR0t8rqz+HDkp/T/i8MUUvjXr1tO8BYv0X9aBdaPfwMHUsH49unXtAl/du/xAffsPMs5OoDz2GziEO8TGtf/QgwB/2r19M929e5969u7LjRoC4n8TJ9O/q9fSjKkT2c9xn/2UPHlyatexC927f5/DEr4eEyZNpV9/+4PevHmjuzjGxUuXqVXbjnT8xEndJfQc8fXlScE1f3/d5euSJbM7LVk4l8aMGk6xY8dmN0tpTJI4Mc2dNY1mTptEyVyT6q4RD1hmfhk5imbMnqO7CN8KHz58oKEjRomstEJY9sEmDevTssXz6btmjXWX0MvH8CC0clL6f8Tiiyh8l69cpf6DhlK1qpUpZsyYuuunQEmbv3AxpU+XjgYN6EuxYsXiq13bVpQxQ3pasGgxz3ZOnzlDm7Zso/59f6LChQpSlChRKFfOHNTp+3bkvWMnnTh5mpd6Fy9bQW1aNae6tWuyn3Rp09KPPbrQeU1R3LV7rx5rcLCkBgGHJWUolkePHSfv7TvZWmgJLBfjPmZieEaB7wgH4ZmGaQnch/K6as068vM798myM37Dfd36jeR//brF2S7CDrhzly/zeFQaLeXDNJ0qHlhg7977dMZqWh4I0xEQPsoGYaJOTNP+9t1bCgx8w7NjxKfyDT9IE+Kx9BzaANL7+PETzu+TJ0/1O0FYqxNLvH/3nsPDUgrCgtUCcSEMZcHAJ36rNCA+hI36uHL1GqdF4Wh52qpzN7eMlCplSv2X5TSClClSkLubG39XIFykCWlDXZmGC0zzgrRiy4SldmEKwjRtv8i/KnN7dYXv77T0v3r5itOuykaB9KAs7aVB+PKkSZOabt++TdOmzwpWp9aw1e/QDrGlBu0S91UbBgjbVn9TIExL8g1ho3+ZhqlQYZvLCPhVbdE8fpUPS/3HHPM+aJp2fEde9+0/YAzHtM+ZLlO7RIumjWE5jZM8YE0+Any3NSbgfkhltS2ZZE0GId7P6f+qrC21GSEceBMYaDjld16rl/Dh+fPnhlr1GhkaNmlu2H/goCF5GjfDho2b9bvBefTosaFUucqGth1+MGizS901iA4/dDUUKlrKcP/BA8OSZSsMyVJnNPj4HtXvBqE1cA5/1pz5HFfi5GkNq9es0+8GcTvgjiGHh6fhp74DdJfgqPt16jcxZMyc0xA/SUq+kqQIHlZg4FvDoKHD+V66TNn4PuLe6r2d7yOP6d2zGzQl1eBRwIv9Wcq3JogMdRs05fuIL6FrakONOg0MWofi+ydOnuLn4a7S06J1ey5XoHVCw+RpMzh+3MOF9CMfpmk0vX774y++B5AmpLtTlx5cpsoP4lu/YRP7Af7+1w2FipUOFo6nVwn+tFafvkePGfOk0q7NWg2bt24LFg4upAH1pwm2T+LBNXLUGM4zysb8HtoGsFcnpty5e9eQJ39QvZheY8dN4Hiq1Khr6NK9l2HA4GHsjt93794zNGrW8pNnOnTqanj16hWH60h52qpz1f6QJ0fSiEu1hZs3bxnKV64ezC/C37lrD98HeDZLDg9OM+JV/tK6ZTUcP3FS9xUclabfx47jtgf/SJ+tukL/RV2b31NtE/enz5zDdZQibSa+kJ4Zs+bqsQqOsG+fj/4t7FBtC23kj7HjjX1Tgbo3bXf2+t027x3B2hou3IeMBtb62507d/lTxXXmzFlup7+O/p2fU2zZ5s1x4tMcY150GaFAP1BtUfmpVqueoVK12sHSibFL5RN9G25K3qnnVPoAwnXLksvwXct2wcJBuCN+/S2YnM5XsCjLVWAati35COyNCaGR1dZk0tVr16zKoM/p/yGR1ULogGyAbgcdTxGuCh8q/a/xEw15PYsYrvn7GxUya40ODQENonO3H3WXj2CwyZorHw9qaGyp0mc2nDx1Wr8bBO7BD/yqDoTOY8qzZ88MFavWsqhUApWGshWrcmMHT58+NdRv1MyQKWtuw/kLF9lt+cp/OQ0QZgADPjo5nkPnUfEXK1Xe8M+qNdwJEY45UE4hxNCJAdKENOIT4SC8Vm2/NyqAGLyhSCB+ACUUnXP4yNHsH+B5KILwkyBpKhba+I0L36EIK+VDpbNbz59YwQDaLC9IKdCF5Nu3bw2t23XkclFljvQM+WUkP2upPl+9fs1lZiow0cnxHO5ps31DuUrV+MJ3xI37KMcrV6/yd/VMx87duV5v3LhpePDgoeHvxcs4Xnyivh4/fsJ+7dWJKSgLCCyUG8oTggZhIa1KkEMIYWKAgeb27QAO7/KVq5x+gDpCeZpOPhwpT1t1rtof/DqSRjXYqDpCuAcOHeZwtdkzD2IQ9ugbAH0HbWLMn+OMZYI2lTRlOr5nCZWm1BmycN+6eOmysTys1RXiQ7rQXrLkzGto3qodh4P8IF8HDx3hupq3YBHnG25oT3hW9TvBPuGq8GltEP2tdPkqPGFHfQO4myo59vrdfW2SjvaCegYYC6BEKBms4jPvb48fP/6kjZv3Zzzfq08/NhTAYGCOaV5MQVtHm1b9CX7QR6E0oh2r9miqaKm+reSdek6lD6j+NXP2PA4H6YOMwHM/DxjM5QlW/LOK/UEWANOwbclH5NvWmBAaWQ2sySSEZ00GfU7/D4msFkKHJYUvXJd0fY8ep0lTptOQQf0obZo0uqt93DJm0L99JErkKLyEpzUY/p0gQXxKkiQJf1dEjhKFl24vXLzEv7F8nNTMT6RIkdjPrdsBNk9+ZcrkxkvAIG7cuNSzexd69Pgxm8lhel6ydDmVKVWSShQvyn5ixIhB9evWYrP1y1ev2A3079ubatWoxssjCMec2LFjkdZRSOvQbP5G+uLEicOfvkeP0ekzftS+bSte2gb58uYhjzy56fr1G2xiX7biX8rsnom+79CW4sULCh/PI6xVq9ex39Ytm3OecTVr2oiXx9es2xDM9F6pQjlyTRq0DyVVyhTk5uamxXGTTfc3bt5kk3vDenUpZ47s7AfpKeRZgL9bIqoWV4wYMfn0mdaB2c3FJSo/FyN6dN7zEi1adL7wHXHjPsoRS/r4rp6pXLE81z2WAxIlSsh1D/CZPJkrxY8fL0R1AlAWaBtYQkFZJ06UiMMyXVIp6OnJWwuyZctKyZMn4/AypE/H6Qd4rlTJ4vz9rtmmbVvlaavOTXEkjQpVR21btTTWS8KECahbl06859F0vyPyUa5MKWN7yZzZnVxdXcnv/Hn+bY2qVSrSj927cv9U5WGtrtBPkU700ahRo1LMWDE57cgP8rVi5b/krvWx6lWrcN7gVr1qZQ4nNBvDhfAB/W1gvz601XsHL/WZ40i/43artRfVvtOkTk2eBfJ9IoPN+xvajSn4XbNGVdKUEjpz9iy7QSbgDQwVy5c1yoXQgj7qVaggt2O0R/QjTRHhZcqQgPxDTiMc5Dm7lh9QolhRLk8AGQx/T5484d+m2JKP9saE0MhqYE0mocytyaDQ9v+32rgVElkthB3hpvBhP86AwcOoktYAKlesqLs6BvZ6mPP+w3vu0GoQRaO6r3V2Uz68D9ovh4EEoLNCIJiCxgw/KVMkN3YYR0iYMKGmsMUJev2L1mBfvHxFGzZtojwFvPi4O64uPXpx2EiHo1SqUJ6KehWmeg2bUcEiJWnxkuXGk1T4RB6atWhrjMNT83Po8BEuD2zmxZ6KxIkTG5UQhboH4RonzkcFIbaW56RaGV7zv25T4TUFZf1UU9yyZHHXXeyDTt6j2w905co1ypm3IDVo/B2f1DJVMq0Bhb1vv0Hk6VWCmjRvTUuWr9TvWCcs68QWEEi/jv6dipUqzye/J06exop3SLBV56HFWh1hY3l0rW1gb054EJq6Ak+ePWUl1KtEGWNdNWjcnCcHHz580H0JEYHixYpQ82aNtXb/B+8XM8WRfodP7Llu3qo9t5Mu3XuF+k0JSAuUjC1bt/NvH02mQMbXrF6Vfzs79saE0MhqEFqZFJFltfAp4abwzV/4N5+4vf/gAfXq049fyTLmz3HciKbOmEXjJ0z+ZJMmlBbMACD0TQdRKAl+fucpfrx4FD1GdEqZMgWH8/z5c91HEAF37rB1IFHCRKwcQukwtxZAEcVJo0SaAqdmnKGlSqWKtG3TOuN1YM8O2uW9iZJpMxlHgZVlyaK5tHXjWsqfPy916tqDatRpYNxoi5nP1MnjjXFs37KBzpzwoe/bteH7EZm8Hnno5NGDNGv6ZK0dPKTylavTqN/+sKn0YfZerlI1Oq3N4Hv/2J0a1q8bTGG1R1jUiTWg7NeoXZ9WrV1PHdq1Zssp2iKEVEiwV+ffCp9bV/nzedC6VSuMdbVn51Y6dmQfb14XIg6Qo507fa/J3Fc0acoMTSDrN0yw1e8mT51BTTVlIHlyVxrQr4/RqhMaMOGvU6sGrduwkRU9rFQUL1qU3N0z6T6cn/AYE0IjkyKyrBYsE24KX+bMmbRZYRO2MDgKlLSCBfLTYR8funnrlu4aZLaHNSBfXg9W1PLkzsXWNvOXSMKCBCUur0duFgCZ3DLSps1bgymPZ/z86M6du8alOEe5fuMGK6J4bQYsJjBtQ4mJqzVwmKrVpZasQgL8F9A62ZQJ42jViiV07PgJ8jl6lMvjgzZrC3wTGCwOXDCXq3Tcwwk1M2uduud37hw9fPSx00LhxSw9Xdo0Dls4kY54cePS4SM+DlnoTEEcWNLetmktde3ckZYsW/mJ1dWU3Xv28dLCL0MGUoN6dXjmXqt6Nf2udcK6TiwBwXb+wkUaMuBn+q5pY04bToBDAIcUa3UeWqzVEd5ViMkR2m1YE9q6AqlSpGRraUyt7EzrSi1dCRELLEH+1KsnzZm3gLZuC7KuAXv9DisNeGdmoYKeNFjrN2gjaCsemowOLQjjgRbfho2bad/+g7zMC6XUFjhlGlLZFRGxNyZ8jqwOqUyKyLJasEy4KXzly5ahcX/+Fuzq3bMbD44d2rbmwR8Wvf0HDrI5GJ+gaZOGvNQ4fORvvCcBV/+BQzWF6yZbVKDQYQ9R7ZrVafK0GbRRU+gwcOBzxKjf2D1H9uzcoJo1acT7TvCqF/iBQtjrp/4sfIoW8eL4rIHGvGbt+mDPYa9TgQL5WLhgvwHS/Nf4icbXSWA2dPDwkRAdL7967Zrxv4Tgwm/s20DDx6tmPAsUoJ8HDOG9g7iPo/J4uzv8IR2NG9bjPVp9fh7IS+FIL8zsz54953t4Jc70GbO5TJHOEaPG8As469et7bCFM3WqVFShfFlasGgJLVm6guNAGmbNmaf7+BQo2fhvEWr/HpYhkJZUqVLysrLq9EgL0o0ywH4/KIhQUOAXAsvv3PlP4oFQQ96PaZMApEXtsQlNnShr8dmz54KFZQmXqC5cZsgX0oa0z567gPMWEmzVuSUcSSPqCHvsli5fSVu9t3P5o+ywrSJLlszcbsMaR+pKWe2vXvXn18VAAUVbrF6tMt2//4AGDR1u3JeL/Y2oP3wKEY+G9euQV+GC2kD9QHcJsv7Z6nfYrxU9WjTuK9hiAvmFV4lAvtoDfS1q1ChamE+53aOvgAya/MekHm0nRozovMxrDRXG4SO+PFmDHNi+Yxe/siukRNHCATe1vhvebdSafLQ3JoRGVgN7MsmSDApt/w8MDAyz8VMIGeF6aMMRcLADAj9B/KANt7lz5eQXJUOBy5WvEF/4PnvGFF4CAhAyQwb2p7KlS1Gjpi0oa868/Fm6ZAkaMWyw0ULQoV0b+qFje+rRqw/7gfnZ1TUJTZ00zrhh3RoJEyTgl16q56AbTZ/8P2MHqFK5Io0cPoT++t9ESuuWlf+DCP6jB95ZFRL27jvA/yUkcfK0fGHpu1+fXmzFxIxt8oSxnObS5avw/aQp02npqW78LxPYIzlm1AjasGkL/ycRpLdytdp0OyCA740aMYzTmDKdO6dz+cp/adL/xobIwonyHjZ4AG+Mxlv2EUetuo04jdasW+80oTF6zJ+ULlM2LhvEj1nn8KEDOV8Is1WLZjwIlChTkcsAnR0WM9QrXvKZ0DU1NW7WkjdTm876IPQwm8TyMNLSuduPLERCUyclihfjDc0du3TnsEb/Pla/8ymYJCDNw0aM4rQVLl6GLc223i1pCVt1bglH0mjaJ/DG/iQp0lHhYqV54Jg7c6pVZfJzcKSuoJzD0u/j60t5PYvwnj0MEMgr+jT6dubsHlxXqdJnpsHDRtCbN4H600JEAv0W7z41b++2+h3a389a24aykjtfYZZffy9d7pDFGQoFlm+x3w/7Ze9pEwQAJaJhg3q8X62k1jfUvm5LIIy2rVpoStpNKlS0FCVPnZFGjh5DVSuFbF85wMEIjE8//vQzTZ8Zvi8StiYf7Y0JoZHVwJ5MsiSDPqf/h9X4KYSMSDiye+HyVcoRwk2eYQU28GJmsXDezGANErOWR4+DliITJkhodZkHFqRX2iwDS0M4rWkJzMaePX9B0Vxc+OSiLcsWZi9Q8IoV9WLTNsLHjMfacyqdHz4Y2DyNDhlSTMNAB4FAM0flM0qUyLysbW72RhqxdIvTzOZpdbQsHQFliQHZXjkqVNlbSzdmhvCDclPhwU3tvbQVj5oJmpdXaOoEVicXl2gOlQ3qIvBtoMX8OIojdW6Oo2kMSXv/XBytK7RPWEJx8s8U1W7fv/9gsw8Lltm/35e8vMLeehsabPU7dQ/W/dDISHNgxW7Z5ntauXQRFfTMr7taR/WJ0Mror4Ul+aiwNybguZDIakdkkrkM+tz+HxpZLTgGZEO8RHHJPWN6HgvAV1X40CAbNGlBLb5rwnsAIgLmCp8gCEJEJSIpfF8KKAntvv+Bt62YGwoEQQjCksL3VZd0MSPp1aMr7/cTBEEQBGvAuoTlQ/fsuWn12vXUtnULUfYEIQR89SXdiIZaYormEk2WlwRBiND8lyx8OIh04OBh3teGfbw4OSwIgmUinIUvIgKrIza4i7InCIIQccCBBGy1wYEtUfYEIeSIwicIgiAIguDkiMInCIIgCILg5IjCJwiCIAiC4OSIwicIgiAIguDkiMInCIIgCILg5IjCJwiCIAiC4OSIwicIgiAIguDkiMInCIIgRGiePXtGW7Z580uXbYEX5x84eIjOnPXTXQRBUIjCJwiCIAQD/xB/81Zv4z/G/9osWrKM6jf6juYv+Ft3sZzGc+cvUMOmLah33wH8v9ojMkd8jvIlCF8KUfgEQRCEYBzx9eX/W3vN3193+bo0aVifli2eT981a6y7WE5jlszutGThXBozajjFjh1bd4144P8C/zJyFM2YPUd3EYTwRxQ+QRAEIRjv373n/12LJdSAO3fZWobl0nv379PrN2/Yz5MnT/kCBoOB73lv30kbN22hgIA77KbA8w8fPmI3PO/je4z9Pn36TPcRBOKAlW7VmnXk53eO3r59x+4u0aJRrpw5gylxltII3NwyUqqUKfm7AuEgPISL8BGPKY6mz5TPKQ98f6el/9XLV5x2+DVNE9KCZ/fs3W8MXxA+mzeBgYZTfue19icIgiB8S+zb56N/Cxvu3L1ryJPfyxA/Scpg19hxEwy3A+4Ycnh4Gn4fO87QonV7du/wQ1fD3Xv3DIWKlf7kmZGjxhg+fPjA4eL5LDk8DB06dTUkdE1t9JPWLavh+ImT7EdTlgx1GzRl94yZc7K/GnUaGDRlzLBh42Z2x6cjaUS6FCdOnjJ4FAju39OrhMHv3Mdxz5H0mRPa8pgwaeon9xAOwgsMfGsYNHQ4u6XLlM2QJEVaQ/I0boat3tv1WAXBMSAboNtBx1OIhU8QBEFgEidKRFs2rqbePbtRjBgxaMXSheR36ii1a9NS90H01/hJlCtXDvI5uIeGDOhHcePEocULZtO9W9fo8b2b/NmkUQOat/Bvun07QH+K6M7de5QpkxtdvXCG/a1euZRevXrFliyw4p9VdNjHh3Zv30yXzp2kBwH+tHDuTIoZMybfVziSRgUsdD169aHIkSOT76G9HC8+YU3r239QsH1+9tJnjZCWR8vmTWnPji2UPHkyqlm9Kqd9+5b1lDRJYlq9dh3NnD2PVi5dxOm4fvkclS9bhn4d/btNa6MgOIIofIIgCAITJUoUTfFIwkunkSJFYuUqeTLXYEupVatUpB+7dyW3jBlYaYHSlT5dOnJxicr38Vm5Ynl6/PgJ3b13j90A/JUrU4rixYvLvzNndidXV1fyO3+ef8eOHYsCA99qitddXvJE/HE05QmfpjiSRsWZs2fp2PGT1Kd3T8qYIT274bNDuzZ04OBhunDxErsBe+mzRkjLA+lMoqU/atSoFDNWTE478vP23TtasnQ5lSlVkkoUL8rPIqz6dWvxsu9LTfkUhM9BFD5BEAThs4Di1LffIPL0KkFNmremJctX6nccp1KF8lTUqzDVa9iMChYpSYuXLKfXr1/rd0MHlCyQNk1q/lTgN6x32FsXHoSmPN5rCt+Ll69ow6ZNlKeAF+Xw8OSrS49ebJH8YLbvUBBCiih8giAIQqg5cfIUlatUjU6fPUu9f+xODevXpThxQn5CFpa1JYvm0taNayl//rzUqWsPqlGnAR9g+Jb43PKoUqkibdu0zngd2LODdnlvomTJXHUfghA6ROETBEEQQs3uPft4KfaXIQOpQb06vC+tVvVq+t2QgeXaApqyN2XCOFq1YgkdO36CfI6G/l11CRLE588TJ0/zp8Lv3HneG4gl2LAmtOURPXp0Xp6+/+AhxdUURCz1qgtLvigbQfgcROETBEEQgpEyZQpeTj179hzvH7O19BkrViz2e/nKVd57B2Vq1px5+l3HuXrtGt26dZuXL3Hhd7Ro0VnZsYQjacyVMwcVL1aEJk2ZTidPnebXuOzdt5/Gjp9AJYsXpaxZMus+ww5HyiOGptwhX1ev+tOVq9f4MEdgYCDv19t/4CD9NX6i8ZAGLJwHDx+R17MIn40ofIIgCEIwShQvRoU8C1DHLt0pa868NPr3sfqdT6lbuyaVLV2KX4Kc0DU1NW7Wktzc3EJskdq77wBlz1OAEidPy1e3nj9Rvz69KE/uXLqP4DiSRhyQmDjuT3J1TULFS1egJCnSUdWa9Sh/vrw0buwYPhQR1jhSHrA8Nm/WhHx8fSmvZxHyKlGGFcQqlSvSyOFD6K//TaS0blkpQdJUlDFLTpo2fZb+pCCEnkh4R8uFy1cpRxZ33UkQBEH4Fti/35e8vPLpv8Ie/EcIF5doxhOn1oAlS/2Ls4QJE3xystZR8ILkR48f0YcPBlaKYAmzh6NpxEuRX71+TTE1JS9+/Hi6a/jgaHnAkonDIziNbIppOWB519IJZEGwBWRDvERxyT1jeorm4sJuYuETBEEQLILlSXuKFIBCkyhRQr5Cq+wBxOWaNCnvW3NE2QOOphFKHsINb2UPOFoesPqZK3vAtBxE2RPCClH4BEEQBEEQnBxR+ARBEARBEJwcUfgEQRAEQRCcHFH4BEEQBEEQnBxR+ARBEARBEJwcUfgEQRAEQRCcHFH4BEEQBEEQnBxR+ARBEARBEJwc43/aePow6P/2CYIgCIIgCN825v9pQ/61miAIwjdKeP9rNUEQvk3kX6sJgiAIgiD8BxGFTxAEQRAEwckRhU8QBEEQBMHJEYVPEARBEATByRGFTxAEQRAEwckRhU8QBEEQBMHJEYVPEARBEATByRGFTxAEQRAEwckRhU8QBEEQBMHJibAK37Nnz2jLNm968PCh7hL23Lt/nypVq039Bg7RXYLz8uVLat2uI1/4Lnw93r9/TwcOHqIzZ/10F8s46k8QhPAh4M5d2uq9PVxl5o6duymHhyd/WsLe/W+ZWXPmU5ESZZ1CxjlzPUVEwlXh+75zN0qQNFWwK3kaN5owaSq9fftO92WZRUuWUf1G39H8BX/rLmHP+/cf6MbNm/Tw0SPdJTgGg4Hu3L3HF75/Kc6dv0B79u6nd+9sl5E5r1+/ZiX59u0A3SX0PHr0mDZv9ebPiADKpGHTFtS77wB68eIFu1lKoyV/giA4DvpN1Zr1PpHdmbLmppX/rrYrC0eP+ZPqNWxGu3bv1V3CHsi6mzdv8acl7N3/lnn69ClduXqNAgMDdZdvF2eup4hIuFv4kidPRnt2bCG/U0fppO9BatemJQ0c8gvNX2hbkWvSsD4tWzyfvmvWWHf57wCF+Nff/qA3b97oLo5x8dJlatW2Ix0/cVJ3CT1HfH3ZsnnN3193+bpkyexOSxbOpTGjhlPs2LHZzVIaLfkTBCHkeBbIR76H9rLs9jm4h4oXK0JtO/xg1xrTp3dPWr5kAZUoXlR3EQQhIhDuCl/UqFEpSZIklDyZK6VJk5r69OpBhQp60qo1a9nk/1pTarC0iqU4XPgON5do0ShXzpyfDNqYXT58+IiXDfBpOtuE1dDP7xytW7+R/K9f/2Qmit9w37h5K8+QPmjxOQqsgbAebdy0he7eu6e7Bs2G8dvcYok8II34tATcYcVDeAEBd4Ln491bbfb2hi2LpmHj89LlK5w/PGtuwYJFEGX4+PETjvvJk6f6nSBQXt7bd/Kz1tKleP/uPYeHJXWEhbhU2at48WlaB4gPYSN9KF+kRWHqF3H7+B7jtDx9+kz3EQSeQTmvWrOO69K0XN3cMlKqlCn1X5bTCMz9AYSLNCFtR48d/6S+HE2fIPxXiBYtOiVzTcqy2y1jBhoxbDAl077DygdM+wz6E2Q3PuPGiU25c+UkF5do7E+BfoV+akkuIizIDmt9DuGi3+I+4gwJCA/PmfZ7JctU+k2BHFNjkjmOyAk8h+eVPFIgXPWs8oMwlGzCuARrF4AfjAsYHzCRN0+jAuMD/EBmWkuvpXJFeEiLSqNpviyBdJ4968dyGXk2rT/TvJim21KaPqcehTDgTWCg4ZTfea2ewp4OP3Q15PDwNNwOuKO7GAzPnz83VKlRly9837BxsyG9e3bDgkWLDR4FvAzxk6RkN1zqu+Kav7+hfOXq7K6useMm8L0TJ0/x8wldUxsyZs7J91q0bs9xgMDAt4YevfoEezZn3oKGpCnTcTotodKaJYeHIXueAsGe/X3sOMPbt28NW7Z5c5zLV/6rPxXE1OmzDGndshrOnDmru3zE9+gxTqNpWidMmmrYvHVbsDhwJU/jZtA6iGGb9w72b35v/4GDBq2zGmrUaRDsHi6VL+R90NDh7JYuUzZDkhRp+dmt3tv5vil37t415MkfVA+mF8pZlUeX7r0MAwYPY3f8vnv3nqFRs5afPNOhU1fDq1evOFw8j3KEm2k+UEbHT5xkP5pANNRt0JTdVfkgX8gf2hDaEvJkK42m/hSaEP2k3SD8nbv26D4cS58gRDT27fPRv4Ud5jJaYd630Gc8vUoY5i/825A6QxajrIK7+g60SZlh8rQZLHdUv1LjwocPHwzTZ87heynSZuIL/W/GrLn8LPD3v24oVKy08VlciBefpuODKWr8KFOh6ifPaQoUx9urTz9D1lz5DFevXdOfMrC8qlO/CV9KdpniiJxQ5QS/pqDcVJkqP/UbNTOOe7gQ5h9jxxtKl69idMP11/iJnGaAcBMnT2soUqJsMD816zY0aIoX+7FXrtZkuWl9K6bNmB0sHly58hYyXLh4ie+rvLRs08FYL+rCmItxEoSmHoXQA9kA3Q46nuKLH9qANQazGMwao0ePzm7YgzVl2kwaPLAfL/sWLVKY3U3BDKRj5x509+592r5lPT0I8Kd7t65R+7ateOaiNSzK65GHblw5R5fOnaTVK5fyjAkXWL12Hc2Zt5D++mM0P4vr99EjKUqUqHzfFlFdXGjRvFn06O4NCrh+ib5v35ZG/DqGDhw8TAXy5aM8uXPR+g2bjHvusB9hkxZvyeLFyd09E7spMAv6dfTvlDt3Trp+2Y/Tiny0atGMihcryksoWEpRyynHffZTjuzZKU+eXHTm+BFOw+N7N+mE7wFt9u1KM2fPoxgxYtDs6VNoyoRxHAc+sQwzesQv/Bt5h7+VSxfR1QtntHjPUfmyZTgd5rPpxIkS0ZaNq6l3z24c7oqlCzksLMUr/l6ylALfBNL+Xdto5tSJFDduHBr5yxAKuHGZ04Y0Durfl/5dvTbYxmJYLDNlcuM0wB/qSBOqPNsDK/5ZRYd9fGj39s1cLqijhXNnUsyYMfm+wpE0KlAn2EKA2eam9as43ivnT1P27FlJE/h069Zt3af99AnCf5kbN27SgwcPKX3atLoL0fkLF7nfzp4xmXwP7qHMZvIOQDb2GzCEunf5gfwv+XHfOrDbm5ImSUyHj/jSkF9G0p9jRtHNq+dZJnbr0om0CTVv1UD/xX1NEeGtQXj21rULVLVKJT1022BZGf7x3M5tG9mqpE1+YeigurVravl5QEd8juq+ia5cucpbRRo2qMuyxRJhKSewf/zfFYs5HMj0tGnS0Ky58+mXIQNY/qG8vAoX0mTusmB7zWE5a9OqBY8dkLcYn/btP0CaMsj37ZWrwlyWqzHZlKqVK9Llc6c4jbi2blzLFj2s0ply1u8czZw2idONcbJGtaq8x/q+1mY+tx6FsCHcFb67d+/SwMHDqFvPn/gQR5nyVenR40fU6fv2vNyr6N+3N9WqUY2XfePGjau7fuTkqdN08NBhbrRQ7KJEiUIuLlEpVqxY5Hv0GJ0+48fKH36DfHnzkEee3HT9+g1ubKtWr2PFrFaN6vwsLvxOnDgR+7dFOk3AZXLLSJEiRWIh8H371pqwSkLbd+yiBAniU8XyZdlsjgMgAELD99gxqlmjarA8gqhavDFixORTyGrJVeUjhtbZsISCpRS1nOKaNCnfh5KD/ZBIA0iTOjUrhbduB7CwSZQoIacF4BMKdfz48VjBXLJ0OZUpVZKFH0Ae6tetxUsrL7VnTUG5IG9YSkdcHK8WlunSekFPTxo0oC9ly5aV04TwMqRPx+kHeK5UyeL8/a4mHBXwV65MKYoXL6h+M2d2J1dNafU7f55/x44diwID32oC9S4vDSCcOHHiGPOscCSNCtQJ6qZtq5ZUyLMAuyVMmIDbEZZKTPc72kufIPyXwJYKHH6C7G7V9nuqVqsepUyRnJo2bqj7IJ6MDR7ws9ZvSlMK7Z6SvwrI3mUr/mVF8PsObY19C/0a/XjFyn/JXVOeqletwn0ZbtWrVmY/MASo/tuwXl3KmSM7uyMO1ZftAX8qTZD3Lb5rSkc0ZSggIICyZ8vGS88YG5BOsFuLi8MvaD38sJQTUBwxvgDIsVSpUvJvjF0oC8SRLl0aev7ihXE5GiANGOMwNqDcKmhjUKUKFTSl7yBv6bFXrgpzWW4+XoGUKVPw+KLImsWdy/LCxUu6SxAeHrkpV84cHJdKHyYIKOvPrUchbAh3hQ8D+O49e/mY/qlTZ6hJ4wbabMKb8ufz0H04BhoxOmUKrVGaA4salJ5mLdryEW9cnkVK0qHDR+j9h/d8+AGWRShJceJ8/kZ+KKRQGm7eDtpvUbN6VU2xeq3F58O/N23ZxgoJNjmbgw7Vo9sPmlJ4jXLmLUgNGn/HM0woOLbAjA7hNm/Vnjy9SlCX7r1YCbbHe63MXrx8RRs2baI8BbyM5dOlRy8OMyT7GG0B5REWw2KlylPNug1p4uRpRiHqKJUqlKeiXoX5hF9Brf4WL1n+2ae30G6easp1Fk1ImZIkcWKezcLyJwjCpzx6/Ji279zFsvv6jRvU+8dutGPrBp6UO4qSvYm1/qYmhKY8efaUJ11eJcoYZVODxs15Mvzhwwer/Te0pE6disNDuFCmGmgKCAwJUEiwioQ9atWqVGJL27cExhWMjWovnb1yDQmQwctW/MNyHfK9T79BRuOGo4R1PQqhI9wVPnSwHds20eljh9mUO2zwAJ4xhDWYUUydPJ62bVrH1/YtG+jMCR/6vl0b3Uf4gWVbzHCXa50Cwm3Ltu08s4J1zhKwUJ48epBmTZ/M5u7ylavTqN/+sKn0TZ46g5o2b63NwlxpQL8+Rmudo1SpVNFYNrgO7NlBu7w38SbszwXLojVq16dVa9dTh3atqXXL5lzH5ht27QEBvGTRXF4yyJ8/L3Xq2oNq1Gkgm3sF4SuApcQj+3ex7Eaf/LF7V4urL58LJv/rVq0wyqY9O7fSsSP7+NBeeFOxQlmKHCUybd+xmy1W57UJIJZ6zVcVvkXColwxacd7arv26E1FtMl47x+7a+HmpXdv3+o+hG+JL76HL7RgmRKzGP/rN3SXj+Dehw/veS8ClvZMLyzzwZIDc7nfuXNW37kXEu7euUu3AwIoa+bM/BvpatyoPh09doJPJ126dEkTJOX4njVgzsYS9rZNa6lr5460ZNlKnp1ZAqeZ8X49nG7G8gksig3q1WETuj1U3qFY4vScadnACgnz++dy+uxZ3sszREvbd00bc/ogNKGEhxSkp4Cm7GEf4qoVS+jY8RPkc/TjHpuQgrYRTxukDh/xCaZQ412FmLniNS6CIIQPSv7cu3ePXlh4EXOqFCl5dSCmJitMZZPaymKt/4YGPH9Gk1VJkiTm/c8AljxY9Nau28CyG8unWOoNC7C69KWALMMWFSwHQ87bK1dHwXjpvX0Xb0/CGzYg2xvWr0Nubm66D8cIy3oUQs83o/BhbwCWSEeM+o1fC4DGDMuS37nzfM+zQAH6ecAQPvINyxL2O5w6fYauXrvGChn2rKFD4KWg2NeHa868BcE27VsDewSXr/yX/WIJsOdP/ShqlKhUyUSpg9UO+wEHDB7Ghyxy58qh3wkOZkw4yKD272Ep+vKVq7x3I7amBCoBiYMteAUL4oTCFz1aNHaDBRF5w+tFdu/Zx2EolFJ87MRJLh8cjwfI+/4DB+mv8RONhzRgNTt4+Aib/y0BCx2EyNmz54KFZQmXqC48I0a+0JmRztlzF3DeQgLqCvlF/eHCb+xlhGJqCUfSmDpVKqpapSItXb6Sl6ZQ/mgzqKcsWTJTgQL5dJ+CIIQ1PBluWI9lb5+fB7JMQ1+FNQ17yapXq0z37z/ggxTqdVdYWoW8wif6L/anLVi0hJYsXcHPQq7PmjOP/doD/uAfz+HQHg6vVa1ciferAcgt/N6zdx+NmzCZl3jV3rzQEjlyJB4ftmzdzpN45APjx3ZNcQorIFshY9UY8cfY8eS9YydPtGHksFeujhK0Hy86Xbt2nccOjEXIC8bEkPC59SiEDd+MwodGPHHcnzz7wst2s+bMS9nzFNA68Fy+N3nCWHJ1TUKly1ehxMnTUtKU6ahcperG/zpRpXJFGjl8CM1bsIhy5SvE+9lwoASbT+1Rtkwp3tuB+AoVLcUNdcqkcZQ1axbdR9CGW1jsIMSqVa1s1br1TlNkoHSmy5SN316fMp07z3qGDx3I+YCAxIldKHYlylTkOKHA/dynFx/0yJ2vMOft76XLP7FOQfHFDAzLwyifzt1+5Lexq7z/9b+JlNYtK8ebMUtOmjZ9lv7kp5QoXow31Hbs0p3DGv37WP3OpxQt4sVpHjZiFCV0TU2Fi5fhk7vmp2vtsXffAc4v6g8XNov30/JtrY4cSSPKc8jA/lS2dCn+zy1JUqSjwsVKs2I9d+ZUq8qkIAhhQ6WK5WnMqBG0YdMWyl+oGPfVytVq8yoJ+vbsGVP4bQqZs3uwbEqVPjMNHjaC3rwJ5P6LbUA4GIdDf3i2Vt1G/Jy9FQQcWsOBCowDeA5vcoCMhkwxXbLNl9eDcmkTdCg2JUsU011DD2RK29Yt+F88umfLw/mBBbF06RK6j88nfbp0mgyLxvu5ITPH/DmOV4qwwgLslaujYFzDgcojPj48dmC8OnjoCGXVJssh4XPqUQg7IuEdLRcuX6Uc39BmSsxQnj1/wRYt843AsJy9ev1am5lEpkQJE36yZAnr2OMnjylB/AQhMm0DxItTrZbCBdNmzKax4yfQxrX/GE9eWUPlwVo6YSmDHyiBSjgh7TjhDEsg3K2hrHbmZaOe//DBwGZ/W2EoMKPDC1QdKSuUfeDbQKvl4wimabRUv5ZwNI2qzKO5uPChG2fYpyP8t9m/35e8vL4NKzWs9lgijBI5yif9T93DC+6xDAllzRz0XygrIe27KuxY2gTUkszDKkHT5m1Y3kydNJ6Vk7BAjUWOyrHQoORlvHjxLMbhSLk6AsYUHLwIi7yEth6FkAHZEC9RXHLPmJ7HPPBNKnwRESyR1mvUjDfK/vbrcGnIgiCEO9+SwhdRwTJn/cbNac7MKXz4ThCcAUsK3zezpBtRwR6NStVq8ytWLl2+zCZ1UfYEQRAiNvifwNly56eqNevxO029ChXU7wiCcyIWvs8EywG79+7jE8L58+fjk1CCIAhfArHwhR7s7z50xIdPj3oVLih7yQSnQpZ0BUEQnAhR+ARBsIQs6QqCIAiCIPwHEYVPEARBEATByRGFTxAEQRAEwckRhU8QBEEQBMHJEYVPEARBEATByRGFTxAEQRAEwckRhU8QBEEQBMHJEYVPEARBsMusOfOpSImydOasn+7y5cH/GD91+gwdPHyEv0cUTp46TQWLlKQESVPxtdV7u37HOXj27Blt2eZNDx4+1F2EbxFR+ARBEAS7PH36lK5cvUaBgYG6S/jy6NFj2rzVmz8V9x88oBat21Ob9p3ozt17uuvX5d27d/TX+In08tUr2rJhDZ30PUh5PfLod789jvgc5cuURUuWUf1G39H8BX/rLsK3iCh8giAIQoTjiK8vtW7Xka75++suREkSJ6a5s6bRzGmTKJlrUt316/LmzRsKuHOXihX14v/JmyZNakqcKJF+99vi5cuX9MvIUTRj9hzdJYgmDevTssXz6btmjXUX4VtEFD5BEAThE15risyevfv5evHihe76Ebjdu3+f3r9/r7sQvX37ju7eu8fPAvh5+PARL7/iHvzjE8DP2bN+tGrNOvLxPWZ8RvH+3Xu2nmEZEQqVSkPKFCnI3c2NvyuQBlgf163fSEePHTfGoTBNB+JBfN7bd9LTp890H9ZBWH5+5zid585fCJZfU169fMXpRP7N4zcF6UDcKFeVZ6QL7iqNCqTbPDxLz5uiwkJaTMNzpL7g951W7iovyr9LtGiUK2dOih07NvtTIEykY+OmLRyOKXgOzyNshBsQcIf9WSpD1APyhAtpFsIJ/C/dU37ntfoQBEEQviX27fPRv4UtvkePGTJmzmmInyQlX0lSpDXkzFvQkDyNm0FTqNjP2HETDDk8PA23A+7wb4B78LNh42b+DT+eXiUM8xf+bUidIYvx+WkzZhvDVleuvIUMFy5eMty5e9eQJ7/XJ/cR1vPnzw1VatTlC9/BzZu3DOUrVw/mF2nfuWsP3wd4NksOD0OHTl0NCV1TG/2ldctqOH7ipO7rU06cPGXwKBA8LciP37mgMRP5NL2Hy7SMTAkMfGsYNHQ4+0mXKRuXKfxu9d5u+PDhg+Gv8RMNyVJnNOzbf4D9P3ny1FCpWm1DrXqNOK+2nldc8/f/pCyQd2CvviZMmhrsOVzKv8qnqlekd/rMOZwGU/8dO3c3aEog+8FzeL5lmw5cZqb+evTqY3j79i37W71mHYeDC/nC/c1bt/E9IfRANkC3g46nEAufIAiCYATWlt59+1OGDOnozPEj9PjeTTp36hjlz+uh+wgZ5y9cpBX/rKLZMyaT78E9lNk9E1WtXJEunzvFYePaunEtW4NWrVnLy6FbNq6m3j27UYwYMWjF0oXkd+ootWvTUg/xI7AADhzyC1uNNq1fxWFdOX+asmfPSr369KNbt27rPon3/GXK5EZXL5xhf6tXLqVXr16xVckSKAdNMaHIkSOT76G9/Aw+YZ3q238QW7dKlSrBbljKrVm9KqfzuM9+ypE9ux7KR1avXUczZ8+jlUsXcRquXz5H5cuWoV9H/07Pnj2ntq1bkFfhgtR/0DC2cs2eO58uXrxEv/4yhC1rtp5HWpGejp170N2792n7lvX0IMCf7t26Ru3bttJTYJuWzZvSnh1bKHnyZMa8IJykSRLrPj5y+Igv9Rs4mBo1qE8B1y/Ro7s3aNb0ybR0+Uo+3GPKWb9zvASP9MBvjWpVeW/m/QcP2Xo7YtQYataksXbvMucr4MZlKl6sqP60EJaIwicIgiAYOXP2LB07flJTFFpTypQp2C1RooTkkSc3fw8pMWPGpMEDfqZyZUpTihTJKVasWBwuwlRkzeJOeXLnoguaghMlShRNyUjCSk6kSJFYAUyezPWT5URw4+ZNXlJs26olFfIswG4JEyagbl060cVLl+n4iZPsBqA8litTiuLFi8u/M2d2J1dXV/I7f55/m6PKoU/vnpQxQ3p2w2eHdm3owMHDnNYY0aPzXsJo0aJTzFgxOZ2uSZOSi0tU9q/AsuaSpcupTKmSVKJ4kDKD9NSvW4uXTnHgA/kbOqg/Xbp8mdp06ERjx0+g4cMGUdasWRx6HieFDx46zHnHoRGUI9KB8nYExJ9EK/eoUaMa84J6QDjmbNq8lRImSEg/9ujC6UA9ValUgUoWL0YbNm1h5VPh4ZGbcuXMweHAb768eeiBpuwFBARQlMhRuH08evSI9w8ClCkuIewRhU8QBEEw8vjxE/5MmyY1f4YHr1+/pmUr/qGadRtSsVLlqU+/Qay8hRSk9emzZ5RFUxhNweGO6JrSAMtfaLFWDvgNyyD2pDnK+3fv6MXLV5oytInyFPCiHB6efHXp0Ysthh/0PW25c+XUlON+tH3HLqpYvhzVqVWT3R15HumFxTNF8mT8THhy8/YtVtoTxE+guwQpoEldk/Ahm2fPP93zaYkECeJTz26dad2GjZQxS07q1KUHK9JC+CAKnyAIgvDFgFLSb+AQ6tqjNxXxKky9f+xO+fPlpXdv3+o+nJcqlSrStk3rjNeBPTtol/cmSpbMle/jEIWySh48dIRuB3xckgb2nv8WqV6tCm8Z+O3XEbT/wEEqVLQULV6yXL8rhCWi8AmCIAhGYHUBJ06e5k9bmFqnHOXhI5wy3UU1a1SlPr168H6xhvXrkJvZyVtHQFrjxY1Lh4/4BDvdevt2AFsRs2QObvkLCdbKwe/ceV6GxF43R4G1EUvT2LcWN05sXi5Vl+myKSx4/65eQ9Mm/4+iRXOhUb/9yUqgI88jvViO9b9+g8OyRGjqyxKpUqSky1euaOX8USHFMu716zcpXdq0nMaQgOX9Vi2a0aF9u6hypQr099JlxiVeIewQhU8QBEEwgv1WhQp60rgJk/g/RmCPGCwvOHhhiouLCy9r7t67j5US7JmbMm0mL3faImgvV3S6du06HzbAwL585b/ke/SY7iMILBlCaTt79hynwdISaupUqahqlYp8WABphfUQCtmAwcMoS5bMVKBAPt1nyEE5FC9WhCZNmc774xD23n37eW9dyeJFKasWvqNAEcN+O5QjXtKMfAMczsB/DcEePf/r12nQkBHUuGEDzW9t3s+HfK38d5VDz6v0jhj1m/bMai4zHFpBeQBH6gt756BAXr3qz6+5geJsSfGCsg7+HDeB04D4J2th7dt/gOrWrmlxv6UlUL/4zy1qzx8OcSDNqVKmZKVaCFtE4RMEQRCMYLCePGGsNuimoHoNm1HWnHmpW8+fqFzZ0rqPIGpUq8JKVYdOXSlpynRUqWotcnPLyPvnbAFLVf++vemIjw+ldctKKdO58/KluQJVongxPojRsUt3TsPo38fqdz4CRWjIwP5UtnQp/k8QSVKko8LFSrNFbO7Mqay8hBaUw8Rxf5KraxIqXroCh121Zj1efh43dgzvWQsJVSpXpJHDh9Bf/5vI+ca/YMO+tWnTZ9FbTZmENS9GzBh8EAKHIMqVLUNNGzekwUOH0+UrV20+D1R6s2fLxi+sRpllz1OAZs6ey/cdqS9YCZs3a0I+vr6U17MIeZUow3Gbg72GM6ZOpI2bt3IakqfOSCNHjaH+P/9E3zV1/OXML1++oh+69qRU6TNzfpBmWCF//ulHLgMhbImEd7RcuHyVcphtehUEQRAiNvv3+5KXV+itWPZ48uQpf8aPH48/zYGl6NHjRxQ1SlQ+HRuSQRpWIRw0gJJh61QmLEwuLtE+OflqDqxEOCwQzcUlxGmxB8rh1evXFFNT8qyVhaOoMvvwwcBLn45awxSOPK/KwrxsHa0vKF2w/MWJE0d3sQz8YYn+/fsPduvRFqp8w6Pu/qtANsRLFJfcM6bncgWi8AmCIHyjhLfCJwjCt4klhU+WdAVBEARBEJwcUfgEQRAEQRCcHFH4BEEQBEEQnBxR+ARBEARBEJwcUfgEQRAEQRCcHFH4BEEQBEEQnBxR+ARBEARBEJwcUfgEQRAEQRCcHOOLl58+DPrffIIgCIIgCMK3jfynDUEQBCdB/tOGIAiWkP+0IQiCIAiC8B9EFD5BEARBEAQnRxQ+QRAEQRAEJ0cUPkEQBEEQBCdHFD5BEARBEAQnRxQ+QRAEQRAEJ0cUPkEQBEEQBCdHFD5BEARBEAQnRxQ+QRAEQRAEJyfcFT6DwUABAXdo46YtdPasH7148UK/Q/Ty5Utq3a4jX/guhJ6AO3dpq/f2L1KOs+bMpyIlytIZrT6t8f79ezpw8JBNP/81HCk3Wzx79oy2bPOmBw8f6i7hz+emWfh2QR++cvUabdy8lS5dvkKv37zR7xDdu3+fKlWrTf0GDtFdhNCA8fHU6TN08PAR/h6eODrefg05E5FxJj0lXBU+/+vXqWLVmpQ1Vz5q1KwleWkDR6r0mal33/58Hw38zt17fIV3Y3cmjvgc5cuU0WP+pHoNm9Gu3Xt1l/Dj6dOnPBAEBgbqLp9y7vwFati0hVbXA4Ip+dZ49Ogxbd7qzZ/OiiPlZotFS5ZR/Ubf0fwFf+su4c/npln4NvE9eowKFC5OeT2LUCOtH+cvVIySp85I02fO4fvv33+gGzdv0sNHj/i3YJ/Xr1+zInX7doDuQnT/wQNq0bo9tWnficfB8MTR8Takcgayfs/e/fTu3TvdxblwJj0l3BQ+NO6ftMHe3/86rVi6kB4E+FPAjcu0f9c2ql61iu5LCCmYYfwychTNmB0keBV9evek5UsWUIniRXWXr0uWzO60ZOFcGjNqOMWOHVt3tc4RX1+eQV3z99ddBHOaNKxPyxbPp++aNdZdBCHsgfWuU9eeFD16dNq7cys9unuDbl49T9s2raMC+fPqvoSQcvHSZWrVtiMdP3FSdyFKkjgxzZ01jWZOm0TJXJPqrl+XkMqZCZOm0q+//UFvTCzAQsQk3BS+x0+e0qkzZ6lqlUpUtnQpihIlCsXQBEi2bFmtKiUPHz4i7+076eix4/T27aezBViKMJPA8vDdex9nQ1h6gJB6osWpgCaO8HCZauXwA794xhoqHYhLLWMgPYjT1FplLQ5Lz5uiwsIyrApPhWWaB4D7pumFv3fv3tOrl6/4eXUvbpzYlDtXTnJxicb+FNbKDKhyQxoRrlp6x4zNVvmYgmd9fI9xfp8+faa7BuHmlpFSpUyp/wqKD2GvWrOO/PzOBavj91qeMEPEMoJpuQD4g388Z542VW7KPz7xGxMOhGNe/pbq0RzUAcps3fqNbN0yjQ/hqTJX6bJUtgB+EQ4uW/EB+LWXXpdo0ShXzpzBFGhrZYpw8Jz6DeAXaTdNC8oPbqg/5ANtAG7Cf5ebN2/RtWv+1Lplc8qRPRtFihSJ21z+fB6U1yOP7usjjsgOJRPN5QTaonk7tdQXTPuBNeAHfQD9FqtLqh1bCk/1BVN5a+15U1RYpuFZ6lcAYSPfKhzIN/h9/PgJP6/iTpkiBbm7ufF3BfxB9iAtlsZDxO2oHLKGqhPz8C3JGcSnxhFzGfH23VsKDHzDFjDzukSZODL+AJQHLkttAqiyV/7NQZqsyTJ8mo4T1vKuQPwIA+UaGPhWd3UC3gQGGk75ndfKI2y5c/euIU9+L0OlarUNWiXqrsF5/vy5oUqNugaPAl6GmnUbGuInSWm8atVrxPfBhw8fDNNnzjEkSZE2mJ+OnbsbtAo0hoNLPXP/wQNDoaKl+MJ38Or1a0P9Rs0Mdeo3Mbx69YrdTNEq1jBo6HAOO12mbBxf8jRuhq3e2zkPNeo0MJQuX8Xw4MFD9n/4iK8hVfrMhv9NnMK/bT0PkI8Nm7YYUmfIYswD7muNzpiHDj90Zb+KseMmGHJ4eBpuB9wxaDMp43PqUvfgT4UF7JUZwHN4vmWbDgZPrxLB/PXo1cfw9u1b9mcO4kqcPK2heat2wcJP65bVoM1e2Y8KW+UH5Ve3QVP2lzFzTkNC19RcnlevXeN2osJQF+IAJ06e4vZheg9p9TsX1GZVuXXp3sswYPAwvo/fR3x8OT2/jv6d/Sm2bPPmNOPTHJRLo2Ytg8WFq0Onrsb2smHjZi7nTl16GJKlzmj0g/ys37CJ/QDfo8c4n+o+4syZt2CwOjLlzJmzdtOLuBEWPoG1MkU+VDpN41J1ospWE2qGQsVKG9OorpGjxnD7AebtSohY7Nvno38LO06eOs1yDbICMs0Sqi2VKleZZaJp+zGVHaYy0fT67Y+/+B76TIKkqYL1nVlz5rMffCq279hltd8CJSfQB1S/a9G6PcsHf//rhnwFi/JvlZ8V/6wyuKZMb4zX1vNAU9YMk6fNCCbvlOw171cKyD7Iort373G/VM+pC/eV/MKl4tIUbkP5ytWD+UWadu7aw/eBo3LIFBWXvfHWXM4oWWZaNhiLNm/dFiwMXEpWhGT8+X3sOC5r3EeZoI4R1/KV/7I/xdTps1hGQlaaY0+WqbxXq1WPdRJTP+a6BsZz0/uZs3vwmG1aR98CkA3Q7aDjKcLNwpc0SRJq1aIZ7T9wkLTORuP+N4m1aktogyl17tSB7t26xku/Pbp1pgMHD9OFi5f4vqZYUb+Bg6lRg/oUcP0SLzHMmj6Zli5fyZvKMRMpX7Y0nTl7lm5os1Nw4cJFuqrNUv2v3+DZKggICKDjJ05RxQrlKEaMGOxmyuq162jm7Hm0cukiunrhDF2/fE4LtwxpgzDf/2XIQLp0+TJNnjqdZ2lYWi1WpDC1bd2C79t6HrNamPJbtf2eKmnxnz9zjB7fu0mX/E5os+js/Lw9WjZvSnt2bKHkyZNRzepVye/UUdq+Zb1W1ol1Hx+xV2amnNVmMVhS4GV3zW+NalV5P939B9Y37WJ2litXTi39pzgfq1cu5XrErMkSmoClwz4+tHv7Zrp07iTHtXDuTLYAbtm4mnr37MZ1guV/5Ktdm5ZcZtrgQZEjRybfQ3s5Hnwi7r79BwWbUf+9ZCkFvgnkLQMzp05ky0TJ4sX5IIuyKGjtnTZt3ko5c+SgAvnysZsp0bSZ7chfhvDWA8SFMhvUvy/9u3ptsEMLyKeLiwud8D3A/g7t20muSZPQKq3+AeLDPtUMGdLRmeNH2M+5U8cof14Pvm8Jd/dMVtObJ3cuKligALuZYq1MY8aMqfuwTdw4cWjxgtnc75BGfDZp1IDmLfw72D4j4b9FlsyZqW7tmrRo8VIqWKQEf1rbrI6+MO7P36zKDsjE8RMmcz+CH1z4jj3HW7d5k0ee3JQ6dSrasXM3+4cVTFPu2Kq4b/8Bo4Vm9559lCF9el7FMEfJCVgfb1w5x30B8giHTXClSZOahg8dRGvXb6SV/66i69qYMOLX36hVy+ZUqWJ5u88DTYmifgOGUPcuP5D/JT/uLwd2e1uUvebEjBmDZk+fQlMmjOPf+ISMGz3iF/5tCvI/cMgvbCndtH4Vx3Pl/GnKnj0r9erTj27duq37tC+HrGFvvDUF1jSMX7lz59TGMz8uGzyHsb14saIsjz0L5OML34/77OfxLCTjz1/jJ2ljSQ7yObiHhgzox7IZMg9ljvIAWLGBLISMhKw0x1FZBr3gxx5drOYd6R424lfq1aOrMd1L/55H8ePH4/vfOuGm8KHDdu3ckdavXkFp06ahwcNGUMYsOalZy7bBGi1wc3Mjr0IFtcYblZd+C3kW4EYJkyxARSdMkJArCkoBwq5SqYJW+cVow6YtPPCXKllcaxRvjPsjUImFC3lqg3s2VvIAlh7RgEqWKMa/TUHDXrJ0OZUpVZLUkjPiql+3FpuRX2rpgbDp3bM7/W/SVGrfsTOd1xrPyOFD2Z8jz69Zu0Fzi069NOXGNWnQfo1YsWJxvh0Bim0STZGOGjUqxYwVk5Inc2XFGmVmjiNlpvDwyE25cuYIWnbX/ObLm4ceaAIbCrI14K9cmVIUL15c/p05szu5urqS3/nz/Nuc2LFjsWn8zt27LMSRnjhaJ0VekAfkDW6JEyXifOE3FPhjx0/y/sSMGdJzOPjs0K7NJwKqoKcnDRrQl7cMQCFG+mrWqErazJ3DATD3a7Nkqli+LCVIEJ/dTEFaMqRPx1sPANKDdgW0WTp/KqC0qzpMlTIFt+Hr129yuap0t2/bmlJq90CiRAl5cLMG4jZPLy+TafVYrkxpYzmbYq1M8ekIKKP06dIZ2x8+K2sDICYzWNIQ/pugHfw55leaPWMK/+7UpQelTOdOP/08gE9wmmJLdkDWrlq9jts9lofhB1ezpo24H69Zt4GSaX29eNEidOiID7e7e/fua3L1Avfxk6fP8KEQKGQ7d++m0iVLGPucKThgcvqMn9bfWrE8BUgH4oVyB8qXK0PNmzWm/gOHUscu3bUBPD799GN37iv2nkc+lq34lzJrisb3Hdoa+yL6miXZaw7iQP9XMgefkHGWlAgchMESaNtWLXkcBAkTJqBuXTrxHkDT/X/Alhyyhr3x1pSoXK8xud6x3ArwHMoJchL7DqNFi84XviMtuB+S8adqlYr0Y/eu5JYxA8tulA9kNMoB5QGuXLlKvseOsYyErDTHUVnmqK6BNqrSncktI6VLm5bvf+uE6yldFFYRr8LkvXkdnT52mL5v35a19joNm/Lg6yg3b9/igTNB/AS6S1AFJ3VNwpv8nz1/Qe6Z3LRO6sEzRcwGMDusWb2aJkyK8owR6/TbvHfwPpR06T6tvPdap37x8pXWGDdRngJelMPDk68uPXqxRemDdgFY80ppCuOWbdt51qgUEUeeRz6gyEDYhDeOlNmXpFKF8lRUaws4SVywSElavGQ515Mt0FlBWm2Gbgp+WxNQphQvVoSFwJat2/m3j89RbnewjloDyjlmtMVKlaeadRvSxMnTjLNMR7GWbnuYp/fY8RP0/Plzq+kNTZmaA6W5b79B5OlVgpo0b01LtBm4IGAwrF2zOlttDuzZzha/aTNmU7vvOzvcxrCJH3ty06ROrSlHH/eDxdaUhaSaYnDN/zr34+pVK3M7vHrtGlu2YLWqV6cWvdHigUXm8pUrrOxU1hQGSyA9CKdZi7ZGueup9YdDh4/Q+w9BchtKws99elGSpEn4DQe/jhjKShiw97zKR+LEiY2TwfACsuOpplxlyeKuuwSBwx04RIPy+ZKg3Hp0+0FTuK5RzrwFqUHj77j8lOXVGp87/kDmvX7zWqsDH/69acs2NgxARlojLGSZpXQ7E+Gq8JmSKlVKGqV1slEjhtFFrWIuaR04LFHLupitnTp9loVJXm32iQZy+swZraOc53uVK1W02WmraPdxGk1dB/bsoF3em3gmCjADRcNCg4cCab7h097z/1UwK16yaC5t3biW8ufPS5269qAadRpYXeYPCzDbrFOrBq3bsJEVPVgUMAGwtCQAYHmuUbs+rVq7njq0a81WCXR+KOxfApVe7x07uVyQXliMraX3c8sU1sRylarR6bNnqfeP3alh/brBBmZBwKQ9a5bMNGPqRN5mcfTYCW1SZHuiFVJgSYMVC2Fj6RYWQ6zMYBIPSz7ckydLxst+1oAyMXXyeKPc3b5lA5054UPft2uj+yDy979Bt2/fZgVv7979wZQWR57/r4Kl7pNHD/KSLJbqy1euTqN++8Ou0vc5QOZhZWP5in9Y2YaBBW/3sGThBSLLHOOLKXwKzN4wa8B+KUdJlSIlz/LQWRUwCcN0DVMrTqgCWBOxvLVqzVpWAGEtwetBECfMyM+1Z4p4FWK/5mD2hOVENGiEB5O7utSyKZS738eOZwvdhHF/0IqV/2qD8nqHn0c+YBp/ZOOFljitGhYdydEy+5KgDPBaB+xhWbViCVuwfI4Gf5+gKWoJ5MTJ0/yp8Dt3nvepwfxvD8wUscS0YeNm2rf/oNUlAQBhgWX6IQN+pu+aNuZnYdnAYBASrKXbEbCn6MaNm7y0sHP3HrZ0WEsvsFWmaEcfPnzg75bA4IolYexNbVCvDue3VvVq+l1B+AgUv8iRIlPkKJEpmtmbAKyhZKLfuXPB3teHJVqcgk2XNg0vDSZNmoQKFsjPsnTfgYO8jQJ9DvL84OEjtHnrNl4KRFiWQH/78OE97+E1lbu4MA4AxIm9WVgWHti/D/05bgJv8QH2nlf5uHfvHr2w8eJdZU38HJCWeHHj0uEjPsHGAexDg6KK8exrgHqqVaOapgyv5a1aS5attLlK97njD2Re40b1WdnHadlLly7x3ntrhJUss5RuZyLcFD6s989bsIj/uwaWyXCtWbteU5jG8ewtk1vwY+i2wCAN0ElhvcB+ucnTZvKyLQZk1akxE8U+ALwXCJv20XkgTDK7u/Mm4exZs1hczgVoYNhvh0Mmf42fyAICID4IHcQJgbR4yTIa2K8PNWpQj5o2aUj9BgzWGshVh55X+ej240/8dnWUCd5gDyUVAjVq1Ci8aRRKB/xjKXrxshX8jALWSSiQV6/687F9CAJLG6odLbMvBZZrYEGDtQwXfmPfB/ICYEmDQDt79lxQewm4wzN9WGgnTZlOJ0+d5qXVvfv209jxE7QBoCjXtz0yaO0Blt5BQ4drg0h0m0sCLlFduB5wQAPCFq+nmD13AS/3hASku1BBTxo3YRIfwkB+0C5wyMIeyBP2iv48cLAmFOOw5c4atso0itaWUJ5bvXfgJD6X54RJU4Ltn4UQhx+0X+QXivSsOfP0u0FgsvT27Vt+Hm1IcH6gjGF7AGQT2i7azNz5C3kDfJHChcjVwffF8aDdsB63r+kzZrOcglwcMWoM9636dWvrci8qValckeUd9q9mz5aVn8cebGzRweEOa8u5AP3Ns0AB+nnAEH7NBvoCJueQsegTaNszZs2hU6fOUN/ePdlqh0MG2JMI2WjveZUPLCv3+RkH94LKBSs9eFF85MhaHqJE5a0YUIKg2Cxf+S9t375LT2EQGI8Q1rETJ40yzny7SOpUqXhPGw43QHbgPvrlgMHDKIsmGwpo6f6SIH7IQ7V/D7IQ9YkVOyzNK2UY9YlyQVuBUSMsxh9YFhMnTsR5x0GQ3DYsvI7IMkeoXq0yK47DRo7m5XPkB3WJ1UFnINwUPnSaBYsW83/XyJozL1/ftWrHG0thGra0Cd0aGACxpIAN7Dj4gTe+j9SERv+ff2JLjAJhwgyMClcDOzpY6VIluOHaXc7VhM7I4UPor/9NpLRuWSlB0lQc37Tps3jz7rDho/hkF2agCLdH187ccIcN/5UFhK3ngcrH5ctXeY8YygT7DU6fPssNtm2rFnTz1k0qVLRUUB5Hj6GqWppNgdBo3qyJNjv15bfge5Uow43cHEfL7Euxd98Byp6nACVOnpavbj1/on59evFpLFBCm8FjAy02VKNcRv8+lst24rg/tQEmCRUvXYGSpEhHVWvWo/z58tK4sWMcsryhvhtqyjn2xsBKYG1JABQt4sWnz4aNGEUJXVNT4eJlKG7cOA6felUg3ZMnjOW2jv11yA/yW65sad2HdZCnJo0bcHoxo7aVXltlWsjTk/sC6jxZqgzkobWV6JoyiMM1CghevCMTL7xGfhs3a8mbmmE1VCDNEOj4Tzk7tAFZcH4w4I0c/Tv/dw20XbQxtC1spP999EiWfY4CizW28UAm4uAH5CIG0En/G2s8EAVgpYbFPmOGDKz0ACzrwQroljGjzeVc1d8gJ0qXr8J9IWnKdFSuUnWeEMOSB8UDsi+rNumH/wE/9zG+cQGy19bzAPkYM2oErxSpcqlcrTbdDgjgCRb2duNfSbpny8P/TWrtug1UunQJflYBxRKWJyyH4vnO3X7ksjYFZTtkYH/ul/hvF5B5hYuVZsVq7sypxgnyl+KdNo7DWJIuUzYez1CHsD4OHzqQyxHphczEsmuJMhW5rRw8fCRMxh/IHchAKNXVqla2Ke8dkWWOANmJw0o4MIJxGPnBf6/CXmlnIBLe0XJBU0BymG0SDSsw21EbNGNqFfY5x5uhRGJpAP/WB4pPeG2ghfL26PEj+vDBwKZnNOyQYO95KKRoxFgCSJQwYbBGqcrLXrwoC8y2cFLMFl+qzBzBtFyspQVWALw8Wp22UmCG+UqbwYWmDWGm3LLN9/y6nIKe+XVX6yCuwLeBn9RNaFAz4/A61m+rTFXdA2t5UW0RYB8VLC7Ct8P+/b7k5RU+Vh/V50Bo5KApqp0CnII0799hhUpzlCiRQ9V/7T2v+lSUyFE+6S/qWXtyVlnK7cliNRZEc3H56n1TpcVauUCOwA/aiGk6P3f8wUEhrOhsXPsPLwXbIixlmUp33LhxQ5zmiAJkQ7xEcck9Y3puQyDcFT5B+JpgoGn3/Q/07NlzWjhvpkNWQUH4VghPhU8QviZYCq7XqBm/WeO3X4fLZDSEWFL4vvihDUH4EsBSCPO+e/bctHrtel5yEWVPEAQhYoN9kJWq1ebXwGDZHUvAouyFDWLhE5wS7NnEKx2wtwR7Z9T7EgXBmRALn+Bs4PDF7r37+NR0/vz5+LS0EHJkSVcQBMGJEIVPEARLyJKuIAiCIAjCfxBR+ARBEARBEJwcUfgEQRAEQRCcHFH4BEEQBEEQnBxR+ARBEARBEJwcUfgEQRAEQRCcHFH4BEEQBEEQnJwvrvDt2Lmbcnh48qcjqP+YgAvfIwoBd+7y/2iNSGkSBEEIb/A/S0+dPsP/JB/fvwQhHTcU6r829Bs4RHexz6w586lIibJ05qyf7vL1efbsGW3Z5s0vkg9vImL+FV8zbYgbbTCi6SIh4YsrfHiL9s2bt/jTESBQ7ty9x9eXEi6OMHrMn1SvYTPatXuv7iIIguD83H/wgFq0bk9t2ndiufwlCOm4ocA/7b9x8yb/I3xHefr0KV25eo0CAwN1l6/PoiXLqH6j72j+gr91l/AjIuZf8TXThrjRBiOaLhISZEk3lPTp3ZOWL1lAJYoX1V0EQRCcnySJE9PcWdNo5rRJlMw1qe4qhCdNGtanZYvn03fNGusughBywl3he/v2HR09dpy8t++khw+tz7JevHhBe/buZ39Pnz7TXYOD2dq58xdo46YtdPde8Jnl6zdv2A3xKd6/f88mfYRtCvwhDIQFP0+ePOXLFISH9ODCd1wIC/5B3DixKXeunOTiEo1/Iw7kD5o//Pr4HrOaF0fiFwRB+NIomWkujyDXIN+UjEuZIgW5u7npd4Pu+1+/TuvWb2TZBxkIrMlghK/CUsAN8hZhwIqjZG1IUOnYuHkrh/HBShgYJ/z8znFc8G+aDlPMZbUiJPmyN5YA03ESYwZ+w48az1yiRaNcOXNS7Nix+bdpGCovlsZFYC9sW1jLP0AeEQ7ChZ+AgDuflCPiw31cKBdz4IZ7qmzMMS0787K2hQoXl/kYHJKycxRVTrbak/KDNGFJGG0FW8Ms5TvcwP/SPeV3Xktf2OPvf91QqFhpQ/wkKY2Xp1cJ/tywcTP7+fDhg2H6zDmGJCnSGlKkzcRXQtfUhhmz5vL958+fG6rUqGvIksPDkD1PgWBh/T52nOHt27fsD+ElT+Nm0Bo2/wa3A+4Ycnh4GsaOm8C/AwPfGn77469gYRQqWor9dPihK/sBO3ftMWTMnNPoJ3WGLIZylaqxP4QJEKZpfPiNNHbo1JXTr55N65bVcPzESfbjaPyCIAiOsG+fj/4tbHj16pWhTv0mhrIVqxq0AUl3NRju3L3LsrtXn36GZ8+esUzGBfkMudajVx+WZ+kyZWNZnie/Fz9jLoMVkHfqeW0gNzRq1jKYXMQFWYr0AMh3uKlxwxKm6VBXzrwFDUlTpgsmX0+cPGXwKODFclrJ+Rat23NaANKaOHlaQ5ESZYOFVbNuQ4OmKLAfR/IFHBlL/M6dN46LuFB+VWvWDTa+mOdfjXeduvQwJEud0fgs8rR+wyb2AxwJ2xxH8q8pL5+M7bhGjhrDYzpYvWYdx4cL7QL3N2/dxvdQV4OGDmc31WaQpq3e2/k+8D16LFjZwQ/q01baTcM1vTDu4h5wtOzMQbnAn2n9WmpzuOo2aBqs/6xaszaYXpDePTtf+G6rTX8OkA3Q7aDjKcLNwvfu3Tsa8stI0gqG9uzYQo/v3aRb1y5Q1SqVdB9BHD7iy/7+HDOKbl49T9cv+1G3Lp1IU+bomr+/7osoqosLLZo3ix7dvUEB1y/R9+3b0ohfx9CBg4d1H/bZs3cf770b1L8vPQjw52vo4AH04MHHjbDQ/H/qN5CyZ89KV86f5nTv2bHZ6gzQFKztZ8rkRlcvnOHnVq9cSprAYo0eOBK/IAjC1yJGjBjUsEFd0pQi0pQF3ZX4963bAVS/bh2KFCmS7hrE3n37af7Cv2nxwrks++7dusYyM3GiRLoP20SLFo1G/jKEAm5cZrkJGQ8Z+e/qtSHanL967TqaM28h/fXHaKN8/X30SIoSJaruI8jipA3QlNcjD924co4unTvJchoWQVwKWH/atGrBeUF6MPbs23+AtEFf92EfR8YS7EkcPHQ4x+d7aC/7OXfqGC+b2wNji4s2Lp7wPcDPHdq3k1yTJqFVWjmAzwnbXv7jxolDixfM5vsIF59NGjWgeVo7uK21ExwuGTFqDDVr0lgbry9zu0D9Fi8WtAUKdTVz9jxauXQR37t++RyVL1uGfh39O9cRrt59+1OGDOnozPEjxrTnz+vBz1sD4Y6fMDnYGIvvGHe3bvPWfdkvO0dBu8dhDheXqPRj967c3tDucaBzpJYX1DX0mD79BpGmCFONalV5O0TL5s0+saJ/CcJN4cNGWZhhG9arSzlzZGe3WLFiUSHPAvxdsWLlv+SuKUnVq1ZhQRIlShTte2W+9+jRY/4E6dKmpUxuGdkPhNL37VtT0iRJaPuOXboP+8CcmlSr1EYN6nE8uPLkzkWJE38UTKdPn6VzmqBr36YVJUyYgN04bi2N9kC6ypUpRfHixeXfmTO7k6urK/mdDxKcjsQvCILwNSlUsIAmkxLTJl0BwqC18p/VlDWLu3ZlZjdTYsSITlGjulBAQAArCiCOphBAvjlC1KhRKUP6dBQjenT+DRlfqmRx/n7XwUMhMDCsWr2O5WmtGtWtylffo8fo9Bk/at+2FY9HIF/ePOSRJzddv36DfwPIcrhjIEd6KpQvS5UqVNCUnoP0+PET3ZdtHBlLrvlf59POTRo3oIwZ0rNbokQJOT2OUKlCOU1RCdpHmSplCnJzc9PycZOXPz8nbHv5x/306dLxfYDPyhXL8z0sXUaJHIVixoypjeGPjCdaUb+4sIS5ZOlyKlOqJKk98Aivft1avMT5UlPGzpw9S8eOn9TqqTWl1PIF7KVdtQH4ad2yubENNGvaiPO/Zt2GYMq2rbJzBORr1Zq1/B0K3IB+P1Hb1i3ol6ED2Q3jPZT+s2fPsRKcIkVyGjViKNWsXpU6tGtjzNeXJNwUPlT802fPKIsmJGzx5NlTOn7iJHmVKMNHnnE1aNyctV9oxNaIGzcud6Kbt2/pLvZBXOhwSiGzBGZF0bVGmSpVSt0l7HAkfkEQhK9J2jRpqFqVSuS9YyfLcezN2r13HzXQJu+WZFf+fPmoccN61P3HPiy/x/1vEr9GJCRgoId1p1ip8lSzbkOaOHkaD+CO8kZTImBVSpM6taZsBu1zswTkO6w7zVq0NY43nkVK0iFNMXr/wfJ+PwClNEXyZDyAO7rnypGxBGl5/foNZc6USXcJO8IybEv5v3DxEvXtN4g8vUpQk+atacnylewOEiSITz27daZ1GzZSxiw5qVOXHuwfvNfq9cXLV7Rh0ybKU8DLWA9devTiCQP2XSqlOm2a1PzpCNbaQGxNsU+qKXZQgMPydSpPnz2nS5ev8Pfs2bKxYgygXKK87ty9S7du3TZayjNmyEDx48fj71+LCHFKN38+D1q3agVt27SOrz07t9KxI/t4k2pY8/jxY+xb1H9ZBg3HfKNnWOFI/IIgCF8LDFxYur167Zo2WJ2jY8dP8OS7YoWyuo/gwLrzx2+/0pEDu9m69utvf1DRkuXp4qXLug/bYFCsUbs+rVq7njq0a83WGVg/lLUwrIE1aerk8cbxZvuWDXTmhA99366N7iPscHQsuR+O23rCI2ws8ZerVI1Onz1LvX/sTg3r1/1E0a5erQovw/726wjaf+AgFSpaihYvWa7fJapSqaKxDnAd2LODdnlvomTJXHUfEZvIkSNRVH27gKkiCSUbbRfWRSh+8ePHZ/cHDx582QMaFgg3hQ8afry4cenwER+b+99SpUjJs7uYWidMrlW0umBqVeZiS9zVnrkdEEBZM39cYkA8tqyC8Hv5yhU6f/6C7vIpybVZDAQC9qXYSndocCR+QRCEr02O7FnZarFuwyZavvJfKlm8GFv+rAElEVtusGS1V5uwYwBUS8LAlvUMSsP5CxdpyICf6bumjXnJq27tmiyHHQWWNOydgoJq6517GJc+aGkJfBMYbLzBpU7AWgLWOiiwWKHBGxoUtvLlyFiSzNWVkiRJTDt37Xbo1GxICMuwzfO/e88+Cgx8S78MGUgN6tXhOqtVvZru+yNYhm3Vohkd2reLKleqQH8vXaYpQx+4rqCIIizTOsA2LShKqCdw4uRp/nQEa20ACjdOzqZLm8a4jB8WxIsXjzK7By3PY6uAskijLaO+U6dKycu4ObJno2jRXNgdbQE8efKEXr8K2Tslw4JwU/hSp0rF6/4LFi2hJUtXsFKHt7PPmjNP9xFE9WqV6f79BzRo6HDjsWisoWNGYLqWjgKF4MFsEEfEe/7Uj7VrrMODKFGjcKPc6r2DLWhYhpgwaQr7V0CIwNzboEkLXjKYMWsu1arXiG7cuKn7gKDLzg14zJ/jqFvPn2jp8pX8klHTmUlocSR+QRCErw2UHwzi06bPovUbN1Od2jWMS1bmYOkKS1tQKjDQ+ftfp+ea7MbSlrKCbNm6nZcDIdMhx7dv/7j32iWqC4eNAxp4Hi+3nT13AS9JKiDfwU1NnlvaYwVLCvaAQSnBBn3sx8M1Z96CYGNArpw5yLNAAfp5wBB+VQksMUg3xiZYNBWIG2lAvvD8H2PH8xI3ZDjKxpF8OTKWQCls26oFrVqzjpq3bsd+4HfEqN90H6Hnc8K2l38oThhvL1+5ynWGZUvTsR33UJ+qrrDUinBSpUxJcePG4brCGP/X+IlGCyhepYI9h7CCoZ4KFfSkcRMm8QEI6A/wv+KfVezXEmgD2FqANE2fMZsnHQgbh0fQpurXrW21DTsCDnkAKG3tO3XlbQutWnyntYXInK6mzVtz/fYfFPRfXZo1acQKKA4INW7YgI1RzVu1pwRJU7G18/6DB+zvSxJuCh8Kf9jgAVRRU/q+79yNsubMS7XqNuJNtKYzN/yePWMKn5DKnN2DCyNV+sw0eNgIeqPNwhRly5Tihps9TwEuLHTQKZPGUdasWfh+IU9PKlemNI3UKjdZqgzk4VmEokeLzgcnFGnSpKZ/lv9N2Cg6aep07qC9enRlLRxCB8CqOHrkMOr704/8XzTG/PEXFSlSmE/XoIOjo4cWR+IXBEGICGAJN1HiRGztK6gpSda4ePESFS5WipKmTEcJXVNT7fqN6bumjahc2TJsscFG9gMHD5F7tjws29eu20ClS5fQnyYqWsSLrUDDRozi5wsXL8NKATb9K7ARH+89/fGnn2n6zDm6a3CqVK5II4cPoXkLFlGufIV4f9hdTRnFGKOAsjJ5wlhydU1CpctXocTJ03K6y1WqzhvrFTiQED16NN6fhjEHSlvXzh3ZAgkcyZcjYwkUkM6dOvDJYpTjyFG/s3Wrc6fvjUuCoeVzwraXfyh+ZUuX4n8zhjpr3KwlH3pAuODly1f0Q9eeXC4Y0zH+Q7n+WSsLpEvV1V//m0hp3bKyH+z1wwQDqHrCYQr8Rys8D2W1XNnSfN8alSqWp1EjhnG4KdO5c9gYZyf9b6zxIFBoqVGtilHfwIEcKLqIb8yoEazTbNqyjXUUWDB7dOvMBzMA2sGvWl67d/2By7VwoYI0Y+pEHvdRFiGxZH8ukfCOlguXr1IOO4crPgdo+VDecMjCmoaNxgAzLAoLy7vWNjciLJziSZQwobFxKVQYwNJ9S2BWV7FKLerYoS1XiCVgqm3drhPPUpYumsuNMaxwJH5BEARL7N/vS15e+fRfXw9T+Y1lOnMZiUN4r16/ZoVDncY1B34C3wY6LLutAYvd4yePKUH8BDzYWkOlKUqUyFbjRFiPHj/i5TtL6XYkX6Y4Opb8MmI0LVm+grZuXMtLnWFJSMK2lX8oPOpNGtbGdlU+0VxcLPpR4X/4YLDYbgDCACE58KDCBQkTJLTZDkIKLIeYjJjmxTQfjrQF7IutXL0Ot7mNa/8xvskkLIFsiJcoLrlnTM/lD77IoQ1UItbyrSl7ABnHrAkN0FbFIiy1zm+OCsPafQgl02UC/MbrBp48fUpFvArrrkEVisas8Dl6jHbu3k3Fi3pZ7aCO4Gj8giAI3xKm8tuSjIRMxz1bAyH8WJPdIQGDO8KxN8irNNmKE2FgP7m1dNvLlyNjCcYEjAUKLEn+u3oNv8IsyWe+sutzw7aVf4znGNdtje2qfKz5UeFbazcAYeAKCSpce2cBQgOWs83zYpoP87JCG8DKI97Zd/asHy9b9xs4lOumWJHCvPf1S/FFLHwRBewDwMki7BXAbAOzE1TG8KGD6IeO7Y2ViCXopctW8mmht4Fvea0dy8Wzpk/+rFeqOBq/IAiCI0QUC59gGUfGEuxjwz8fgLIAME5g6XDZonm8DehzCM+wBcfAGI+9e9iLaEpm90w0f84MymKy7SwssWTh+08pfACbOI/4+NKz588pqjarw94Q8/ckwTx76vRp8tdfxInTPdhE+rkzT+BI/IIgCI4gCl/ExpGxBBY4HDZR72tLmiQxHywJC8tUeIYtOI55PeD9gjlz5AjXehCFTxAEwYkQhU8QBEtYUvgixIuXBUEQBEEQhPBDFD5BEARBEAQnRxQ+QRAEQRAEJ0cUPkEQBEEQBCdHFD5BEARBEAQnRxQ+QRAEQRAEJ0cUPkEQBEEQBCdHFD5BEATByL3796lStdqUw8OTduzcrbt+GRAf4kX8SIcgCGGHKHyCIAiCkffvP9CNmzfp5s1b9Pr1a931y4D4EC/iRzoEQQg7ROETBEEQBEFwckThEwRBEBwC/xt23/4DtGrNOv7Eb/DixQv+x/xYhsX/DVVYcrcWhiAI4YsofIIgCIJdjh47Tllz5qUqNepSi9bt+bN4mQp0/foNOn3Gj3LnK0jZcuWnw0d82L/BYKAhv4zkZ/r2G8S/bYUhCEL4IgqfIAiCYBNY6Dp26UGPHj+mUSOH0dHD+6h+3drk53eOJkyaSrlz5aDiRYvSu3fv6MDBw/zMw0ePaPeeffy9SuWK/KytMARBCF9E4RMEQRBscuz4CVbMypUpRS2bN6MM6dNRxw5tKUaMGHTqzFlerq1WtTL73bJtOy/lXrhwkS5eukyZ3TNR8WJF7IaBZwRBCD9E4RMEQRBscvr0Wf7cvNWbkqfOSAmSpqIyFaoGO8VbpnQJSpEiOZ05e5Zu3LzFlj5Y/EqXLEGuSZM6FIYgCOGHKHyCIAiCTVxcXPjTq3AhmjtrWrBr6KD+FDt2bEqbJg0rd48ePdaUvUO8nBstmgvVrVOLn3UkDEEQwg9R+ARBEASb5MiejSJFikQPHjzQFLaCVLN6VeNVIH9e9oP7dWrX4M+p02fREV9f8ixQQHs2K993JAxBEMIPUfgEQRAEI5EjR6KoUaLy9+4//kSLlyynfHk9KH8+Dzp/4SIvw3bu9iN16/kTtWr7Pf08YAj7BQU1BQ/+zpz1oydPnrIypyx3joQRJWoU/rxx4ya1bN2e/M6d59+CIHw+ovAJgiAIRpImSUJtW7fg73iH3oOHDylevLg0a/pkKuiZn5WxBYsW09z5C+mfVWsoVsyY7BfAX7kypfl7MldXqlC+DH8HjoRRyNPT+DwOcmAPoCAIYUOkN4GBhguXr1KOLO66kyAIgvAtsH+/L3l55dN/hS14ITLenYd9eKbAcvfq9Wu2BCZMkJBcXIKsgSHBXhivXr3S4o1GUaIEWfwEQQgZkA3xEsUl94zpKZq+f1YsfIIgCMInQAkzV/ZA/PjxKHkyVz55GxplD9gLI2bMmKLsCUIYIwqfIAiCIAiCkyMKnyAIgiAIgpMjCp8gCIIgCIKTIwqfIAiCIAiCkyMKnyAIgiAIgpMjCp8gCIIgCIKTIwqfIAiCIAiCkyMKnyAIgiAIgpNj/E8bTx8+050EQRAEQRCEbxnz/7Qh/1pNEAThGyU8/7WaIAjfLvKv1QRBEARBEP6DiMInCIIgCILg5IjCJwiCIAiC4OSIwicIgiAIguDkiMInCIIgCILg5IjCJwiCIAiC4OSIwicIgiAIguDkiMInCIIgCILg5IjCJwiCIAiC4OSEu8JnMBgoIOAObdy0hc6e9aMXL17odwRLPHv2jLZs86YHDx/qLuHHrDnzqUiJsnRGqxdrvH//ng4cPGTTT0QDbe7U6TN08PAR/v65oAyuXL1GGzdvpUuXr9DrN2/0O4IlvsU2I3zK12z3jsimb5UvKeN37NxNOTw8+dMaYS0vhYhLuCp8/tevU8WqNSlrrnzUqFlL8tI6cKr0mal33/66j/82R3yO8mXKoiXLqH6j72j+gr91l/Dj6dOnLNADAwN1l085d/4CNWzaQquzAQ4p648ePabNW73582tx/8EDatG6PbVp34nu3L2nu4YO36PHqEDh4pTXswg10sohf6FilDx1Rpo+c47u48vn+fvO3ShB0lSfXDnzFqSAO3d1X18GtI89e/fTu3fvdJeQtxkh4uFIuw9PHJFN3wKW+seXlPGvX7+mmzdv8ac1QiovI4KMV1gaQwXrhJvChwb2kybw/f2v04qlC+lBgD8F3LhM+3dto+pVq+i+/ru8fPmSfhk5imbMDi5AmzSsT8sWz6fvmjXWXb4uWTK705KFc2nMqOEUO3Zs3dU6R3x9qXW7jnTN3193+fIkSZyY5s6aRjOnTaJkrkl115Bz7/596tS1J0WPHp327txKj+7eoJtXz9O2TeuoQP68uq+vk+fkyZPRnh1byO/UUeO1fct6Spokse7jyzBh0lT69bc/6I2J9SekbUaIWDja7gX7WOofEU3Gh1ReRgQZD6yNoYJ1wk3he/zkKZ06c5aqVqlEZUuXoihRolAMTYBky5aVShQvqvsKQi0drFu/kWdE+G0OLAWYKXlv36nN/p7prrZ5+PAR+8dzajkCJmu44zI1XyP8u/fu0du3H2dilp43RYUFq4oKT7k90fJvCsKHIFV5g793797Tq5ev+Hl1zyVaNMqVM+cnA6XKP5bGkU5T8ByeRxoRrlpCt1aWlsCzPr7HLJavm1tGSpUypf4rKD6EvWrNOvLzOxeszN5recJsFssVyBfSrcBzqp6PHjse7DkAv6occY/z9PoNf5qXpypn5d+clClSkLubG39XflVa8B35tJQGUzAzvnbNn1q3bE45smejSJEicb3kz+dBeT3y6L4cz7N5faDMVb2jzB1JkyJq1KiUJEkSSp7M1Xgl1X6jnyFc87aMOBCXSpv67WibQfmbtlPF23dvKTDwDVsGTOM0bzMA99Be0G7M4wlJHSHNqi8g3ZbqXwg9jrZ7oOoU7RsrOqZ1YdqfbckXoOoUl2n/sYdqJ6YyWrUlFbcC4YaFjAcI65O+oIWL8E3DsdQ/vpaMV3VlKXxTeQkQB+oT9Yp6M81TRJHxcLM0hirwHOrWWpv7T/ImMNBwyu+8VnZhy527dw158nsZKlWrbdAqUnf9FE24GMpXrm6InySlwS1LLv4sU6Gq4XbAHb7/4cMHw/SZcwxJUqQ1pEibia+ErqkNM2bN5fuWCAx8axg0dDiHlS5TNn42eRo3w1bv7RzeX+MnGpKlzmjYt/8A+0f6kM5a9RoZnj9/bvN5hTa7MaZbXWPHTeDnq9Soa+jwQ1fdZxC4l8PDk/OlzfqCPYdL3duwcTP/xicwzb+p/46duxu0zsN+8Byeb9mmg8HTq0Qwfz169TG8ffuW/ZmDNCVOntbQvFW7YOGndctqOH7iJPtRYav8oKzqNmjK/jJmzsl1UaNOA8PVa9e4vlUY6kIcwLSe1YXnd+7aw/cB/CL98xf+bUidIQuX+YGDhw116jcxlK1YNVg7QvuC3159+nEZmaLqABe+q9/VatXjejZNg6pzS5w8ddqQKn1mLmu0CXNUGzcND5elPFtq26jjpCnTGRo1axns+ULFShv8/a+zH0ugLlR7sQTCRdlpAld3+ViPKm2OthlNaBpatG4f7D7i37x1WzA3XCpO8zYDTpw8ZfAoELysEK/fuSDZ42gd+R49Zmx3+MR99Kf/Kvv2+ejfwg577V6h6tS0LtBWVF2hrWXJ4WHo0Kkr+1H1aSpfgKpTdR+yKGfegp+0YVO+powH+DTvg0grwkD/s9U/vqSMV3HhOchU9QzqY/2GTexH9T0lL1E2CBP+VNlAzp0+ezbCyHhbY6hp3Zpev/3xl8327GxANkC3g46nCDeFT3U6FDQGO3x/8OChfjcINNLW7TpyRQfcCeo42oyFhcSvo3/n3wcPHWHhM2/BIg5Tm1kYhvwy0pA1Vz5WMiyxfOW//Mw27x38+9WrV4bvWrYzNig0anT80uWrcJqQtkxZcxvOnvVj/448j86Bxg9hhTShIaFzqnu2FD74gVDNkjMvK1tw02ZcHI65MED+oRR07vYjpwNlsOKfVayo/W/iFPajhEGhoqVYCCMclWZzoWQK0pQgaSrDmD/HGTsaOifiU51Yha3yM2vOfBbYiAcgPc+ePeO6RB6GjxzNghaCE88ir6qe8dyBQ4f5OSgSGNzRoSEoAOJE3lE3W7Z5G27dus1lumTZCk4TykKB+xAW+w8c1F0+oupACTD1G+0Kz6GuVDtSQtgS8Ne1R29OEwa2hX8vMQpggDDs5dlW21Z1jXSocI8dP8H9pUnz1oZXr1+zmzmoC7QdtCHEh0u1H4BwzfMFP6hH83q11WaQB7Q71NvGzVuN5Yb6RtouXb5iKFepGl/4DgENPyps1WbQtlAO+QoWZX8An/itBmBH6ghx1m/ULJgCCH+mdfJfIzwUPnvtHqg6bdX2e+M9yA70A8hP4Ih8UeHgUnIAMhmKo62++TVlPED6VT9RIK1IM/qfrf7xJWW8iqtbz584fqDkkOqfKq9KXm7fsYuVvA2btvB9gD7/5s2bCCXjrY2hqFu0uz/GjuffuPAd5amU3P8ClhS+cFvSxTJA184daf3qFZQ2bRoaPGwEZcySk5q1bEtaJbMfrROQ946d1L5ta0rm6spu7pncqHixonRV3x+wYuW/7IZ9fwgTS1bVq1bme5Y2jcL0vGTpcipTqiSppeMYMWJQ/bq12Oz78tUrNqUPHdRfi/8ytenQicaOn0DDhw2irFmzOPS81tDo4KHD1K1LJ17iQJpcXKJSrFix2L89ED+W47AsFzNWzGDLceZs2ryVEiZISD/26MLpQBlUqVSBShYvRlqHDGZO9/DITbly5ghaPtf85subhzRhRwEBAbqPT4G/cmVKUbx4cfl35szu5KrVhd/58/zbnNixY5EmtEgTHmxSR3rixInDeUEekDe4JU6UiPOF3zdu3uSliratWlIhzwIcTsKECbj8Ll66TNpsn91AzJgxafCAn7U0laYUKZJzmRYqWIASJ07MZQEQL77nyJ6VsmfLxm6O4ObmRl6FCnJdoYyQFk1o8vKIJeDvzzG/0uwZU/h3py49KGU6d/rp5wF80g5hWMuzI21bgXSotpMndy5q8V1TOnLE12a9Ic3FSpWnrDnz8qUNbHTv/gP9ruPYajOot81btlGj+vWoYvmyxnJDfWN7Bvb7RIsWnS98d02alP2Yc+bsWTp2/CT16d2TMmZIz2747NCuDWmze7pw8RK7AVt1FJXTGJPLXhuU2T/8OdrvBMew1+4BDnWcPuOnte9WxvJH2/HIk5uuX7/Bv4E9+aLaBvpJypQp2C1RooQcjjW+BRkfkv4R3jIeVKpQjuMHqbRyRj+7fv1msLAVMWJE1+S5C4eplkjR56NFixZhZDzitDSG4rlVq9dx+8GWBJQTrmZNG7HMWbNuA/v5rxKup3TRKIp4FSbvzevo9LHD9H37tqRp2FSnYVNeb4cgx/o9BIk2S+ELJw3/Xb2G9wmgYp48e8qNxatEGaOfBo2bs8DXZkJ6TB95/+4dvXj5SusomyhPAS/jM1169OLG+0FvwLlz5dQaXT/SZjPaYFaO6tSqye6OPP/48RPew5AieTJ+Jjy5efsWC8IE8RPoLkHCKalrEt40++y54/tdwoJKFcpTUa1O6zVsRgWLlKTFS5bbPAEGUF5PtYEiSxZ33SUIbBbGxnDsQ7FF2jRpqFqVSqxAISzev6IJgwb16hoHkvACwqJ2zerke2gvHdiznerWrknTZsymdt93tplvR9q2NVKnTsXlhbxaw/zQRngc2FD1BqH8Oah8pE2Tmj8V+G1L4TYHwr1Htx/oypVrXJYNGn/HJ/T+ywI8vLDX7nGh7pq1aGts356aPDh0+Ai9/+DYnjJgrW3YQmR8+JI/Xz5q3LAedf+xD5fLuP9NMir61lCy4mvLeByOwd7CNKlTa0rqxz2SsTWlMqmm8F7zv86HPf6rhKvCZ0qqVClp1Iih2jWMLmoz+kua1q8YNXwYnwBT18mjh+n30SNZYQTYLLxu1Qrj/T07t9KxI/t446s1qlSqGCzMA3t20C7vTZRMmwkAbBhVs46Dh47Q7YAgq6PC3vP/VdD5liyaS1s3rqX8+fNSp649qEadBrxBNrxAO6hftw5bgo4dP8HX28BAqlC+jO4j/EEasmbJTDOmTqR2bVrS0WMnKOCOfUXFXtsOLeaHNqxZiJ0NWFtOHj1Is6ZPpvsPHlL5ytVp1G9/iNIXTthq91BKpk4eb2zb27dsoDMnfOj7dm34fngjMj58gBXyj99+pSMHdlOtGtX5lHHRkuXZUhdeRAQZ/1/giyl8ChcXFx6sYB5OkCA+xYsblwWIGrjUFT9+PPafKkVKNrPH1ISL6X1r5nHMJmBqxmAQV9PwTZ8xHRQxu4O1Zdrk/2lpcdEGjT9ZQDjyPNKNPPibLF2YY8+K4yjI/+UrV+j27Y/CCmZ4mOPTpU3LafzSoAzweoYpE8bRqhVLuHP6HLX+LiRVz4eP+AQrk9u3A9hSgNd42CN3rhy8VLBm3XpatXYdFS3iRalTpdLvfjkgmCJHikyRo0SmaC7RdNdPcaRtWwLlg2WuJEkSG5eCQwPCsWQBDwkqDzdv3fqstoxwwImTp/lT4XfuPC/vwFoZErAEVKtGNW2QXsvbRpYsW8krBkL4Yd7uUacfPrynwDeBn7RvLLc5irW2YYsII+NNrImfQ0SU8ajvTG4Z2UiDV/PAKqaWWy2hZMXXlvGqbv3OnaOHjz4aIXBKF6eO06VN85/eAhJuCh+WXOctWMT/XQMKG641a9fT72PHUc4c2bTG5MaVWaF8Wd5fsWnLNu6M6EQ41o09FKB6tcp0//4DGjR0uPEoOTrD/gMHLe4/QCfFXgzc/2v8RONxbFigDh4+wvs3UPGDhoygxg0baH5r816PpctX0sp/Vzn0PPZQFC9WhEaM+k17ZjXnDfsSMYCho0SNGkVr+L50/sJF9o8lhcXLVnA4CuzxgHC5etWf84uOYcnUXLNGVf78c9wETgPCmzxtJu3bf4CXWUIiXMOCq9eucV5RT7jwG3tUkBeApQl08LNnzwXVe8AdrueqVSpyGW/13s5LJSirAYOHUZYsmalAgXz8rC1gTahWtTItWLiY92g0blSf6yo8QTvBkjX246k6njt/Ic1b+DcVKVyIXPV3VlnLs722rZg1Zx6/6R7Pzpm3kGbOnkdVK1cKsSKkiKK1P6Rnq/cOHMri9EyYNMW4d9ZRVL0hPVNnzOLnkUb89wPUoRKuN2/e4jLCfUtLP6q/TJoynfOOZ/fu289lU7J4UbYgOQKeQ9xq/x6WFC9fucqrB1iyEcIGR9o96tSzQAH6ecAQfv0G2jbaONoxZIKjIJxCBT1p3IRJLBsQH2Tvin9W6T4+5WvLeADDBfrV7r37ON+wfk3R5DLapMLR/hHRZDz2ZyO9yBeUN7xL97k21qr9txFFxlsaQ/GibixHQy5MnzGbx1TU74hRY7ge0BYwRv9nCa9TujgZZX5EGxfccNxdoTXwT177gCPji/5eyvdxYgmnhUyPlONCOIjDElpjM0yeNuOTY+44RfT0+XM+7o5XX+BUD1Cn0nBySWvoNp9XJydx6sj89RE4Pg5Wr1kX7Fmc0ho2fNQnp6lw4lX5w/F3bTD85AQXwBF/8yP1OPmGdAOEibAtnQy2ddLN0n3zsMx/L1i02JgOlZaJk6dxPQH4r1ilpvF+9x/7sDtOvuFEn+mzXsXLGF/LAeylF6eycTobJ9XuP3igu36K+akz898KS2VtyoWLlwy58hYKlmZcaK9otwprebbXtlX8jb9rxafelB+UE8rLGqgL87ZkCp5Vr87BhbDR/tDmUcbAvF4V5nWAsNp2+MEYFi68RkabbPF97+07g7VNnKyzFDb6i7k8qF2/sfEEsyN1hL6HE3mmYeCUHk5R/lcJj1O6jrZ7S68tQVtTr0JxRL4A83BwqtP0dLYlvraMx2uTEL5yd8uSi1/7gU9TeWKpf5i2aUV4yXhLcZn3NfPfe/bu+6RckG/TtHxtGa+wNIZiLDJ/zQ3a5d9LlhnHqf8Clk7pRsKPC5evUg6zzZZhBaxwatMplmWtLWcpf5EjR+ITS+bLtZhBwkT7/v0Hm+GYghnKo8ePSKtjNouHdKbkyPMq3TBpY8ahUO724kW+MCvEKShbmObfPK4vjWm5WEsLZlYuLtE+qUdVLtG0GTJOcYVktgULb7Wa9ahOrRrU96cfddfwRxNkpA0C/N1WfdrLs3nbxgtQ8S8HFy+YQ+XLleH6jRUzZpjM6FV7AYkSJjQuc4UWWB2wmdpS/jU5wnmEu736VGXpaB+2hCrPKFEih0nevmX27/clLy/71pPQ4Gi7V/4+tz4QDghJu/iaMl49GzVKVJuyzNH+EZFkvGlarJVLRJHx1sZQVT/Akk7h7EA2xEsUl9wzpue6AOGu8AlCWLFk2Qrq238QrV+1gv9jy7eOqcJXqWJ53VUQHCc8Fb7/t3ce8DVebxx/jMQeIWLFDEnsFSP23nuvWkVbLUrVKuWvKEqVatWmtYvae++99xZCYosd5P2/vyf3XG+ue28ScpF4vvm8n5v7nvOe+Zxznvc54wrC+yam9fEfEmsK33vftCEIkWXq9H/4rLkvOnXhoyKyZ89mchEEQRCiO9LHvx/Ewid89OAMJywAxuGlhX0KxZgpPDVN+qGnb4Toi1j4hJhATO3jPyQypSsIghCDEIVPEARryJSuIAiCIAjCJ4gofIIgCIIgCDEcUfgEQRAEQRBiOKLwCYIgCIIgxHBk04YgCEI0RTZtRF/KjQ2kzedCD7ZWaL9n4s9Yna3/PF3Z7PFpU5e3+8lF4dNCNm0IgiAIwkeApbIXEd7mGUFQiMInCIIgCB8IWPXUpVDfA4a6U1bXT+snwQTHIQqfIAiCYJMnwRr53XvJV0DQK9K00PuLjz6hdD9c48/3wcNnIVR9/E2+8P/HyPB1QeQ5yJ/2XnluuvP2BD58RcV/DaCLt1+a7gjCuyEKnyAIgvAGV3UFr+qfNynp936U6Ud/vtLqCl6p3wJY4XqsK4I3dAUQn++DED2aW49e8YX/O82/Swm6+9Hqk09NPkL5afUDVkTHbX1ouhMKFFOnrldo8JoHpjv2uakrXPMOPubPiHL/aQiXyfN31NGMyh4sfLD0CcK7IgqfIAiCEIZLd15SmTGBtPX8M+pUKgkd7ZOOrgxKz5/flU9KcWLHMvn8cFT2jk8vX2l09PoL0x2iF/r3bReesdK18ewzszUSrD39jJLGj001ciUw3bHP5nPPqeOcu3Tm5vu1sFkqezu7p6HUSeSnxoR3RxQ+QRAEIQy/bQpixWNh+1Q0tmEKypPOiTK6xOXPevkSUkJn2wrfqxCikwEv6O+9j1lhfP4yrAXwwdMQ8r//iv0p4Oeafg/Tx0Zwb9b+x7TfL/iNcPK7O1PqpHFo/ZmnrOiBwIchdDrwJaXR758JfEG3H4da5xDu8evBrEBlTRm6Jg739l0Jpqm7H/FmCMu4X4Roeho1tvBhOhvpNnLncQjft8yLAuEh3EVHntDdJxGfgv5P9w9lz9PNiXZ0E2VPiDpE4RMEQRDMYMp0/ZlnlD+9M5XOFt90N2LAMlhoxA3KNeQ6tf7nNlsJ0/e7RkuPvZ52HbYuiIqMvEH+D15bzvbqileOwf70n2k9ICxz/Zffp8wDrlHLGbep8C83KPfQG3Tu1utnMukKaJFM8VjBg6IHoNRBMWxTNDErrOdN/q/cfcn+Cuv+kyWITUPWPOCpaqTj81l3+IgUr5/86ah/MCuZGX/053gxXd1wyi2ezka6ARRATHW79bnK9937X6MGuh/FSz0pg1c/INfeVzncBpNvkcdAf9pxMWLr+r4smYSG13GhLV1Ts+KqsNzYIQiRRRQ+QRAEwQwUHmzOSJUkDiWyY8mzBFa2b/69y8rV2q9Ts3ISONSdPFyd6NuFd1kZjCiYjv11UxB9USIJPRqVkULGZqJF7VOFSU8s/d+KXvFZQYWiBzC965ooNlXPlYBi6x7O3Ayd7j2m34eFDtPAoLlPIrr2k7tZidrYJTWvv/tn32NKqytZu7qnoa9LJ+H4Fnyeiqeze1dKynnE2sE9l5/TrNau9Gx0Rno5JhNNb5mSwwWYZoYl9Nrg0PCXdHSjYP3e8uNh1xrao2fFpGGUPUGICkThEwRBEMw8eq6xghJZYE3DFGkzXZmqZFKs3HSl8XtdecG0Z0QtXGDhkSe6shWbvjEpXVDuoESlSxZWCfLNEo8SOsWiLeefs1UQ6/e8UjtRwQzO5J06LiuOYPP5Z5TBJQ4VzRyPv2dJGTeMQlXA3Zmyp3JiC2IcfVRMnzwOJYkXm+NFHjCdDcsg8rhVj6tWngTUtFAiihc3FvtPrrsp4uvpqZM3IaVIGHovv7sTu58KfL3W8G3AYcy2DmQWhIggCp8gCIJgJnG8WOQcJ+KWPcXtxyH09EUI5U4beqq/AmvQnOMSnbgRcYXn+oNXlCpxbHLVL3tgPR7W5R24+pyu3n9JpwJeUDFdqYOSmDudM3/HOrt9V55T3vTOlMa0Hg5TteO3PaRiowLI+6fr1G7WHZ4CDg+Vx/TJ5Gw8IfohCp8gCIJgBpYvl4SxyV9XoCw3KnxswOpW0SsBbxKB5Q0bJWD1A2WzxdeVvVe84ePK3Vc8/QuLHaZl28++Qz2X3GO/PSslpaKZ4vHaO0GIyYjCJwiCIJiBFaykR3w66v+Cd5hGFKydS+AUm3ZeDJ1eVWBN39MXGuUyWP5wjp61na0KTN3Cynf5TvhWtzLZ4rFiOufAY949nC1VqPUNU8Bg5r7HenyvFUFs8MD0cgVdURxd34XaFUtMX5ZMTBldwl8zp/KIMwqNeXwX1FRteJcgvCui8AmCIAhmYAXrWzkppdWVrq/n36VW/9zm40UwNYqNB6M2BvGRJE6xYxGO44PyA4ULilYFr/i04sRT+vfQE7aYHbgaTP2W3+c1c+Wyh67rc9L1qtuPXtFK3R921GJn7MgND8Ici9KsUCL9eY2tcIeuBfOGj0k7H9FpK+vg8uF4Fl1JXXvqKeVI42SetoXSCCUOx5zk1O97uYUqgFhz56x7QbpxXErQsxCrYWPN3zNdUUX8yDsUV5VH5A8HPCNdcMMva6ijYSJKWVN5RAZYKQXhbYn1PDhYO3fxMuXyym66JQiCIEQHdu06SL6+BU3fohYoRB3n3qWNZ56F2cThndqJ1n+Tmv+vOC6QFaXelZLRz7WTswKF40zW6MoXrHggu64kzWuXijdGgLM3X1CNv26aj0xJmSg2tS6amGbseURjGqagFj6J2HoGix12xEKZhJJWJUcC/h9KIuLHdC6AXxyLAsUOx5lgh6sCyuo/ex+b06eYrsfVad5dtjwi7Np5EvK5fdl1pXBxh1TsB4pcnYm36LCu8IEmBRPR3LaunEccObPq5FOzlRLK29KOqWjo2iAatzWIVn6Vmkp5hFoUEY7vqAA+EkaFLQiOBn1D0hRJKHvWzOTsFPqyIwqfIAhCNMWRCp8CSg2OaXmla1bJ4sc2K1r2gGL24FkIb/6A9Q1WQyNQ2m49CqG4elDW3BUqbqwptHfY89sAiyIOZnZNFMdu2PgZOee4sXhHrhH1fETLRBDeJ9YUPpFSQRAEwSbqmBJ1NElEgD/4xwYQa8oclCd3PUxb7goVd1QrewBhIo3hhZ1EV+gslT2gnhdlT4guiKQKgiAIgiDEcEThEwRBEARBiOGIwicIgiAIghDDEYVPEARBEAQhhiMKnyAIgiAIQgxHFD5BEARBEIQYjih8giAIgiAIMRxR+ARBEARBEGI45l/aCLr70HRLEARBEARBiM7IT6sJgiDEEN7HT6sJghD9kJ9WEwRBEARB+AQRhU8QBEEQBCGGIwqfIAiCIAhCDEcUPkEQBEEQhBiOKHyCIAiCIAgxHFH4BEEQBEEQYjii8AmCIAiCIMRwROETBEEQBEGI4YjCJwiCIAiCEMNxuMKnaRoFBATS6jXr6NSp0/T48WOTS8wmIPAmrd+4iZ48eWK6EzOJrvl8+PAhrduwke7cvWu6Y53NW7ZRrvyF+TMqsRbu1On/UPHSFeik3k4+JtCGj584SXv27ef/hU+DV69e0aXLV2j12vV04eIlevb8uckl5vKpyHp0zWdk0u2o/tQyXIx97Tp8xdfHPg46VOHzu3qVqtSoQ955ClLTlm3IVy+k9Jk96fveP5h8RD+ePXvGisKNGwGmO9YZ/suv1LBJS9q6bYfpTsS4d+8+rV2/kT8/Jmzl+23z+aGZPe9fatT0M/pn5hzTHaIzZ8/R9h276OXLl6Y7ofn297/On1GJtXCDgoJ4gA0ODjbd+Ti4fecOtW7XkT7v2IkCb94y3RViMgcPHSafYqWoQOHi1LRFaypUtCSlcc9Kk6ZMN/mIfkSkb30XWbfWf3wMWMt3dG3TttK9/8Ahvow4qj+1DBeKJ9KC62NXnh2m8GEg69m7H/n5XaWF82fRnQA/Crh2kXZt3UC1alQ3+Yp+nL9wkdq2/4qOHD1mumOdXt93pwXzZlLpUiVMdyLG/oMH+U3hip+f6c7Hga18v20+PzTNmzSif+f+Q5+1bGa6QzTuzwn084hR9PwTsGREBteUKWnG1Ik0ZeKflNotlemuEFO5dfs2derSneLFi0c7tqynezevkf/ls7RhzQryKVTA5Cv6EZG+9V1k/WPtP6zlO7q2aWvphlXtp6HDaPK06Psy8r5wmMJ3/0EQHT95impUr0oVypWlOHHiUHy9A8mRw9usHEAbvnv3Hj3Q/RrBtC86HUwpqO/wB/83b93i6WG8TSl3gP/xDKYdXrx4SYcOH6GNm7bo2vhDk4+wIDy4W/ODMFT8xnAB3t5w7/79BzydaZl2RZLEiShvntzk5OTM341hIn2nT5/hfCA/Rl69fMVxYKoR4SPvCjyLN4sVK1e/kX+FZfkgfSqN+G7Mi9ENZQs3lAeexzS88W3FVr4t86mIaPnaKwvEDysx8nvg4GFzuo0oGVLyoUD6VBwKlCXiQJxOzs6UJ3duSpQokcmV6MXLF/pb23N+U1P+jNhLqzWQXixjWLJshc30R5bwykSlEe7wZywTYzuCP5aFZ6F1oepTYVmu6dKmpeweHibX1+A5yINlWQM8i/qH1cMynfALGUXZIL2WZS18OGB5vnLFj9q1aUW5cuagWLFicTspVDA/Fcifj/2g/lDnxv4JQB6UzCgZgh9V39baDmRDyQ/6CsgM+m9rMgE/qg+05seajCs/9vpWI0ZZN+YBKJm2Fre9/gP/22qXAO7GMQvfjWk3lpEqe9Wm8Gmvn7GVb2ttOjLli3gQn7U+HuGE175VPox9jypvFYfC2J9bphv+Xup5fPrkqc2+yF5arYH40G+hHFAeluFFW54HB2vHT5/VyyxqCbx5U8tXyFerWrOephee6W5YHj16pFWv3UD74usupjuhjB4zTsuVv7B2IyDQ/N3DK49Wp0ETLZlrOvPVoHELc9jwi2fqN2quZfXMbfbjmjajtnTZCvYDgoNfaD/+b3CYcHCNGPUbu4FVq9dqmbPn1GbOnqvl9/Fl98VLlmm16zd+4znLtCuQ5jQZPDS90fB3hInvnTp301K7ZzU/7+Lmrq1ctcZcXsawcSEcoHfCWqVqtfgeygKf5SvXMJcR0o48GJ8tWqIsl4lKoyqjkaPHaK3bdWQ/cNM7J61oyXJhnsU1dNgvXEf28m2Zz4iWr72yAPDbrUcvvp8pWw6uR5QPyslISEiI9tU332q5CxTRrl+/wfeePnumNWrakuvw9JnXst2zdz+tsG9pDgNpQNj4XLt+gzkN6lJ5Uv7afP6F5p7Fy+xuTKs1Jk6eZvarrjwFimrnzl9gd2P8CsuytCS8Mjl67DjLK9Km2gDqGXUIED7y/8+sOZwXxLV7zz5uMxWq1AjTThEm/Pbo1Vd7+PAht1NcKiy9QzbLkLqUTBhlQKUTca3fuIndEQ/aLtyRTqQXMqYPJuwuRJydOw+Y/os6jh0/oaXP7MntSrVZS1RfovonBWRAyYnq38tVqs6yZJSV3//4i9suQBtIlS6T1rRlmzB+0Cf5+V1lP8DYB6oL8rNl63aTD+syvnHTZrt9qxGVZss81KzbkMcy4/N1GzZld3v9BwivXaKPMpYP2kuNOg3ChIEyshyTcM9eP2NvTLHMJ4ho+Xrlyq990akL50f5y+jhrR05eoz9RLR9W0vD7Tt3eNzChf+B6s/RT92+fSfMM+P+nGBOg7qU7oC0pkyTUWvVtgOXqXI3ptUSpNFSDnEhv0+fPmU/CNdYN9by8TGAvgG6HXQ8hcMsfKlcXalt65a0a/ceKlikBI35/U/W2t8WvJ3UrlmDbl2/wlMMs/+eSlu3b6fhI381+QjlQdAD2rhuBd2/5U9XL56mcmVKU/fv+5DeANh96fIVNHbcePrxh948zYwL/2Mt2voNG9kPwHqHvyZOoQH9+9Kxg3uoXNnSNG3SX/TXuDHsjs/Txw/R8CE/8feIoAsMOTk50dGDuzl9e3duIbdUrrRET1PKFClo3eql9H33rhQ/fnyeBkf4HT5vw29n/Qf+RHoHSWdOHKLzp4/ys/7+/jR9xj8c9vYdOzkPxnz9b0A/unPnzU0Jv439k/LkyUUH9myngf36UpLEiWnuzGlctkgXPps3bUx/z5rDFr3I5Dui5WuvLMCOnbtI77Rp7qwZdPncSU7T9s1ruZyMwPpQq0Y1tkrgjRIEBASQ3sly2s+a7uH/vfsPUJnSJVk2jZQqWYIO7t1BhX0K8oX/jxzYRbly5jT5IEqWLJleXtusptUaNapVoYtn9DTo/nGtX72c3zyXLFtu8hF57JUJ3lp1ZZAtMNcunaELZ47R0kXzecE9LsXZc+dp4X9LaNrk8XRQr/88uXNSk8YNuLz0gcfki/j79RsB1KhBfS5jI5BHXaGjTVu20rzZf3M6UM8jhw1hd8jAlGl/06L5szmdVy+eoUoVytPPw0dyOhH/vgMHaNumtZxOPDtrxhRKkCABPy98WLw8PalBvTo0e+58KlK8NH++y2J0WLsm/TWO++2Aqxfoy47tWX527Nxt8kGkK5bk7eVJ16+c4/ayZcNqun3rNvXuN4CtM6oPRBtfs3IJ+7l09gTlzOlN+ksJ6S97ppDelHGfQgVt9q0R5Zwe5nfdOptlvVvXb0h/WeJxxV7/EV67xNKnAXpZwIKE55CvM8cP89SlJZZjUonixez2M/bGFEsiU76wYGbL5sFtG/6QH/TnsJ6BiLZvWI0rVShHJ0+domt6/w1Qzpev+JHf1WtsZQboz48cPU5VKlfU8xGP7ynatGqh94HrKE2a1FSnVg3O36Z1K/U+PrT8UK558uSmC6dDy8gyrZY4OzvT0J8G8vIz+IfMYvxavHT5R7eZ7m1wmMKHQaLLN1/RyqULKWPGDDRg0BDK6pWbWrZpH0Z4IgoEtmCBfLqSEJfDrlypAlWtXJl27trDg7kCgpgpY0b+P0mSJNT928507/59Nk9DqJcsXUH58+Xl6QpMM+Nq2aIpZc2SmZatWBXGjPxD7++pbu2alCGDOyVNmpRSpHCh5MmTsRs+06R20xWBpPw9olTVhdYtVejag/Tp0pKHhwddverPDR+KCBoB8ofGivDxHTvkNm7eQh3bt6PUbm78bHY9n+hoLpvWZWCqJJWuhDRt3NCcr3x581DKlGEVJFCjehX67tsu5JE1CzcUlG3mTJm4bAE+q1WpxOWKziOi+Y5s+doqC0wboGHHjevEjV2Z0xPriinCswTxpU+fjrZt38nfT506Q2nTpqXKFcuzWR5gEEDnXKNa1TcUGCw1wHoQZ+d4fOF/pEuVB7CXVmuk0/2g3BTeXtm5PtSLx9tgr0ywyP7EydO6jLSlhAkTshvaC8rmqt55KtDpDujXhyqWL6eXURr2W7SIjy4nKWmNSTFEHS36bymnGYOwJdf0F4216zZQ00YNqYreDlFOSAPSgsF53vwFVL5sGVJLNyBfjRrU5emWJ3pnmyhRQh7gA2/e5LhQH3jWsl6EDwPq89dfftYVpr/4e6fO3ShdpuzUs08/3t0eWdAfZ/PIyvULWfiyYzvu6zZt3mryEUrRwj5m2UVbaf1ZC9q//yDLO2QObbl92zbsD7i4JKeunTvx+mLj2mJLGcc4YKtvjSho775Fi5hlHWmA4oClL/b6j/Da5RW/q7zjtHmzxtxHAvQbcLeGcUxCvuz1M0hnRPMdmfJFHVYsX1YfE5Pwd0/P7OSmj0unz4a+MEamfZctU4qXlajwoUQXK1qYcufKwUoewFQsxha8rFuCvLjqeYwbNy4lSJiA84c8q3EivLRagnCyZM7EdQqQZqQR3NQV3eiOQ3fporCK+xajjWtX0InD+/jNbuWqNVS/SQtWJN4FVExaXVlBOJZrFoy4uLjoDSMxK5lYTAtLYQZ3d10AXwt9Ir0hptIbKBrfx7itGh0LGgU63Fz5C/OVu0AR/a1jGa/PQKN68DCIO1Yl2JEFHUTvvj9SYd/S1LxVO5q3YJHJJeJEZfkWKliQmjVpSN9+14vzCwuxrcEGSmupEsVp9959rIDhqJMiPoWoQf26bNWD4rpz125y15VCWDbfB1Dg/134H9Vp0IRKlq1EvfSyRaf6LtgrE8QHOWnZur1ZRgoXL0N79cHkVYj99ScZM2SgmtWr8ksFygqD2LYdO6lxwwZW5Ql+gvR4MZha8krvmB8/eUqr1qyhfD6+5rR07taDldQQ/apauRKV0PsF7O4uoqdx7rwFnH7h4wEDZr06tdjqtHv7Jrb4TZw8jTp8+c071xUUFSgT/jdCrTq2cHdPz3IGeVMy56UrNEZgCcPmEmXd/9gIr12qvt0zWzbTE5EjqvqZqCzfyLRvGC4KFsjPfTb8oJ+uU6um3p+X4BcCrP3bsHEzrx/NlCnUkONo8GKK2QiUJ8r1j/ETWeGMCThU4TMCC8ywIf/Tr0F0XlcuLuhvDULkGDZ4EO+UU9exQ/to5PCh5jen+/fvY00m/x8ZMH1XsWpNOnHqFH3/3bfUpFGDMArbhwBvx6NG/Ez7d2/T32hr8e63EmUq8dumJcg/pnWxOBgbhfYdOMhvZXjTffDgAb/NoSMpU6okv+U6GnQOffsPpC7dvucXHpRpoYIF6OWLFyYfb0d4ZYK32Qnjx5rlY9O6VXTy6AH6ssPn7G4LlB+mbi9fuUKnz5yhw0eO8vKBKpUrmHxEnupVq4SR1d3bN9PWjWsotf4GDiVy3uwZPP1UqFAB6tSlG9Wu3/idlnwIjgGyASvv5Al/8FTgocNH9QEx0OQqRISItMvbVpbehIej+pl3JTLtGxY6TOvCEnr8xCk2ChTIn5dKlSxOJ06e1BXNs+xWTe9PlNXNkcAwVLteI1qyfCV90aEdz1TBiqpmVKI7703hU2DdFqxzmCtXKCtVZMDbAAY6WLWwU9QWV69d4x03Xp7Z+U0FAz4Gtbv3Xgsf1llg51SmjBnMZvePCUyjJtXfitHRwmRtvNTUqrenJ128dMm8Zi0yYCoUJvifBvanxg3r81qIuvpbVmSJ6vLFYIOpILwo4HgIWAfVtKMlWGviHM+Z/lu8jP3lyOHFFj1M7W7atIVO6spgtaqVTb4dC/K+cdNWqlO7BvXq0Y3Ls0mj+jwt9K7YKhPISEjIKwp+HvyGjFibwrEkl15+OXPkoBWr1tCCRYtZOYblzxpKHv2vX3+j3SoZwACGdmlMh3GqBZ844gNrQpcsnMdK5oFDYc/REj4eIHexY8Wm2HFik7NhR3541mNr3Ay8STcCArjPsgXkCmu7XF1T8jIWJXP79h8II3M4FxRjAfr3j5Hw2iXyhjxu2brN6k5We0RlPxPV5RuZ9g1lFdO/WHeIMsHyIsQHXWHVmnX06PFj3U9Rk2/HAqMHlv8M7NeHPmvRjMsU1m0o7TEBhyl8ULL+njmbt4vDRIprma41jxw9hufns+lCiU4kbtw4upAd5ELG1CzMuHP/XWgK5TUwfU+bMZPXs0ELHzV6LE9BoTKMAxqUF8SD+HAQY4+eP/C8vY9PQVY0MSV28dJlmjR5Gg+WUEaGDPuFF/03alCP02QPNAyEc/josdB8BQRGqbkXbxNoYFiHpsJ3T5+e1yyOHjuO1qzbwB0D3jiwXfzY8RP8HMoBU6mNm7dmE/TkqTOobsOmdO1a+OZ9KGGIE+WCxo7F+1On/21yDSUi+Y6K8lWgA0BdI69IE85zRMNX61wsSZ8uHRUvVpQmTJrCViSsoYFcFCtSWJe5sbyGxN50rlJUkE4lY2+zXgmgs8N6uytXrnL+UQ5QovCmqoijyz3w1+NR6wDRwb3Q385RttaWKdgrkzy5c1FhHx/q028gr1eFfMAfTqWH5S48UFbo3CZOmkorV6+l+vVq26wryCPWgWJjxoTJU7msIBNqUTPW62Gz1m9j/+D8A7zdY60S8oX04BmkERe+Y+0TFEKsRc3imYs/hQ8DXs4wDQdZQ72irmb8M4s3caGNubmlotix9b47Tlxat34TL6uBDEPGN+kKiCWQe7ghHEwNdu/Zl5/Fulgj6HMgr4hz+t+zWL6w5hZLNpTMzV+wiH/ZB30P+ql+AwaRl5cn9+/hYa1vjSps9R/htUvkrX3b1nx8Sat2HTh/Xbv31PvMEaaQbRORfgZEJN9RUb4Ke+3bGrAgYz05zjHEMUAYa7Ae3TN7dt7sl9Pby+50Lix/CPvyZT8eE6GkoizeBqe4TtzvoS9DH4v6hN4B/UNh2U8rPQYHMqN8keePFYcpfMj0zNlz+dc1vHMX4Ouzth14wfvUSePZ7AtFA8Luf92fipYoyye5Dx3+C9WoWsUUymugTAQGBvIas5z5fOiXX8fwphBo4UZckifnqS7Eh2lKjFmTxv9uFraqVSrxtPJvv//BC5EzenhzI/nz99HmxZn2QAPGwDjMFMc3Xb+jqDzJu3Spkrxo9qvO33L4w0eO5rwPGtCPdxw3ad6KUqXLRCnTZOTT748fP8nPYRHvfwvm8EL5PydM4jz16NaF11lBiO0BZRFnJeJwThc3d2rWsg2/JSprDIhovt+1fBWY9i9WsiznFWmq16iZXtdNqWKF8iYfYUEZVa9WhRupT8GCZksipgYwPVmmZAnukG2B57GrHGsQS5evwjIGBeVtQDxYXL3/wAHOP8phz979YTZAYFE2zi/8rmcf868XVKxQjp/Fr9JstljQDuyVCRS28eNG64OxK5WrVJ3lA/4qVq0V7q/CKDCFmyJlCrb2FdEHKVugrAb2/4HlBus+UVaQiZ+GDmeZQD0MHTyQZQD5T54qPW/YgjIJsDsTzyCNuDDA9e3Vg6fgoTxgPdG7rvEV3h5Y+4cOH8n9C+oVdYU6wgYdLCFB/aM/bd+uNe3es5ey58jHv6C0fMUqKleutCmU18Cahd3lCAf9PJSdv/4cQ976QG4krj6QQl4RJ3a2YnMC5CJ0QA2VOfRT+IUc17SZ9LZQjhWtGVMm2FQmjFjrW6MKW/1HeO0Sefum0xf026jh3L6HDhvJCs83nb7k/hfh2iIi/QyISL6jonwV9tq3NaALYIMN+m701wDpwckYUDzDm85FebVq2ZwOHDzIvwzjW7o8Gx3ehhLFfbkeBw0Zxn1ssVLleQ+AcYexZT+NsaZ+3dpsfMGav1u375h8fnzEwhkt5y5eplwWizWjCrz5PXwUasFIED++1d2dyg+mgIzWOgUsBRDSVcsW8Vb3e/fv6UKSNIwQQLOGgleyhC+bkWFhhNKJxcHWLBV4y0I4wCW5i661225Y1lAWGEetK8AbCg4ztkyXKiu8YYeXbrxZValel776oj192+Vr013roLGpn96xVWYgovl+1/IFqD9MW7x6FWJTNqIalAPKGHHZKoOIgrKC8oIOKarkJCJlAtl/qr/Rx4kTm1K4uIRR3KMalUdraVEyEBKiveFudDOWT1SW/6fArl0Hydc34taXyKDkCIQna9ZkHPWIGQcwf/YM/sQubUuZhDUXg+fcmdOpUsXyLN8J9QHWWnxA9YHOuoJor6+yha2+NSqwJ7+RaZc/DRlO8xYs5HVwUJjtEdF+JqL5ftfyBbbatyNB3whLHGZz3hXUVfCLYIf3n44EfUPSFEkoe9bMXJfA4Wv4IPhqzYKtI0yUH1sN3AiEFdN14QkQ4sJ2dVvCqsJR2+cjC+J3pBDjrcFaulRZWaZbCbsC33G0xoOgIF4jER4oJ5SXvTIDEc33u5YvQEPDm2VEZSMqQN6j6ogQlBPSHpVyEpEygezDHf4c3VmpPFpLi5IBa+5GN2P5RGX5C++GkiNb9QuUn4jIOMIITyaVfNuKD8ANcYbXV9nCVt8aFdiTX1vtEv02+msFrFM4gQFWOVcrx2pZEtF+JqL5ftfyBbbatyNBmUaFsgdQV++j/3zfvPdNG4JjgBkZ2/1h1sfW/wxZvdks3a9PTz4MVBAEQfj4mDBpKk99YroVF36oAD/9OLB/X7tTuoIQWRw+pRsVwMT8+MkTu1ODaqoLO8ignX+KYOHu/gMH6eGjRxRXfzNRBxILghAzceSU7rsSmWUiUb30ITqBsQsnTqhfusGvRGCjh6OskMKngbUp3Wih8AmCIAhv8jErfIIgfDg+yBo+QRAEQRAE4cMiCp8gCIIgCEIMRxQ+QRAEQRCEGI4ofIIgCIIgCDEcUfgEQRAEQRBiOKLwCYIgCIIgxHBE4RMEQRAEQYjhOFzhw+GbAQGB/HuJp06d5kOUhagBvx+8fuMm/o3Ed+Hhw4e0bsNG/uFvR4E0tuvwFV+20htV+fmYQXvAj8fv2bef/49ORLR+Nm/Zxr/2gk9BiCg4gHj3nr10Uh8nBEGIehyq8PldvUpVatQh7zwF+cexfUtXoPSZPen73j+YfEQ/nj17xsrRjRsBpjuOx1acw3/5lRo2aUlbt+0w3Xk7Zs/7lxo1/Yz+mTnHdCfqgXITePMWX7YUnbfND07zX7t+o/lU/48Fa/V2+84dat2uI33esROXRXTCWv3sP3CILyPIt7//df4UhIhy5uw5atKitT4+9BPDgCA4AIcpfOjse+oN18/vKi2cP4vuBPhRwLWLtGvrBqpVo7rJV/QDP4HTtv1XdOToMdMdx2Mrzl7fd6cF82ZS6VIlTHfejuZNGtG/c/+hz1o2M935MLxtfvYfPMiWwyt+fqY7HwfW6s01ZUqaMXUiTZn4J6V2S2W6Gz2wrB9Y+n4aOowmT5vO3wXhXfDyzE7zZs2gX4YN5h/wFwQhanGYwnf/QRAdP3mKalSvShXKlaU4ceLw7yTmyOFtHjBg6bl79x490P0awdvdrdu32cSvvsMf/N+8dYunh/E2qNwB/scz+F3GFy9e0qHDR2jjpi38+7LWQHhwt+YHYaj4jeGCly9f8j389iOmuCzTbklE44Eb/CDdSL8RW3EmSZyI8ubJTU5OzvzdWE74f/uOXbRz125zeIjvwMHDHI9xWg4/1J0nd25zJ4tnEY/lpcIGSM+ly1doxcrVb9SFQtXV6dNnKDj4hemubezlx5h2y3J89fIVlxGmpJFOPKdA3hE/0gmLs0q/At9xf/Xa9fyJfCBOFYY9WUDYFy5e4rBR1sZ4ga16S5c2LWX38OD/jURUVlSeULYoYyNwR30sWbaC/VjKEkCeEZexPgHSp+JQIE+IA+FY1g+efamX/dMnTzl/ls8Ce2m1RNUFyhN1rcpZgbCVzFlrJ0Z5wf8RlX+FesZa+X9qhCdHql4t2xU+je1H1QkMAJARyzpFOJAL5d/DIyulTxf2979VmJZ9EDDKhLV+CPGhTiF/WFpkfFYQPjnwW7rHT5/V20HUEnjzppavkK9WtWY9TR9ITHfD8ujRI6167QbaF193Md0JZfSYcVqu/IW1GwGB5u8eXnm0Og2aaMlc05mvBo1bmMOGXzxTv1FzLatnbrMf17QZtaXLVrAfoCse2o//GxwmHFwjRv3GbmDV6rVa5uw5tZmz52r5fXzZffGSZVrt+o3feM4y7YqIxpMqXSatacs2YfwULVlO8/O7qumdoN04US5pMnho+uBn/o5y+qxNhzD+UQdDfh7BZaHuFSxSguMASAfu4RMgHOXPeKGuUGf+/te1StVq8T3Eh8/ylWuY6yskJET7/Y+/wjzrmTO/5p7FyxyGNazlxytXfu2LTl00Fzd3c1gZPby1I0ePmWXMGA8uPAeOHjvO9YdnlUy0btfRHD/K96tvvg3zLPKFNKgwrMkC7m3YuDlMmnDhuV2799itNyXzxnKIqKwg/E6du2mp3bOa/SANK1etYT9oC2gTuI/8wg3pQHqMoH6Q79wFimjXr9/ge0+fPdMaNW3JeT195nV/0LN3P62wb2kua2P9jPtzgjkN6lJtVslTm8+/4DpX7sa0WoJ8duvRi/1lypaDZRV1i3iBUebUhTxu2bqd3QHS9zbyj/KYNGU6u6fNmI0vpHXy1Bns/jGzc+cB039RR3hyZK9dKfnu/G0Prd+AQeyG7/sPHOR2+/PwkRyGYt2GjVzu+FR9uLFPveLn90a9q7YZXj908NBhc/pVOiG3gvApgL4Buh10PIXDFD50or+N/cPcGPH/nTt3Ta6hqM4hIgpf8lTptSnT/uaBAWHrb3SsLPXtP5D9qM6iQpUa2uUrV/heUFAQD2LZvPNqZ8+d53sLFi3msEaNHqu9fPmSL/yfMk1G82CkBqySZStp/+mKHgaGBw8ecPrnzP2X3fCJOO/ff8DPWBKZeAb+NNTcmR4+cpTLq3mrdtqTp0/txmkcgNV3y3JCnHi2T78B5vJf+N8S9jd1+j/8XaUDnwD1gnjUhfRCyUAdBuvy0q7DV1zOAYGh9aO/WbNipjrzPXv3c938NGSY9lTPA9KBfKF+jIqOJbby88uvY8yKPQZ4hA03lOnNW7e0wUOHc/rWb9zE6UX48I80tm3/pbls8Sz8oW4Aygn1gfJAGlFmuIc4ET6wJguQq9t37mg3bgTwcwADExSU9l98rb169cpmvSmZN5ZDZGSla/eeZiVIlbtqP6hPDKoYkAHS9vDhQ3MajSBcDISbNm/l75cuX+awkA71gnTv3n2tbMVqWo9efTkMY/0g7ceOn9C8chfQWrXtwPlDXSDtEUmrJUgHBv5Va9aZ7micdoT34sULljnkbffefex29+49rWbdhqyMYuAHSl4iK/+Q1/SZPbW/Z87mZxAn2qR3noLmvuRjxREKnz05Cq9dKflGXeJl4eTJU9xO0A9AEcezqi0jPMiWugcZMip8Kiy0KyhvqBfUK+JVMmGrH1IvMHUbNjW3M/WsIHwKWFP4HDalGytWLOryzVe0culCypgxAw0YNISyeuWmlm3a0/XrN0y+Ik78+PGpYIF85OQUl8OuXKkCVa1cmXbu2sNTZops2TwoU8aM/H+SJEmo+7ed6d79+zwFpHcYtGTpCsqfLy+1a9OKp5lxtWzRlLJmyUzLVqwKY/L/off3VLd2TcqQwZ2SJk1KKVK4UPLkydgNn2lSu1GyZEn5u5HIxlO0sA8lTJiQ/8+XNw+1/qwF7d9/kAIDAyMcp8KynHLm8Ob7pUuW4LAA0gB/uhLL3y3B1C7iwfUiOJj0N3Vq0qgBdfqyI128dJk2bt5CHdu3o9Rubuw/u17mpfTwL5vW0K1Zu55ckrtwfhEP0pHNI6u5XiIDnq9Yvqxe/kn4u6dndnLT4z199iyXaSpXV04v4kiZIgWnGd/1AYJOnDytp7OtuWxRLqiTq1ev8VTP6jVryadQQapcsTw/jzKDH8RpiVEWIFccV5rU/BzI4O5OhX0K0vUbAaQPbg6TlaqVK5JbqtC1f+nTpSUPDw89P/48JZYoUUKeOteVLH4GaUucOLE5jUYQX/r06Wjb9p38/dSpM5Q2bVouC0yBAf0lic6dv0A1qlV9IwyUsate9nHjxqUECRNw/lAXSLvCXlotiR8/nh6WEwUEBJin5ZB2hHfN35/T1L5tG24rwMUlOXXt3InXSRrXSL6N/C9ctJhlGGuL8QzirFWjGrt9bBuB3gf25Ci8dqUoUrgw/divNy/hQTtBedepXYN0JZJOnjrFfvj0Br2vqFi+nLl9G9FfKGjP3n1czwXy5+N6Qb0iXiylsNcPxdX9xo+fgE8g0JVJdlfPCsKnikN36aKDKO5bjDauXUEnDu+jLzu2p5Wr1lD9Ji14vc+7gIEmrd6RGNdUWcPFxUUfoBOzkvlc94d1XhicEyd+vSg4kd4JpNIHpit+V6PkSJB3jcfdPT0F6R2VUZH9EGAd0zfffsfp+Wlgf+4wocw8e/acevbpx0dv4MpdoAgtXrqM19JhgPC/cZ3S6QN88mTJTSG9f7BmCGlt2bq9OZ2Fi5ehvfv206uQV3paX9LjJ0/1OkrPyktkgVKyZt0GatW2IxX2LU2dv+3BA1RkiUqZrFq5EpXQ2xt20hbR8zp33gKbO2UxCJcqUZx26wMqFDAcoVLEpxA1qF+X9u4/wLKH9W/uulKYJ08u01OOo1DBgtSsSUP69rteXFdjfv+TB2uAtKA9eHll5+8KbICJFy8er916Fx48DGKl0bd0ebOsNG7WihWFkJAQk69PB3tyFF67skepksUpc6ZMtG79Jv5++MhRevToEdWpVYO/W4J6xwsR+nlLwuuHoBx26/o1Xbp0he83bvYZ7yY3vjwJwqeGQxU+I7AmDBvyP/0aROfPX6AL+pu58PGCxdT9B/5E167507jfRr3xBj5s8CDasGaF+Tp2aB+NHD6UlfyPBVgVJowfa07jpnWr6OTRA/Rlh89NPrBR4QGWNZi+RZzxEyZTi1btdMXJjfr17UXvulM6KkAdzZs9g9avXk6FChWgTl26Ue36jXmhuyWoJ1ixsPAem6v2HThIZcuUYgszygQWVCh8ZUqVZGumo8HLxKgRP9P+3duobu1a9POIUVSiTCW24L0PChXMTyuWLDTLyvYt6+nw/p28melTIzw5iki7sgasvfXr1mbLHMKC9bp82TKUPXs2k4/IY68fglXw2KE9NHXSeLp95y5VqlaLhulyJUqf8Kny3hQ+hZOTE1vnnJ1Dd/oBZRmKDHjTxGCAaULsHrTF1WvX+E0dW/5hDcDgdfrMGbp77/UgCEsWdpplypghSkz+7xIPygFTHq6uKc1TFe8bpOHPvybSkmXLaeL4cTyNqcD0ZNIkSSggMNA87asuNWWZPm06unjpEt24Efmp+6gC6QwJeUXBz4PfSCcseih/1AOmmCK7xAAWN5yvV7RIYRrQrw9bKBo3rE/58+c1+Yg4US2TsGz46IP0X+PG0JKF89iKcuBQ2HPyFDlzepNzPGf6b/EyzlOOHF5s0cPU7qZNW+ikrgxWq1rZ5NvxYJDG1D9eDHfoChfShOUBSub27T8Qpp/A+YboB9C23wXIK3aAJtAVGaOcQEGBIvopYkuOwmtX4VG1SiV+iUS9btm2nRrWr8vjgTUQF9z8DFPFioj0QwBtB0sxNqxZzkuM5v276J1nlwQhuuIwhQ9K1t8zZ/Ova6AzxbVs+UoaOXoM5c6VQ+/YPbiDjxs3jt6RH+T1Qpia3bR5K839d6EplNfAhD9txkxeu4EBetTosfym2KBenTAdDdYkIR7EBxN+j54/8LovH5+C3Hlg2gjr0CZNnsYDCgbWIcN+4YNiGzWoF66FSnVCh48eC81XQCBPOxiJbDxTp//Nv76A8Kb/PYumTPub101h2g1EJM6oZNmKlXpaR9APvXuyZZbj1C+8lePIBKyfHD12HE9pwhKojkZQU5q1albjNUCDhg7n6TbU14JFi3n9jyPA9DEGfqxDU+WTJ3cuKuzjQ336DeT1m0gj0opyvnzlCpf/521b01P9uQaNm+vlPpNG/TaW15hC1uwRWx8M4+kvLKhLTMciXBwLodbDKRwhK/ZAvlDWyCsufHd2jsdr66yBuixerChNmDSFUusDJRQctKViuiI7Um9fWLdlbzoXxywh7MuX/bj+oYAh/W8D1ouhbaMsodT5+V2lR48f83o79/TpqUb1KjR/wSL+pQ+U4ekzZ3ltqZeXJ7ftdwHyevv2Hfrxf4PNR8dgmnvX7j1W1xvGdOzJUXjtKjy89frC0T59+g/QX9QTswXRFogL08DoixYtXsptCOlC3UMm7PVDkBH8Yodav4c2jTaG/gzLJcZPmEReuQpwugXhU8FhCh8a38zZc/nXNbxzF+Drs7YdePE2TOyYNsDbV3t90PW/7k9FS5SlNO5ZaejwX6hG1SqmUF6DgRGbGLBeKmc+H/rl1zH8xvZZi7CHBbskT87TQYivYtWa+mBJNGn87+ZBD2+YmFb+7fc/KF2m7JTRw5uVkT9/H81TWuGBTggWHUwNII5vun6nKzdvTglGJp64Tk56WmtxeN169OI30r69epgH+ojGGVWsXL2WFTb8IgriUxfqD/EOGtCPypUpTU2at6JU6TJRyjQZqVDRknT8eGjniWnBaZP/4oX2qFfUF36dAeuCHEHpUiV5Mf9Xnb/ldA4fOZoVl/HjRpObmyuVq1Sd04i0opzVL19gGm/Zf//qyk5qlqe9e/fTD72+pwQJErAl2hZQdPro9YM1ZnkLFuNw58xf8IalyXq9vXke4bvKpGLHzt1c1sgrrq7de7IcoT6sgTZVvVoVVrB8ChY0WxIxyGLtWpmSJexO50KhbdWyOR04eJAKFC7Oa+AwqL4NWOZRrGRZLksXN3eq16iZ3rabUsUK5TmdA/v/wOd54hdhXNNm0v2WY+vojCkTbCq0EUXJKzYQeObMT8lTpedfBMJGs+fPHdfOPlbsyVFE2pU9MB3cvFljXp+Hfk5t6rEG4vpjzK+UM0cOPlgdbQjpmjJtBsuEvX7opT7+4JdhMmXLwfWJdgUL8eD/9edwr+kvU7D0feh10oLwPomFLbvnLl6mXBYLoqMKvCE/fBT6lowpE2s7FZUfTM2iMVry29g/eBBftWwR5cqZk+7dv6crjEl54FXg7Q8KXskSvjwNgTc7KJ3YzWfNQoI3QoQDsKM0slM3aqOIMQ3WsBcPDgPFT87NnTmdKlUsz1N6CXVlw1oZgIjG+b5Q9RY7diyrZYjyR56wq/V9pBnWJRwKbJkOyAIseXHixKYULi48XWUL/JZnzbqNaOb0yayI2UPVLSwGtuoMRIWsRBQVRkiIxgrZ+yh31DMsKLAIvgtKXl69CrHZFyiZc9YVcltt+20xxm+rr/rY2LXrIPn6vpuF0xoRkaPItKt3RdW7tbTY64eUm2Uao0pmBeFjBX1D0hRJKHvWzNxfAoev4UOnbW1thRHlx96gqUBjxltheAMZ4sIxDLYGBBXO267TQfwRGUwjGg86Ilgq7JVBRON8X6h6s5U3laf3lWZYqKylA7KAdCItxkEJg5rR4oZp4Vlz5lOqVK68ni08VN2GJ7dRLSv2UGEgv++r3FGmUTFwKnmx1xcombPXtt8WY/zRQdlzJBGRI1vtyhGoereWFnv9kHKzTGNUyawgRCfe+6YNQfhYOHHyJE/5ZM6ek491yJDVi+bO/5dGDP2J3ubMQEEQBEH4WHH4lG5UALP84ydP7E5zqekYZyfnaPN2jqk+rCF5X1Nvwptgkf7Bg4f5aBZsxChS2Md8QK8gfOw4akpXEITojbUp3Wih8AmCIAhvIgqfIAjW+CBr+ARBEARBEIQPiyh8giAIgiAIMRxR+ARBEARBEGI4ovAJgiAIgiDEcEThEwRBEARBiOGIwicIgiAIghDDEYVPEARBEAQhhhPjFD78EPzxEydpz779/L8gCIIgCMKnToxT+G7fuUOt23Wkzzt2osCbt0x3BUEQBEEQPl1inMLnmjIlzZg6kaZM/JNSu6Uy3RUEQRAEQfh0cajChylVv6tXacXK1XTg4GH+7Vgj+P3bS5evsPuZs+f4uwJ+b92+zfdw4f+nz57R3bv3+LKcrn3wIMjsP13atJTdw8Pk8hqEGRB4ky/LtCDMjZu20PYdu6ymE+lbsmwFnT59hl68eGlyEQRBEARB+PhxmMIHpei7nn0ob8Fi9HXX7lS1Zh0qVqIc/1g9uH79BlWrVY8KFC5OXbv3pKIlylLl6nVYGQObN2+lIsXL0Nz5C8inWCnKniMf3/t5xEgqUbYiK5KKZ7oi2K7DV/Rlp66s+H3WtgNfT548YXcobH9NmkIZsniSd+4CfCFMxIV0Dhg0hLJ65aZ2Hb+ieo2aUpbsuWjDps38bFDQQ2rSvDWnr3uP3lS8TEVq2LSFOWxBEARBEISPHYcpfDt27qJ/Zs2hubNm0OVzJ+nW9Su0ffNaSpkiBb18+ZL6D/yJQkJC6MyJQ3T+9FHau3ML+fv70/QZ/5hCILp37z79NXEKDejfl44d3EMlS/hSg3p16M6dO7T/wCGTL6JLly7TwcOHqXmzxhQ/fjzT3desXLWG+vYbSN92/pr8Lpym+7f8afe2jZTKNSUtXb6Cpkz7mxbNn83pvHrxDFWqUJ5+Hj6Slb2F/y2hfQcO0LZNa+nCmWN0J8CPZs2YQgkSJDCFLgiCIAiC8HHjMIUPilfcuE4UEBDAFjaQOHFiihMnDl24eIk2bt5CHdu3o9RubuyWPZsHlSpZgi77+fF3xQ+9v6e6tWtShgzulCRJEsqZIwflzZOblixdwYojWLNugx5ffPIpVIC/G4GffxcuJs/s2ejLL9pT0qRJ+D7S8kJ3mzd/AZUvW4ZKlyrB9xFOowZ12fr35OlTSpQoIQUHv6DAmzd5GjlWrFj8LD4FQRAEQRCiAw5T+AoVLEjNmjSkb7/rRbnyF6Yxv/9JDx8+ZLenuiL17Nlz6tmnH7vhyl2gCC1euoxevXxl9zgVKGyNGzagPXv30TV/f3r8+DGt27CJalavShkzZDD5es3z58/pzt27lDJlSoofL6z175Wu8D1+8pRWrVlD+Xx8zWnp3K0HK6kh+lW1ciUq4VuMGjZpGTrFPG8BTyELgiAIgiBEFxym8Dk5xaVRI36m/bu3Ud3atejnEaOoRJlKdP7CRZMPomGDB9GGNSvM17FD+2jk8KHhWs+qVK5AsePEpr37DtC58xfowoUL1KhB/be2ulWvWiVMOnZv30xbN66h1KndWMGcN3sGrV+9nAoVKkCdunSj2vUb8yYPQRAEQRCE6IDDFD4ABSybR1YaNuR/tGPLet7osGbtekqePBklTZKEAgIDKY2uVBmvZMmSmp62DSx55cqUpuUrVtOy5avIw8ODcuX0NrmGJV68eLxu8NatW/TYYqOFcrt95y4lSZwoTDpSubry9DPAJ6aL/xo3hpYsnEeHjxylA4deryEUBEEQBEH4mHGYwoc1b1irh12wfDyL31V69PgxZc2SmdzTp6fKlSrQ6LHjeP0d/GAKFUe0HDt+whSCbaBI1q9XW1ce19GfEyZRnVo1KFGiRCbXsMSNG5enlmFZ7NWnP6cJ6/NgGXz48BGv19u1ew/9NvYP3qQBYL3DL3XgeJbLV67wjmKkDxe+OzvHY4UQ90uWrUTf9/7BvJ5QEARBEAThY8NhCt95XaEqVrIspUqXiVzc3Kleo2b0WYumVLFCeVbCBg3ox1a6Js1bsZ+UaTJSoaIl6fjxk6YQ7FPEx4fy5MnF1kJM8dqjapVK9MuwIbRqzTqOA8eyVKtZj24EBFD1alVo6OCB9Nvvf1BGD29Knio9H9EycdJUfnbHzt2UM58Ppw8XjpDp26sH5cubhy2GgbryeP1GAL3UlUFBEARBEISPkVjPg4O1cxcvUy6v7KZbUQcsYnfv3dM/Q3jK1JoVDpsuHj56TLFjxyKX5C689s9RqPTEiR2HXFySh1nzByvjvfv3KCREeyOtRjcomMbNH5imdnJydmi6BUEQrLFr10Hy9S1o+iYIghAK+oakKZJQ9qyZydnJie85dA0f1r5h6hNr4mxNueI+3N1SpXK40qTSkyKFyxsbPBA30mAtrUY3y52+CRMmFGVPEARBEISPGocqfIIgCIIgCMKHRxQ+QRAEQRCEGI4ofIIgCIIgCDEcUfgEQRAEQRBiOKLwCYIgCIIgxHBE4RMEQRAEQYjhiMInCIIgCIIQwxGFTxAEQRAEIYZj/qWNoLuhvyMrCIIgCIIgRG8sf2nDoT+tJgiCIDgO+Wk1QRCs8d5/Wk0QBEEQBEH48IjCJwiCIAiCEMMRhU8QBEEQBCGGIwqfIAiCIAhCDEcUPkEQBEEQhBiOKHyCIAiCIAgxHFH4BEEQBEEQYjii8AmCIAiCIMRwROETBEEQBEGI4Thc4dM0jQICAmn1mnV06tRpevz4sclFEISYxLHjJ6hI8TKUPFV6vtZv3GRyeT88efKE2nX4ii/8DzZv2Ua58hfmTyFyvHr1ii5dvkKr166nCxcv0bPnz00ugiBERxyq8PldvUpVatQh7zwFqWnLNuRbugKlz+xJ3/f+weQj+vHs2TNat2Ej3bgRYLpjmzt371KxkuXMAyCuFKkzUO8fBpgHpOjAixcvacvW7eHmOabk92Pk3r37tHb9Rv40Ehl5dCQvX76k38b+QU+ePqV1q5bRsYN7qED+fCbX9wNeLgNv3uIL/wOUj7//df4UIs7BQ4fJp1gpKlC4ODVt0ZoKFS1Jadyz0qQp000+oh+22pA18ILg4uYepi/L5p2XFi1eapat6AD63Q2bNoeb55iSX8E+DlP40MH27N2P/Pyu0sL5s+hOgB8FXLtIu7ZuoFo1qpt8RT/OX7hIbdt/RUeOHjPdsQ0G4Wv6YDNqxM90+vghOnlkP/Xr05MmTp5KY8eNN/n6+Ll46RJ93bU7XfHzM92xTkzJ78fI/oMH2XJlWQeRkUdH8vz5cwoIvEklS/hSYZ+ClCGDO6VMkcLkKkQnbt2+TZ26dKd48eLRji3r6d7Na+R/+SxtWLOCfAoVMPmKfthqQ9Y4cfIUyy/yjL5sz47NVLhwIfry6y60b/9Bk6+Pn737DlDX7j3pQdAD0x3rxJT8CvZxmMJ3/0EQHdeFqEb1qlShXFmKEycOxdc7kBw5vKl0qRLsB28Od+/eowe6XyOY9kWngykF9R3+4P/mrVs8PXzm7DmzO8D/eAbTDrBIHTp8hDZu2kJBQQ9NPsKC8OBuzQ/CUPEbwwWwZODe/fsPeICzTLuRGwEBFBz8nHLl9KY0qd0oXbq09EWHduRbrCjt2rM3jNUL4W/fsYvzhrRZgjKAOy5jnBEtQwC/sLquWLmaDh85GsZNlRnixxS88a0OysSL4BeUIEECzrOtqZ2oyq+q4wMHD4eJyygHqDNYHWG9sQT5gnwgDIRlBPlEueBT+YMMWFog7ZUHUO4oS2tpAAg/ojIJP1jysGTZijfyDV69fMWyBysq6gBlAcKTRyXnKGtjmPjfmowb7yPNp0+fsVqOtnj65CmnA/7xvEKlI7LtzRKEielFlDvypMpBiDogz1eu+FG7Nq30tpyDYsWKRYkSJaJCBfObrbaqnizLH/Kn2igu/A8/8G+rTRrrH7IBGUFbMcqPAn4wzYz6t+bH2EfADeEqP7bakDVOnznLLy0eWbNwX+blmZ169eimj2NxdQXogMlXKKq/2rlrt9U0K9lHuzbGCb941ijrqsws2zH82upv8DzaAuLAs0a2bd9JbqlS6eUW8kabNBIV+UXa1fiCfsPohvyoPOF5WB0t0wpUXiz7K2CsW+XPchwD9soDKHfkwZp7jOZ5cLB2/PRZvQyjlsCbN7V8hXy1qjXraXpFm+6G5dGjR1r12g20L77uYroTyugx47Rc+QtrNwICzd89vPJodRo00ZK5pjNfDRq3MIcNv3imfqPmWlbP3GY/rmkzakuXrWA/IDj4hfbj/waHCQfXiFG/sRtYtXqtljl7Tm3m7Llafh9fdl+8ZJlWu37jN56zTLuRkaPHaN55Cmp6AzXd0bSHDx9qVWrU1T5r00F78eKFFhISos2Z+6/mli4z5zFtxmxa7gJFND+/q+wfaRrz+5+cD3Uh3k6du2l656Xdu3dfK1uxmtazdz/2DxBm+y++5ngQHwgIDOT043mvXPm15KnSc57B0WPHtZz5fMxuCP+vSVO0Y8dPaOkze4bJb2r3rNqBg4f4OUveNb/I6w8//o/TptwKFimh6R0Eh4U8tmzTXvvzr4nmcnBxc9f0hs3uAHlRdZYqXSb+RH0jbrBp81aWkzXrNmgly1bSUqTOwH4K+5Y2p9tWeSh0RZNlLFO2HHylyeCh6W/SJtfXRFQmJ06eZnZTV54CRbVz5y+Y25Gl+/CRo+3Ko1HOkUbEiXSu37iJ3a3JOO7hgj/IF+pahYtyXrlqDT9rCZ5R/tSFMPQB6q3bG+5ZsmHjZk6HMRzEs2v3HnZX/Qku/A9U2qyFFxPYufNNuXtXVLv/6ptvzXVkiZJt9M1GIH+q/FV9lKtUnduXsd5+/+Mv7gsA6gZttWnLNmH8FC1ZztwPArTPStVqhfGDdoX2qEB6ENc/s+Zo7lm8WD42btpstQ1Zpl2h+iz0oSqNAP0e2sS8fxfyd10B4TJCH+KVuwDL5hedupj7Grijz0JceE7J7qjRY9kdcov0oU9SII/oQ9GXKuz1N6vXrufv6CvRZ6LvXLdho7Z2/YYwecVl2TcroiK/GIdbte3A8aDPRH9Tr1EzTX+R1p4+e6Y1atqS+3ZjX4A86S+5HDbinTRlOj+H8BE28qX6K6D6/znz/uX8qr67W49e5jK3VR7A3tgTE0HfAN0OOp7CYQofCve3sX9whaBw8f+dO3dNrqFERuFDxU2Z9jd3QAhbf4vgTqJv/4HsR3VAFarU0C5fucL3goKCWNCyeefVzp47z/cWLFrMYaHRQWHChf9TpsloHtDUIAGF4D9d0YNAPHjwgNMPgYEbPhHn/fsP+BlLIIBQcoyDD+L6e+Zsjmvu/AV8b8my5Zpnzvws2MiXamRIgypDCOay5Sv5eaUAqA5BfzPjwXLq9H/4O1BK4Dddv+PvaIxQDtCgUSYIF/8jbUh/uw5fhVHMUcbPnwdzQ9Xfyrnj/bxjJ84vlC+kw5KoyO+evft5oFn43xL2C9DJwB8+kQeUBToNfL9w8RJ3Liqf6DzQiah8In4oFpAThA3G/TmBOxPfUuW500TYs+bM4zpFJ4l82CoPsP/AIU4/8oXwVQdtbfCIqEwiDGPb2Lf/IHdaqGPEgTIfPHQ4lxPKDeGik7Ynj5BzlCWUJPD06VOuH6QF+bIm40ibut+1e0+WNQAZQDnbermBnKAuKlatyZ0+0oFnUW5v296QFktu37mj3bgRwHUGrvj5cVtQA5XqT4wyqMLGZ0zEEQof6q1Lt++53KCAo32gvRlRsm0p99YUPvg7fOQo1xHksFffH7kNbtu+k59RdTTwp6HmeOAf40bzVu1YvlS7zOjhre3eu4/93L17T6tZt2GYlzWkB2HVbdiUB/rr12+wLFlrQ0pGLLl0+TK3cWPeEAbkDO0Asq7KCP2EihvtVY1byh0vjqqfUYq0etlDn42+G324Akog+iv0RcBef4N2jPZsVMzRT+F/5A19HsL/ecQoThP6C9V2jERFflV/g74LIB5Vl2rMQljjJ0zisHbu2s35RH8MMLajT1D5RN1CCVX9ler/0S9iLEJ9IhzIB8JGHPbKA9gbe2Ii1hQ+h03pYhqgyzdf0cqlCyljxgw0YNAQyuqVm3QNnfRGaPIVceLHj08FC+QjJ6e4HHblShWoauXKtHPXHp7OUmTL5kGZMmbk/5MkSULdv+1M9+7fZ3O4Lki0ZOkKyp8vL09XYJoZV8sWTSlrlsy0bMUqNhcrfuj9PdWtXZNN3UmTJqUUKVwoefJk7IZPmL6TJUvK3y159OgxXb12jfbu20dFSpTlnYIZsnpT5297UK/vu1P9unXYND9w0FD6rlsXnvYGMMGnTJmCcuTw4rUTemOlwf/7kWrWqMZpvXnzFukDH3lmy8b+YULXGwPl8Pbk70AXftIVDPL2Cr03dfrfvL5uyE8DuEyuXfPnRdmlSvhSvPjxSFce2J8CZezs7MRT8CiPwMBAnspBflO5unI6LImK/GJa9fnzsIvrEyZMyPX9SM/jlStXuT769enF91O7pSIPDw968fIFp3OKnk+EpfKJdFaqUE7/jMvlATB1kTFDBpo7azqvNUPYKVxcKG7cuJQkcWJ6+eqVzfJAOevKJtWuVZ1aNm/K4WNdENJd3LeYyfeb2JNJgKlvyJbC2ys75cubh86dv8BxoMwxpYa0Yp0N6iGxnlZb8ogpi3nzF1D5smVILZ9A+2nUoC5PZWFjhcIo40ibomrlijwVBNLr6UM5X73qb3UaDHKCunB2jkcJEibgdOBZPblv3d6MaVFw3tOk5nIAGdzduQ6v67JtOSUvvD2Q919/+ZmmTf6Lv3fq3I3SZcpOPfv0e6NtRATIfjaPrFxvkMMvO7Zjmd60eavJRyhFC/twuwaQ/9aftaD9eh8YEIC1wf48Dde+bRv2B1xcklPXzp14HatxDSuWngzo14cqli9HadOmYVmy1obw3RpYwoFp399+/4P7sRx5C1GmbDl5inDi+HEsu6vXrCX9hYV+HTGU2y+mordu28Fpc9X7oKXLV5CuKNO430aZ+xksedEVDUqfPh3Hgz44c6ZMettx4+/g1Omz3I7SpkkTbn+Dfg/9rhH0U6g/5A3+dCWIp+KRX/QXqu0YiYr84rtxahXxqLpUY1bH9u3oiw6fc/qyZMlCbnq+dUWep3j/mjiZ2rZuac4n6hZ9EPqcu/fumvv/enVq0fhxY7g+EU6SJInZr7OTs93yCG/s+VRw6C5dVDoEc+PaFXTi8D69obdnoanfpAWvrXgXMECn1Tt/e+t9gIs+mEMooGRiYTkEGwNF4sSvG3siXTBT6QPUFb+rUTZwKKWrZIni3PF4Zg9V0LAo9vvuXVkId+zarTfqJ1S6ZHHS3+yofuPm9OuY3+m3UcNZKfl34SJ+DoOg4tKly/yZRW+E4MSJU7rQpmT/Cih3+hser7+BMox1YVhLGfIqhMb8/ieVLFeJO9ROX3bkwfqzFs1o/4EDVKZCFa4fY8M1hmWPd80vBoWCBfJTmVKleGF19+97s3KigJKKjqFe3VocFsAaEVVfkIN16zdRuTKlzYqKkQT6QIN8QIniTQW6DCiwJkwpE/bKA8eOHD9xgjcdYZHzl193pY5fdaH+fXtzmBHFKJMAG5z+Xfgf1WnQhEqWrUS9+v7IA9zb8kp/sXn85CmtWrOG8vn4cieOq3O3HpyXEEP9OpKobm9I+5p1G6hV245U2Lc0v0ygToSoB4MuBteDe3fQ7u2bqEG9OjRx8jTq8OU377zjGQoYBpuvhEoAAFDMSURBVGn/G9bXvirc3dNTkK5gog/Dhf+99JchI65634fNJVgfGFVA6YodO5b+slie+zKnuE5UrGgROrRvJ79AwXDw78LFvDY5ha4wzJ47n4qXqUBP9Repnwb2Z/fZc+ZTFV1hQX+oOHrsOPdNyBeUuYt6Xw5F2Gg0wNo3d10hhKIaXn+DF1UoSIgfp2HsP3AozAsU1joibOPYYI13zS/G4orly1KmTBmpWq26NHzk6DAvBmrMgpFGKZzPnj3ldeEAyjqU9hrVqr6hkMaOE5uVOfT/AYGBVK1KJXP/j74D45PqX+yVR3hjz6eCQxU+I3irGTbkf/o1iM7rg+4FvYJjMrC84e2q6zedaMyvI1iw0PjWrd9g8kF0QBdIKErFSpWnbt/34TeP44f2csPDsxDYnDm9w1h/Dh85xp2cm1sqFmZ0BBDYpElfW0RwL4VLCsqcOaNZERs9ZhwVLFqSG9fCebNpysQ/zc/UqlmdjuzfTbly5aQWrT/nt0rVUIxh2eNd8wuQnnmzZ9DkCX9wB1OmfBVzR44OIXbs2Pzmq7hx4wbvIC5auLD5LRIdpRF0CK9evdQVDFd2R+ejFqIrYPWDAo1yBbbKAx0j8li7fmNq9llb7pgP799F7du1fqOjiijoTPv2H0hdun3PL0fff/et/kZegF7qb77vSvWqVVjhVtfu7Ztp68Y1lFp/24+OjJ8wmVq0aqcr5m7Ur28vHowExwK5xkwB2mSHz9vQocNHeeCNycDyljVLFho2dBD3ZQP69+F76CfAg6AgOnvuHFvxcusvUgsXLeGTCVYt+4+tXyif4ydOUuFCBc3KCdr5kSPHdaUoAyVOlIj7EfRd3t6e5r4DCszps2f1l+XslCxp0nD7G1zfdPqCFXJQsWpN+nvmbP4fWLMgWuNd8wtgld+8biXPvoz89TeqUaeh2ahjHLMU6M9huYP1/+zZ86y0q9kKgP727LnzlCZ1arYUwj/yi3gUyuqXL19uVjrtlUd4Y8+nwntT+BROTk5cOc7OzqY7obunlIIRUfCWCSGAspPEYD2wBNOMaDTYdQShgiXn9JkzurC93p0DczQUlkwZM5jN0O8KhBhmZ6Uo4S2rZvWqfK4RLFXgwcMgflPzu3Cadm/byMKqprJgtbS0gl69eo0WL12mdwgePMWMDgLTWRn0N0Y1PYHzljBVphQYvIU9e/acp2euXzlHUyeN56MVVCejQMP9Z9ok7kxWrFxjjvuY/oZpVIZs8a75VcCy0LB+XVq7YrFeBs9o/YbQxnvmzDnzmy+AvCBs1Ff5cqX5niWwAM77dyHlzZObcubIwVMX9+7f0xW519ZKZfUzliGwVh4PHjxgKyA6CpwzB6UDUyWRxSiTkMONm7ZSndo1eFdcnVo1qEmj+jyF+rYoOb995y63DaRRXagjlPH7ICrbG2Qd5w0WLVKYp+tQTo0b1qf8+fOafAiOBP1F7FixzRYXxauQyFuLbwbe5OlNb8/Xy1AsQfs+eeoUubqmZIUFykBSva/AjlHjWIEXOowFaEtRAeQMsqmULlCqZHG9P3PnGRfEjX4Fykbvnt/RretX+NixKpUqmNuVskYaOXL0OG3Zto3zDJlHnwh/amkOOHr8BB+johSYiPY3UMixdApKDPpE5MGWBdGSqMivAtP1mGKfM3M6K7zYQQtFF/2rGrMAwps5ay7PMmFWxxqwTm7ctJnjQd2j/4ccKAUTKKufsQyBtfKIyNjzKeAwhQ8DGrRrHDWBqTlcy5avpJGjx1BufcDNpg9o6ETixo3Da9WgzUPJwbqOufogbQkUl2kzZvL0G6bCRo0eSxs3b+GpBuNAjXl5xIP4YCHr0fMH8tQ7Ax+9stGImjVpyA1h0uRpLAgYfIYM+4Xn+Bs1qPeGImQJhA/hHD56LDRfuhIBoTaCRgJhNypKCLdRg/p647rGaQSwTB0/cYrzDpAWKChQZBMnSqgrOOnp8mU/3joOS1urdh05/3ly5+apRwUsVw8fPuI1YZgWPKS/nSkFBm9EGFjXrd/IDQ3TYif1OsH6Eqwnwf+IF6ADwludapyoj7u60oDO44aeTzRcawd4RkV+MfWHT6QP4Z3S0/Hs6TO2xiEdx44f15WgrHqnH6rowmKJNSe9v+/OSj8UTKx9W75yFcsH/IwY+av+fTV9920Xth7ijRllYpziUFY/vGkCe+UBP3d0/3tNxxQgXZC18M6psieT6DTjx4/Hb6qIF+lesGgxv2EbQUeHge3UqTNmuQPW5BFgvR6mLnAYssoP5GjPvv2c7vdBVLQ3RWy9nOLpL4l4DrICWcbxD0q2gOpPgoKCuCwgS3H078BflwnIsRA+UADmzlvAfQ3KEe1pxj+z6O9Zc6h4saJsqcEUYNw4cXkZBV6GULaQ2036y4slkGW4IRxY7Lv37MvPYo2WEaw1hqKAOKf/PYumTPubp/mg9KAvrFG9Cs1fsIh/wQV9LtpmvwGDyEsf4NGWwsNWGzKCNo/+SSldANOw9evW5r4EZYM2l9Pbi4+Fgjyjv8L9qdP/4fDhn5WUc+dY5jGmtW3/JY+JhSzOMfS/fp3HNpRvG71/x/NKgbHX30D+UVaqLePFHzM5SqHEfTyLqVUoxejXELYlUZFf1Cu+4z7a3FFduXVJnpz7WWUdRB1hzEIf1PuH/rRq9Vq2BqJfLuxTiGdhlq9YxeHhnMSvu3TnPrdVy+acF/T/RqURYLxAmjHuhFce9saeTwpH7dLFjiDLLfS4cA+76xTYsYSt2ModO/0GDR5m3v0DsHsIO3iaNG9l3tqOC7s11Q4c+MUzJcpU5B2Yyg92meGYDQV256jt38oPdupgqzfcgL2dfdj9hN1i6lkcDaN3dibXUNQuWctdjXrD5iM6cOF/pLl85RrmsHAh/7pixf6n/z3TfB/5wA4m7IRS2+QBjjcw+lm1Zh3vjFO7n8DkqTPClBvyi+fu3LnHu9nUfRWGsbxQLqqsPLzyhDkCQREV+cWua2Macan6DTTt8jK64cgF7OZVdQb0gSXM8SdIr9rtBrCbF+lEehXGXXHYmWavPFD3rdt1DOOOHYLbd4TuNrQkojJp2Qawy8yyPBFWlep1zH6+/a4X37clj/qAqI2fODlMuLjgF7sebcm4tfuIw3L3qyXKj6UMvGt7M2JZvy1af85HPxjTpdqM6j9u3rqllSpXme8ZdyHGFByxSxftEccCqXJWF2QfuycB6s7Y9yh3a7t0Ie/YPan8oe0a26Wq/2aftWXZUP50Jcm8Ux7gf9xT7rjQrnTFz+QjdKzATk4cCWSJrTZkBP0BxhpLWTx58hTvEJ4waSp/x05PxKPCQt+F3cdoeygbnB6h3DDmYRcq+hmED1A2xr4Gsoy+G8eEYDev8mOrv9FffDSfYqXCuCEe3AdIw7BffjW7FS1RVjt1+gy7GYmK/KrTONSFto42jzSonclGd8iDsc+0JkvG3cCq/4deYATf1Q7d8MoDdW9vrI2JvNdjWRQQWhQ2Lv1twnQ3LMoPPq1hbMRKAcCgZQTPo5NXAw7isrUNHahwcCmlMTIgfss0vA0YmDEo2co/8gF3+EOjRIeI7eQK5A/5VH5socrYmj97bgD39DdV07d3A2HZyq8tN9Vp4MgOuNtKJ1D1as9PeNgrD1XecLclzwr4iahMQpbgPzyZQgdrTV5tyaMqD8syfd+8a3tTqHA+ZF4+Jhyh8Ckgr5Abe7Kj/FiTPTwDhc+oAFprU0rhw6fqA+zVL9wQp73+3R622lBkUW3WmkyrfkKlEWOY5Tl4Spbt9SPh9Teq/G2VBeJQR0q9K/byq/ICd6MsQLHHUVq79uxld3t1purVXnmEh73yULIFd3vyFVN4r8eyKDCFptYP2VpLoPwYp2ZtgUWwMDkbpzStgbhsbUMHKhxcamFtZED84aUhImBKD+uqbOUf+VDrrk6cOqX7S827vBTIH/IZ3tosVcbW/NlzA7iHow6iAoRlK7+23DDliqmCzJkysrutdAJVr/b8hIe98lDlDXd7a2OsYU8mIUsIMzyZwvSENXm1JY+qPKyV9/vkXdubQoXzIfPyqQB5hdzYkx3lJyJ9IcIIr12qPsBe/cINcdrr3+1hqw1FFtVmrcm06idwASzJwckFmB5VKFm214+E19+o8rdVFogDR5NEBfbyq/ICd6MsYGcy0obNI3C3lU6g6tVeeYSHvfJQsgV3e/IVk3nvmzaEt0N/Owmzy+tTAru8LBfsCoIgRAewdg9rxbCmDcrmp4Ias/BzbUmTJDbdFT4ksWDuO3fxMuWyON/oY+Lx48f0+MkTcknu8sabhQIWIOwExA6yd3lD+FjRNI03TOAtJSbmzx7oMFG/OLvL1tvhx0hMl0nhw7Nr10Hy9Y34GZDvE9VnAXttFwvt799/wNaviFgKoxuqH0iYIMEnZVn6lMesjwH0DUlTJKHsWTPrY1ColTdaKHyCIAjCm3zMCp8gCB8OawqfTOkKgiAIgiDEcEThEwRBEARBiOGIwicIgiAIghDDEYVPEARBEAQhhiMKnyAIgiAIQgxHFD5BEARBEIQYjih8giAIgiAIMZwYp/DhsMfjJ07Snn37+X9BEARBsAbGiCnT/qY0GTwoear0VKhoSbp1+7bJ9f3w5MkTatfhK77wP9i8ZRvlyl+YPz82AgJv0vqNm8xpFaIPMU7hu33nDrVu15E+79iJAm/eMt0VBEEQ3jdnzp6j7Tt28c9sGXn27Bmt27CRbtwIMN35MPhdvUojR4+hqpUr0rGDe2jBvFmUJPH7/RkwKJ0Yq3ApIwXKx9//On9+bAz/5Vdq2KQlbd22w3RHiC7EOIXPNWVKmjF1Ik2Z+CeldktluisIgiC8b8b9OYF+HjGKnj9/broTCn5btm37r+jI0WOmOx8G/PQXftataeOGlCGDO2XJnInix49vchWs0ev77rpiPJNKlyphuiNEFxyq8OFtBW9QK1aupgMHD/NvJhrBbwxeunyF3fEmiO8K+IVpHfdw4f+n+tvO3bv3+LKcrsXvrSr/6dKmpeweHiaX1yBMmKNxWaYFYW7ctIXfRq2lE+lbsmwFnT59hl68CPu2KgiCEFNQ/S36QfR1hw4f4b4xKOihycdr4OfUqdPcN1rr41+8fEHBwc/ZenXz1i1z3wmLH+KBsoX+GP23AvcjMy7gnvE+4kA/vXrNOo4zIqh0GMcWYzpQBpb9Pn7jXfmHG+K39KPA/QsXL3FYGGPwbFSAOkHd4EJaLLE1rtkqR6TLWE8KuKlxM0niRJQ3T25ycnI2uYai/FgbXxEu0mBNjsLTE4QoBL+le/z0Wb3Mo5bg4Bdatx69tGSu6bRM2XJormkzavkK+WqBN2+yu7//da1StVrs7uGVhz/LV66h3QgIZPdVq9dqmbPn1GbOnqvl9/Fl95Wr1mg9evXVvPMU1C5fucL+wNOnT7X6jZrzdfv2Ha167QZ8PXr0iN31zkUbP3EypwHh4MqVvzDHhXT++L/BfE+lM00GD239xk38rN4RaQ0at2D3rJ65NRc3d612/caaLsDsLgiC8KHYufOA6b+oA/0i+kf0p+jzVJ+JvnHpshUmX5o2cfI0s5u68hQoqp07f0Fbu37DG27oV3ft3sP9p6XbF1934TDfZlzAPVwIv1Pnblpq96zmcNFfY9ywBuJU/tSlxg1jOtSFstiydbvpaU0bPWacVti3tPbPrDmaexYvjl9XDE2ur9mwcTOnwxiWKguA+CzHLOQH/vBpC9QF6gQXxi74R7mD8MY1W+W4bsNGTuuCRYvZn2LCpKlaRg9v7eTJU5xvY17tja8hISHapCnT2S1txmx8IfzJU2fws+HpCcLbg74Buh10PIXDFL5Nm7dy5a1as850R9MePnzIwvHixQutXYevtApVamgBgaENWX+T07xy5dd+Hj6SvyuBL1m2kvbfkmWan99VLSgoiBtJqnSZwggkhBDCi3vWGg8aBoRs8NDhrMABlRY8kz6zJzdKAOXxszYdOG3wO3X6PyzoR48dZ3cIMJ7FpyAIwofEkQof+kD1Yo2+t1HTllo277za2XPn+R6Uojt37vL/YN/+g6wIjBw9Rnv67Jl24eIlrWLVmnzhfwziz58H8zNz5v7L/Ts+Ed/9+w/eaVxQ97t272lWFtSzSpm0BHFCAYKCqNKBtAXrYyLSgX5/99597Pfu3XtazboNWcFDvgEUH8RZt2FTVpSuX79h1RBw+84d7caNAPOYccXPj5Wa9l98zffeRuFDmEVLlNW+/a4Xj2MAZY4LhDeu2SrHe/fua2UrVuP8oz7Us1D+1T1Lhc/e+Lpn735Ox98zZ3NecW/gT0PNRht7eoLwblhT+Bw2pRs/fjyKG9eJAgIC2GQMEidOTHHixGHT9sbNW6hj+3aU2s2N3bJn86BSJUvQZT8//q74off3VLd2TV5fkSRJEsqZIwebk5csXWFeCLxm3QZed+FTqAB/NwI//y5cTJ7Zs9GXX7SnpEmT8H2k5YXuNm/+Aipftgyp9QgIp1GDumyWfvL0KSVKlJD0txDSOxE2PceKFYufxacgCEJMJZveJ2fKmJH/R9/b/dvOdO/+fZ7eBOnSpaUUKVz4f+DtlZ3y5c1D585foPjx4vEaamfneHzhf7dU+O7EzyRPnoyfwWea1G6ULFnSdxoXFNh8gXhAej19Hh4edPWqv9UpVMSZMkUK7stVOpA2/+vXefqxfds2VLSwD/t1cUlOXTt34rWHxnWHCRIkoAH9+lDF8uUobdo0lDBhQpPLaxBHmjSpzWNGBnd3KuxTkK7fCHjrna5xYsfhuO/du2cOA2WOC1Oi4Y1rCstyRDlUqVSB83/N35/9nD5zlk+9qF6tij6mx+V7CnvjK8b6hYsWcx3WqlGd8497tWpUYz9YP2lPTxCiHocpfIUKFqRmTRqS/gbC28vH/P4n6Zo7u+lvDPTs2XPq2acfu+HKXaAILV66jF69fPXG+jwjEKjGDRvQnr37WCDRkNdt2EQ1q1eljBkymHy9BouF79y9SylTpuTGYOSVLqyPnzylVWvWUD4fX3NaOnfrwcIXol9VK1eiEr7FeFdSkeJlaO68BR/lzilBEARH4uLioisFien69Rv8Hf3gvwv/ozoNmlDJspWoV98fzUrC2/Au40JUgvV8QfpY5aUrsEawITCePoZgXWFkwFgCo0Srth2psG9p6vxtDzp2/ITJ9e2AYta96ze0YtVqyuqVmzp17saKNojIuGaPOrVq6ErjM9q77wB/x9Ew6XRltlTJ4vzdiL3xFTx4GMQKsm/p8uZ0NG7WitdshoSE2NUThKjHYQqfk1NcGjXiZ9q/e5v+BlGLd2qVKFOJ35AUwwYPog1rVpivY4f20cjhQ8O1nlWpXIFix4nNAgkhv3Dhgv72Uv+trW7Vq1YJk47d2zfT1o1rKLX+xgcFc97sGbR+9XIqVKgAderSjWrXb2x1gawgCMKnACw7ffsPpC7dvqfi+gvx9999qw/eBejlixcmH2/P244LHyvjJ0ymFq3aUZo0btSvby+z1e1dqVWzOp05fphG/DyEdu3eQ0VLlGWDhMLeuGaP7NmzscVy+YrVrPzCoFK/bm2z5TSyFCqYn1YsWWhOx/Yt6+nw/p2UJzc2foSvJwhRh0N36aKBZvPISsOG/I926JUM0/Oatev57SRpkiQUEBjIZnTjBTN7eMCSV65MaRbIZctXsdk+V05vk2tY8EYGk/qtW7f0t56w5nPldvvOXd55ZExHKldXs1kZn5gu/mvcGFqycB4dPnKUDhw6xG6CIAifAlevXWPLjJdndrp7D7s/t1Kd2jWoV49ubBVq0qg+98Vvy7uOC1GFSse+/QfCWBVxZiCsmsh/RMGYh/MGixYpzFO/KKfGDetT/vx5TT7eDUxBt23dkvbu3ErVqlamOfP/pVevQiI0rtkC07YN69elvfv20eq169igUrVKJZNrWOyNryB92nQ8jZwgfvww6YDyCGUP2NIThKjHYQof1rxhTQa2d6PR+PldpUePH1PWLJnJPX16qlypAo0eO45N3fADUzO2wEfE1A0BqV+vti4U6+jPCZO4ESVKlMjkGhYIL0zGeGPo1ac/pwkCCMvgw4ePeF0D3o5+G/uHebs4rHdYs4C1EJevXOEpDKQPF75jTQoajiAIQkxl2/ad+gv1Su4v9x84RD16/kCeurLj41OQlQasv7py5Sr3mxikFyxaTAcPHTY9/VoZ8Pe/zv0u+lE1XQelCn3z4aPHOPyAACh5qd9pXIgqMD7VqF6F5i9YxL8oAWsm1rH1GzCIvLw8Of8RJbZeTvGcnbkMMPWJPOH4EZStAuNZ3Lhx9HIM4rJAnuPo34G/XmbW1h9C8Tx56rTZDWGjfNOnS8fT7uGNa+GB2aykSZNSn34DKFfOnOSt59sa9sZXrNGrVbMa3b59h37832DzETlIM9KGT3t6ghD1OEzhO69XeLGSZSlVukzk4uZO9Ro1o89aNKWKFcqzkAwa0I+tdE2at2I/KdNk5J+1OX78pCkE+xTx8aE8eXJxx4EpXnvg7eSXYUNo1Zp1HId37gJUrWY9uhEQwAtRhw4eSL/9/gdl9PDmn9fBmoiJk6byszt27qac+Xw4fbi6du9JfXv14MXJgiAIMRWX5Ml5ig39ZcWqNXXFhGjS+N/5ZReKHBb87z9wgPvNdJmy0569+8MoBujnYX2CMlK6fBXuR6FwgDy5c/GL+jBT+N90/Y7XdL3ruBAVIN0D+/9AFcqVpUZNPyPXtJn0sawcK7AzpkyI1Ms+1rX10ccLKLp5CxbjPM2ZvyCMlRAbPTBlCqUW6yFv6QpS/nx5eXPidz370KQp000+X/PkyVP6ukt3Sp/Zk8cslCEUxT49v2MFMrxxLTxggUOaoLQ1b9aYN33Ywt74inFy2uS/aPXa9eSZMz+nA2keMGgIPX8ebFdPEKKeWNiye+7iZcplsUA1KoAAwvQPEzNMy9ascNDyHz56TLFjx9I7GBezmdcRqPRghxN2XaFhKPCGce/+Pb3T0d5Iq9ENCqa1xamCIAjvm127DpKvb8QtThEBFhooeCVL+PIyFkzjou+07DMBrEVY52WvX4TlBv08+lRrzwPLZ9/nuGAPlQ5nJyer+Y8oagxJpCt3tmaj3gbUDX6QwFb67I1rUY298dWoC2B61zhFHxE9QYg86BuSpkhC2bNmZvkADlX4BEEQBMfxPhQ+QRCiH9YUPodu2hAEQRAEQRA+PKLwCYIgCGZSuaakTetW0vAhP5nuCIIQExCFTxAEQTCDHbjYmPA+j0IRBMHxiMInCIIgCIIQwxGFTxAEQRAEIYYjCp8gCIIgCEIMRxQ+QRAEQRCEGI4ofIIgCIIgCDEcUfgEQRAEQRBiOKLwCYIgCIIgxHAcrvDhdxQDAgJp9Zp1dOrUaf5tQiHmsnnLNipSvAwdPnLUdOfDMXX6P1S8dAU6qcudNfbuO0Bu6TPTxMnTTHeiB/jpq/UbN9GTJ09MdyIOfltz5OixlCJ1Bv4h8887dqLg4Bcm16gFv5F56fIVWrFyNbd99bupEQF5a9fhK+rRqy+HAyxly5qfqObW7dtUtWY9GvfnBNMdQRCE6IlDFT6/q1epSo065J2nIDVt2YZ89cE3fWZP+r73DyYf0Y9nz57Rug0b6caNANMd29y5e5eKlSzHA6u6MND2/mHAWw3W75v5CxZRmgwedPDQYdOd8Dlw6BA9efqU0qRJY7rz4QgKCmKFIzg42HQnLBs3baaUKVNSlcoVTHeiBigkaTNmo9/G/mG6E8rWbTsov09x6tt/oOlOKMr/kJ9H8AtSeAz8aQg1avoZK6wAStyWrdsjJJOr16ylX0aOpqGDB9Kxg3vo++++JWfn0N9ZjCqgfC1YtJgyZ89FBQoXpxatP+e2X6hoSbp2zd/kyz74Qf5de/ZS2rRp+CBgANl6+OgRuaVKxd+VH/f06c1+opqrV69x/WTzyGq6IwiCED1xmMIHxahn737k53eVFs6fRXcC/Cjg2kXatXUD1apR3eQr+nH+wkVq2/4rOnL0mOmObTAAX/O/TqNG/Eynjx+ik0f2U78+PWni5Kk0dtx4k6+PlwMHDlGa1KnJ3T296Y59Xr58SUeOHCePrFkoaZLEprsfJzdv3aJFi5dSuTKlKWOGDKa7UQMUkuTJk9GrkNdWJ5TNjH9m0eUrV+juvXumu6EW8Flz5rH/li2aUqxYsUwutun5XTdavGAulSjuy98vXrpEX3ftTlf8/Pi7Pdau30g5c+agpo0aUoYM7uTt5WlyiRqgfOKFrsOX31CjBnXp6MHddO/mNfK/fJbmzZpBqXV5igh4Wbxz5w7lzZObvyvZ8syejcsKKD+5cuXg744A7T1u3LgRbgOCIAgfKw5T+O4/CKLjJ09RjepVqUK5svwGHj9ePMqRw5tKlyrBfjDY3b17jx7ofo1g2hdTKWqaBt/hD/4xUGN6+MzZc2GmcfA/nsG0EQadQ4eP0MZNWygo6KHJR1gQHtyt+UEYKn5juAADD+7BuoCpNcu0G7kREEDBwc8pV05vXXFyo3Tp0tIXHdqRb7GibJmAlQ9pRZ6M012W5WJMA9ww0MHKCD8RAeW3fccuvuyl1wjSdvrsWX2A9aCkSV//xBLSgrJHHSDdRh49ekxXr10jb09PiqfXNSwjO3ft5jzaA2lC2jD1B4sc4lAY6x75P3DwsM16hbvKJ56zx9Fjx/W4LlP9erXNShbSefr0GVqybMUb8qXqRIVrTJclsXVZh7yfO3/BdIfo3LnztGfffnJNmdJ0JxTU5XI93y2bNQmjeCJs5BP5NeYFaUqiK9P58+UlJ6e4fA8vHy+CX1CCBAlYJo2yZOTRo0ecpvTp0/ELGepP1Y2Sq9Vr1/OnMV+W8mcsB0v+mTWH/p45h/4Y+yu/6CBPKN9EiRJR7lw5zWkGqrwhS9ev3whT3n5Xr/EzqkyMspUwYUK+Z/SDNKFN+OsvWNawVZ4KY1qwBEXl/8yZc+SulxcsjUCVheofBEEQog3Pg4O146fP6v1b1BJ486aWr5CvVrVmPU0f0E13w6IPQFr12g20L77uYroTyugx47Rc+QtrNwICzd89vPJodRo00ZK5pjNfDRq3MIcNv3imfqPmWlbP3GY/rmkzakuXrWA/IDj4hfbj/waHCQfXiFG/sRtYtXqtljl7Tm3m7Llafh9fdl+8ZJlWu37jN56zTLuRkaPHaN55Cmr6IGS6o2kPHz7UqtSoq33WpoP24sULbdfuPVqaDB7aps1bTT409o/n8Dw4feYs523R4qVa05ZtNBc3d447o4e3pg/27McayM+Y3//kMlAXnuvUuZumK64mX9ZR9Tdo8DDTHU3TlSRzeaRKl4k/UZbIB0A6UW54pmzFauyOq0nzVtrTp0/ZjxF94OX8KH/q+qJTF7N/1L1Xrvx8T+Ubl2XeDx46/Ea95y5QhMtWV/5NvkJBett1+IrTeO/efb5nzJu6CvuW5jwBJaudv+2h9RswiN3xHfctsSbXPw8fybKJem//xddaSEgI358waSrn78LFS/wdZdKzdz8OP7V7VnOeR40ey+5KNsb9OUE7dvyElj6zpzm96pkDBw+xXyMoR6M/XKhf1DPCrFStlvl5fLZu19GcNyV//y78z+wPbcSSa9f8tQKFi/Ozqi3ZYvuOnebyVnnIU6Coua2gDIqWKKvdvnOHvyvZmjr9H/4O4Ad1NOTnEeZywqeu2Jl8hF+eAOVlrHukB2X79NkzrVHTlnzhf4TV8avOLHvG9voh2bnzgOk/QRCE16BvgG4HHU/hMAsffny7beuWpCs0VLBICdIVD37LfluwHq52zRp06/oVniKa/fdU2rp9Ow0f+avJRygPgh7QxnUr6P4tf7p68TRP2XX/vo/Z2rJ0+QqeTv3xh948zYwL/w//5Vdav2Ej+wG6IkB/TZxCA/r35bVO5cqWpmmT/qK/xo1hd3ximnb4kJ/4uyVqCiprlizmHyGHReC/Jcto/4GDVKN6FZ4qOnX6LMWPH89sQQBqqkpNZ+E7LCD9B/5ELZo21svgMi377196/PgJbdu+k/1Yotct/fnXRBqm5wvpDrh6kU4c2U+ZM2WirFkzh7vmCWutAgIDycsrO3+H9aNug6bkU6ggl+sNvwv0Q5+eNH7CJDp46Aj7QTpRbosWL6ERPw/msu3auRNt37mbp8YscXZ2pqE/DeSpftQX6hV1sXjp8jAbLQJv3qJs2Tzo8rmT7G/povmkK4RssQGw9mEaMUuWTDxtDj9njh+mQgXys7sl1/z92QpYpVIFnh7E89169KLYsWPTwb07+Hl8or56//BjGIvQnHnzKfh5MC9NmDLhD7Zk2uLJ46csB7oSw3lq06oF5cuXm67fCGALKqxEU2f8Q3Xr1KYsmTOxlalPv4G0fNVqWrdqmV7G52nrxjWUOHFiyq7nHyjZ8PTMxmWyce0K8vb2oob167I8Hju0h/LlzcN+jbRt/RnNmjGFZW7i+N/ZL54F9Zu00OUhLpcd4pys52vp8pVs7QNK/gYPHUGNGtSnIwd2kbLSG9mxazdbaNu0ahnGkmcJrGxY11elciW6fuUcXbt0hj5r0Ywt4EmTJjFYl7NTMpN1GWlAPeTwDp2CVn7Qrh/p9xHGgT3bKYWLiy5/S9lPRMoTaanXqBnL9cUzx7nuL509ocfjpctFEJ09d4Hy5M5NT588pZZt2uuyvIuWL15AZcuU4ucFQRCiCw5T+DCN0+Wbr2jl0oWUMWMGGjBoCGX1ys2dJgaPyBI/fnwqWCAfDyQIu7I+WFetXJl27trD06sKDIKZMmbk/5MkSULdv+1M9+7f5yleDL5Llq7g6bB2bVqx0oMLa6eyZslMy1asCjOV9UPv76lu7Zq81gnTmilSuJjXD+ET07RKmbNETUHt3bePipQoS7nyF6YMWb2p87c9qNf33al+3TrsDxsioISldnPj7wBKoLOzrgSaNj6cPXueFYvpkydQzRrVOM2Y1nNycqJUqVzZjyX79h+kn0eMosH/+9H8zE1dcboNZSFbNpMv2ygFDYvVUSZTpv9NKVOmoCE/DeByRXiVKpTTP+PyujRw4sQpnlac9NcfVNinIPvxLVqEFSeUvSVQPqDoYKofoF7VQIq0KlD3FcuXZWUAeHpmJze9vDDgg5OnTtHhI8eoY/t2rDQA1BXq2Rpr122kZ8+fUZ1aNfi7eh71AjkA+Pyiw+e0e8++MFOzRQoXph/79ealCWnSpOY8WIJpxgwZ0vNLyvPnz2nFKigZiahM6VIUJ/ZrRRubOAJ1pbp1y2acd7yMYD3fuN9GcfnhHpYFhISE8DQsgGyoaUyUG+oGYRTIn4/lES9aKHdLIKc3b91muYFCCL8oo8VLltONGzfo1xFDuewQZ8kSxfn/kydDlW4lf1AEO3zehtuXmlY1gpcPlAnW2dkCynWvvv2oWJHCNLB/Hw4HyhsUugzu6TlvQQ8f0YWLl1g5VuUL2cIGGzXFq/w0a9KI/vdjPw4HefLy8qQXL0N3HYdXnpjWHjrsF8qZIwdPP6M8APoYlCH6qcCbN8nVNQXVb9ycX2bWrVyqK4C52J8gCEJ0wqG7dNHBFvctxpaEE4f30Zcd29NKffCDRQHWjXcBA0FafXBRa4ts4aK/8WOQQ+eNwReDcAZ3dx6AFYn0wSJVqlR0xe8qDz5RAQYKKEIYPCuWL2ceBDesWUHfd+/KgwosFhcvXWalyqg4wpqm1g1hQMdaOAzS3iZrGwhdQ/RSHwDdTXdeg2f+XbiI44TCqrikxwWymJQae2DtkqtrSn3gT8dxrVu/ia2laoekkQS6QoY4T5w8pStEhfQB1MvkgoH5IQ+e1hQjgDVnPw8fSSXLVqI6DZrQH+MnWlUO7aEUfmtlYQnKHGv0fAoWNJeDrefxHZZErOmKLE5xQ3e+Yn3i/AULqXHDBmaFFWAn8+w589kyBwsdlA98r1K5IsuMAmsNUeZq04DlCwI2Bj169Ihy5Qx/44Lls5D1FatWU9HCPpQlaxa+ZyRhogQ25c8aULRQ11jDaIu9+/frcnKavv7qC1bkAcr/7LnzrKCjz7h+/Trdvv36xUTJFhRNVYbwgxmDenVrma2JsOghTyj7iJTn0WMn2CrZvl3rMHWjwA5d1H/f/v9jhXfR/NnmFwpBEITohkMVPiN4ox425H/6NYjOn79AF6xM8cUkYLHAYN/1m0405tcR9Nuo4azUrVu/weQjVBnADktvb08e6ICaqlLTWfADa1vmzBl5KkoBq4vR4mEEz+w/cIhy5vQ2Wy0ArFjYNODm9qbSZgQK9LHjr3fbKsugcdoZQNmA0gkro0on0qOsPxio9+0/EGbRuxEo4bXrNaIly1fyZhZYXTGgOnIxPJSNAwcPUfNmjc0KhyNA2WHqdev2Hbryctd89AusssgfphJPnDxJLZo14brH9PnxEyepcKGCZgVGLQvIlCkDJU6UyGAJe/3CAkUohUsKlg97WHsWU6FXrlylFClTmK2sICAgQE976IuRqldMgRrl723ZtWsvW4qzG6yASJeapgaIj62/JoXcWhrwHVPwygoOYKlEeypYIH+EyhNlh7JHXVkD7QXWfVgRT50+zS9ngiAI0ZX3pvApMOChM8f6LcWrl69YOYgMeINHp4+3/iQGa50lmFbFgOHlmZ3f0lOmSEGnz5wJczQGppkw6GTK+FpZeVegkGF6TQ3EUIRqVq/K64vU7lZ8wrphnGI9evwEn6+mprPuP7jPilGeXK+nkZTVxWjxMAKFzdKCCmvF4qXLdEUy7K5ba2CK8Jg+WBp3RFoCa8q8fxfyOkNMial0YrBVnDlzlhb9t5SaNm7I5W7JiVOn2LIzsF8fXsOFKdYG9epEWhFT0+yw2ITHwkWLycUlOfkUKmC6Y/v503r6MUWNacrIAjnHFOCUaTOoUsVyZsUcygUsraNGj+FjVbBzFUAOYA01cuTocdqybZu5HpQlzDjVeezECVaMLHf/WmLtWWtAtrBbGmVStIiPuV4jcnxLZl0esV7xuJ4mW/jfCLuLFnI0Z96CMDtycRyQ8cVEWcuNabDcPYt0z5g5h+WscsXyESrPBw9eLwWxBMohpvJz6HEO/LEvWx9x9M27zkwIgiB8KBym8EHJ+nvmbD5hH9N2uJYtX0kj9YEud64clM3Dg9+u48aNw+vNMBhBUdm0eSvN1RUJSzC1Mm3GTF63gwFo1OixtHHzFlYQMFgosI4I8SA+WLl69PyB13z5+BTkga5Zk4b8pj5p8jS2ekDZGzLsFx6oGjWoZ7a02QIDIcI5fPRYaL4CAt+YglQKmXEgRrhY8I6jJCw3Wvhfv875wzltbdp1ZGVWKYGXL/vpyundMFN24VldEidKyIfR8rN377El4/MvOvFGDCxAN1pzANKLTRIoVyiGWJwPi0uD+nXZHQMxpvOWr1zFflBuI0b+yseJfPdtF1Y6EdeDoCBe+wYLFtZMttLzkjt3TrbcWQNTbygXxI00oA5QxyiLyIA1VUWLFKYx4/7kX6BAvWCz0ML/lph8hAIFe9OWrax4K+UC4PlSJYvTn39NomO6wo363LFzF40eO47KlCoRIWXHEih2UFRwZArq3ShX6j7WCCrlS53dd+bcOS5ftIPO335HDx8+okIm5RRWK9S92syD9nL3zl2epr6hyyEUFCiZ1lBWNPUswAaHQgXz8wYWWMOgfKHNjh77B339ZUd+obAmf7bA8gGE2bV7T3M9oL2O+m0s30O5QmZhPeTzCHXZ7NPvR15rZ5xqfvAwiJdhoG0iTZCHZ8+e84sA8q8s0JkzhVq94W/4yNG6cj2dlTPMJkSkPKHEoa3hbELEA/n4a+JkbluQ5bP6s1kyZ+awfhrYny2IaBvwKwiCEO1w1LEseqduPsLBeOHeFT8/ky+Nj0xRx4Xgqli1Jh/rYXksS8o0Gfl4D+PRHDgSRB3/oI5lKVGmouZbqrzZD45bwJEbChyHMWnK9DBx4riGOfP+NR+VgSMncN/a0RM4qgJHeqhncTSMPuCaXEPRB10+8sPyyBZ94OKjOXDhf4RVt2FTc1gtWn+urVqzjo8TwbEQAMdveObMr126fJm/A/yPe3CzxfS/Z5rDRRmsWLmay2fevwtNPl4TFBSkValex+wfZYMyUuUBLI898fDKo61dv8HkGlqPOK5CueP6vvcPHLYtUHfdevQy+3fP4qX98OP/+CgVVfaoe8ujVVRdG8sXMmWUNxzXMfCnoWGeXbBoMcuPtSM1cByIpbzWa9RM05UsdldHrdg6isUSxJE8Vfo3jqRRsmV5dAnKum//gea4kZbFS5dr2bzz8tE9AHWnjgxRQG6VLKNOtmzdbnIJC44zsXwW+Pld1YqWLGeOF21h8tQZ5rq3Jn/2QPxeuQuYw1PpwpEuusLHx6sgPNxHusdPnMzH1KhjioCSXbd0mbVde/ZquiKmlSpXme+h7d2+fVdr3Owzc/i4IOOIW6U7IuWJ8oe8GcNB/3Py5CnzkTfG9qK/QLD8zJozL0zb+JDIsSyCIFjD2rEssfDl3MXLlCucBdlvC6wPDx+FHmuBxf3WdrUqP5iaNVrrFPiJKrzBr1q2iHLlzEn37t/jackw644Cb5LeWVPJEr6EI1NgCYClCdN31qx2eEtHOMAluYt5nU9EgZUBWFrLIotKRzzneDZ3/L4tKIPgF8FsdbG2c9MIygrT3K9ehbBlxFq+VFpRnrbCRJxPnz2zGYY1IpPO8EBYwLIsYV36olMX/jWKRfPnWJ0KByr9tmTVkejt0WyhsyW31kDd4efjMP38Nqi6R/xv0xYsMcqSs5PTG3lB28GUa2RkxBpKHuPGiWu1vCJanqrObfU/HzO7dh0kX9+Cpm+CIAihoG9ImiIJZc+amfth4PA1fOhAcVyCvSNMlJ+IdLYYjDDFEt5AgbiwYcFWJ6/CwfU2Axzif5fBSqHS4QjlAmHaOqbDEviBX9SDrXyptNoLE3HaC8MakUlneCAsa2WJX7rANGPN6tVsKntApd9aGI4GsgqZtSe31kC5va2yB1Tdv21bsMQoS9byAtmIrIxYQ8mjrfKKaHmqOo9uyp4gCEJkeO+bNgThQ4CzIPfs2EJfftHedEcQBEEQPh0cPqUbFWDK9/GTJ3anm9Q0krOT8wexzgiCILxvZEpXEARrfJAp3agAUy3hTTepaSRR9gRBEARBEMIiU7qCIAiCIAgxHFH4BEEQBEEQYjii8AmCIAiCIMRwROETBEEQBEGI4YjCJwiCIAiCEMMRhU8QBEEQBCGGIwqfIAiCIAhCDEcUPgeD3/jFT3o9efLEdCd6Yi0fx46foCLFy1DyVOn5gvvFS5dpy9bt/Dun0QUc2r17z146eeq06c77BWXV5vMvqFqt+hQU9NB09/1y/foNjl/V5V+Tpphc7HPr9m2qWrMe9e0/0HSHaPOWbZQrf2H+dCQPHz6kdRs20p27d013BEEQBFtEC4Xv2bNn3LHfuBFguvOa/QcO8fWxMvyXX6lhk5a0ddsO053oiWU+Xr58Sb+N/YOePH1K61Yto2MH91Ce3Llo0OCfqWnLNnTi5En2Fx04c/YcNWnRmr7v3Y9/1eV9s33HTlq1ei11+qK93d/5dSR/z5xNh48cpTn/TKOTR/ZT7RrVTS72efUqhK75+/Ov3CjQXv39r/OnI5k9719q1PQz+mfmHNMdQRAEwRbRQuE7f+EitW3/FR05esx0JxRYm34aOowmT5tuuvPx0ev77rRg3kwqXaqE6U70xDIfz58/Z6tfyRK+VNinIGXI4E6p3dzop4H9ae7M6ZQrZ072Fx3w8sxO82bNoF+GDX7vP6APxXnm7LmUJUtmKl68mOnu++eynx8VLJCf6zddurR8few0b9KI/p37D33WspnpjiAIgmALhyl8mqbR3bv32GKCKTNYUVavWUc3b90y+XgNprQuXLxEK1aupu07dr1hZcGgiDDu33/ASsaDB0F8H3G8fPmKnj55yvcxvQR/CsS/cdMWDvOZrqAo4Ad+1T2Eh8t4H2EHBARympF2Y7gAU28IGxfisUWSxIkob57c5OTkzN+RN/hH+IjnwMHDHEZ4U3nw73f1KpcRnlFpN6YZ5Xjo8BG74dkqE4WqN5SnSiewzIdClb26nJydKWdOb4odO5bJRyiIS/mxFq8C+UF5L1m2gk6fPvPG1DC+4z7KAeWh0geMZQt/XC7PnvOnkhmFyqfy7+GRldKnS2dyfQ2eQ5oRhlEG8P+ly1c4HdbkA3lEGUN+IEfGdBq5des27d1/gMqUKkkpU6Qw3Q3/eeQV7rbqOrz0WSM4+DkF3rz1Rh2puGy134hiTBPkVNWtZV0oUPaW5Y60IA14FrKWJ3dus5KONCv/Sk7s9TnGtqLkRaVJEAQhxvE8OFg7fvqs3s9GLY8ePdKq126glatUXSvsW1pL5prOfP3+x19aSEgI+9uwcbPm4uYexj1NBg9t1+49mt65a7XrNw7jhuuLr7to4/6c8Mb9XPkLazcCArXg4Bfaj/8bzPcyZcuhuabNyGGu37iJ44Qf+B05eozWul1H9ocw1f02n3/xRpq79eilvXjxgp9fumwFh4kL4cN97foN7GbJ6DHjOG59cDF/98qVX/uiU5cw+c7o4a0dOXqM/ViC/CB++FP5yVfIVwu8edOc5vqNmmtZPXObw4MfpFMRXpmAK35+WqVqtcxh4EJ6gTEfq1avDePH8lL1AHRlXRs/cTLHZ83diD7Aaw0at2A/yAvKB/UPOQBHjx3X8vv48n2VV9QfZA0gjai3f2bN0dyzeHF6d+/Zx2VToUoNDl+BsoPfHr36ajduBHCaIAMKXfkwy4a6lLu//3VzOXl45eHP8pVrmPN08NBhc/pVOiGv1ti0eauWPFV6bd6/C0137D+PdjNpynQuz7QZs/EFf5OnzmB3EF76jKA+UU7wY7xQx8a4jG5fffOtuU4QpmXZKfnAp8KYJnUhb1u2bud4EGbuAkW069dvsP+nz55pjZq21DJnz6mdPvO6f+rZux/XG+rPMh58Ii+dOnfTUrtnNceD8lm5ag37AQjP2L6Rvxp1GpjlOzqxc+cB03+CIAivQd8A3Q46nsLhCh8Gg8NHjnKn/vTpU61X3x+5A962fSf7u33nDg+4SgGE0gFlpv0XX2v6m7p2585dbc7cf7ljxicGmPv3H3D4x46f0LxyF9Bate3A9/U3eVYwFixarKXP7MnKJEC8n7XpYB701SAFpQBK3/kLFzkN6n7REmVZuUBY6lnchzvSC/dvv+vF7hy+PjjhsoY1hQ8D/C+/jjErIBj0UqXLZFauLIFSgEFp1Zp1pjua9vDhQ45fpRl5u3zlCrsFBQXxYJnNO6929tx5vhdemaj6QtlD4UDYUBLVwG7MB/J64eIlrWLVmuayV9fgocPNZQWgdKK+cV/lV6XdkqnT/2HFF2UPIBPwi088i7S2bf+lOU0oNwzsyBtAGiEndRs21dZt2MjKA/xCmUL57tm7n/0BuKM8cE+VoVJaoNh/0/U7Tsvqteu5HJBepAVu7Tp8xWkJCAzN45mz51iJ/3n4SLOigjQoRdRYjpYgzynTZOQXHBDe80gv0v33zNlcLkjXwJ+Gat55CnL9h5c+SxA2lCfUI+oT9YryQDoQF8oNZQF5QXwL/1vC6cVLG7AsO2CpiKk0oTx3793H96BQ16zbkBUvKINQyCAnkHVw6fJlTjPainpxuXfvvla2YjVW0pEWawofvnft3pPzBFTeVfqQjybNW2kFi5TgvAL0MVDuReETBCGmYE3hc/gavkwZM1I2j6wUK1Ysih8/Pn3ZsR2lcnUlvWNnd0xjpUmTmt1BBnd3XhN2/UYA6Z0zpUjhQsmTJ2M3fKZJ7UbJkiXlaRxXPZy4ceNSgoQJ+D7CffHyJc2bv4DKly1Dar0Z4m3UoC5PVWGTgaJG9Sr03bddyCNrFk6DIn/+vLwBIU6cOPxswQL5SB8UKCAggOLEjkMJEiSge/fumXesxo8Xj6+IgjArli9rXqDv6Zmd3Nzc6PTZs/zdkvjx4+n5dOL41fRW4sSJOX2KbNk8uKxBkiRJqPu3nene/fs8bYWprvDKBDtu9+zdR107d6IC+fNx2E5OcSlhwoTs3wjymtotFTk7xzOXvbqMa+B0ZYT+XbiYPLNnoy8NGxIs065IlCgh6QoI6YM1T+1BJuAXn7oSSidOnqaO7dua04R6yZ8vL129eo2/A9TNgH599PItR2nTpmG/RYv4UMqUKWnN2vXsB2Ev+m8peXtl1y9PvmcEmxDWrttATRs1pCqVKnA5IL1IC5YebNy8RU9HO16zCLLrZV+qZAleBxeXZSYB7yDVlVR2t1WO4MGDB7q7E9cHCO/5hYsWc3y1alTnckG6atWoxm66QhRu+ixB2G6pUnE9oj5Rr6hH1DHKyyW5C33XrTOnD/FVr1qZp5/1lw+eXo0IKE9MCbdv24aKFvbhey4uyVnWsD4Xa3NRj+nTpyP9RZDdT506o9dfWqpcsTw/C/SXFzp3/gLVqFbV3F9Yo2rlipwnkD5dWvLw8NBlxJ/Te8XvKu3Zt5+aN2tMWbNkZj/oYxC/IAhCTOa9b9qAMoLO3v/Gdf4OBWaNPri2atuR9Ld96vxtD1Y+3pZXupLx+MlTfUBaQ/l8fPl4CFydu/XguEIM64HeBiid3bt+QytWraasXrmpU+duPAg5kkIFC1KzJg3p2+96cV7G/P4nKwT2cHFx0cs6MR+3EZEywfpIKGhpDYrvu4KNHTgyA8pWRBTiqpUrUQnfYrwbGMe9zJ23wLzTE594AWjZur05/YV1P3v1wftViP06zZghA9WsXpUVIV4HGhBI23bspMYNG1jdFQs/QXr5QmG0BGnAusCeffqZ05G7QBFavHSZXs6vWAHr1vVrunTpCt9v3Owz3kUOJTMi4AXG3vMPHgaxguRburw5/sbNWrFyGBISEm76IpoOgDaKzRvJkyU33Ql9UUjl5qorTn708FHEFD5Vnl66gm3EVZeLeLpcYI0hXrhKlShOu/WXDihmONKliE8halC/Lq9xRBg7d+0md10pzJMnlymEyKPKxzNbNtMdQRCET4MPvkt3/ITJ1KJVO73Dd6N+fXuZLVDvSvWqVWjDmhXma/f2zbR14xpKnTrU6vEu1KpZnc4cP0wjfh5Cu3bvoaIlyrJy4ihghRk14mfav3sb1a1di34eMYpKlKnE1pHI4MgyiQqgfM2bPYPWr15OhQoVoE5dulHt+o15MT+AsjFh/Fhz+jetW0Unjx6gLzt8zu62gDWoUYP6dPnKFTp95gwfPwLlqErlCiYfkWfY4EFhyvLYoX00cvhQjgsW0mOH9tDUSePp9p27VKlaLRqm15k1ZQvWPdxHehThPV+oYH5asWShOe7tW9bT4f07eQODwl76PkaQLlgqsdHi+MlTtO/AQSpbphTly5uHraCwfkPhs9zc8ragXAVBED4l3rvCdzPwJt0ICCBvT0+eEsX5ekWLFOZpuDq1alDjhvV5SvVtgcUAAwI6dOwsNU43YsrX2lTi24BpoLatW9LenVupWtXKNGf+vw49XBkDIqbGhw35H+3QB3jEpaYorXH12jW2+uDIkYiUCSyXsC75GaZH3xUV761bt+hxBMsGafHRlb2/xo2hJQvnsXJ24NAhTl9IyCsKfh4cJv24InKUSq6c3pQzRw5asWoNLVi0mBUHWP6sgbiSJklC/tevv6GkKbeAwMA30oGlBgpMwdatXVNXtpZTl2++onn/LuJdoJZ4emZj6+XNm2F3ktp6Pn3adDwNn0BXfo1xYwoTLwYRTV9EQFwXL12iGzdumO6E7pLF9CiWD0CWIoJK0779B8KUJ87VRN4howC7u53jOdN/i5exfOfI4cUWPUztbtq0hU7qyiDa2ruAaW5X15S0Zes22ZErCMInhcMVPqy9wgCLqUVM3XTv2ZfixonL62xi64N7PGdnPqQVU3/ogHFkg1rHo8CAAWXk8NFjPNhhSg7Tj5gmhMJy+bIfH/eAASQ4OJjXpsHyhoOB1ZEVsBJh7Y7xuIm3AQMUfpFBrV9CupE3HOmB9WOOAGvasDYL5YMB08/vKj3S41drkADKbNnylVw+mALs0fMHXhvo41OQyy68MsGaxVIli9OQYSNo0eKlHA7ydfqM9XWFEQHxYioalsheffpzHhAupsCx3swSWOB4CvrVK77wHevKUMdIX2EfH+rTbyCvS4Q7yuP4iZPsLzygFOKFYuKkqbRy9VqqX6+2TWuXe/r0vL5zyrS/acLkqZwmpBv1niZ1aqpcqQKNHjuOlyIgDUgL5A9LESCX8KfW32EKEb8+gvVpiays48P6Oigh+/Yf5O/hPV+rZjW6ffsO/fi/webjRiCLqFt8Iu320hcZ6tSuwZ+/jhnHsgI5GT9xClvaGtSrw2WK43fQnu/r9QmFFPIZJ27oS5W/Xm4qTSjP+QsW8a+xII+Qq34DBpGXlyfLKEAbKl6sKE2YNIWtzlBiEUcx/YVw5OixvIbyXaZzAaaO27dtzcf+tGrXgdPUtXtPlntBEISYjMMVPlgW/pk1h3Lm8+GpTwzQf/05hry9vVhh69OrB69Hy1uwGKVKl4nmzF9gfuNXYLDHYI1pLe/cBeibrt+xYgdFsFXL5nTg4EEqULg4r2vC4Fi9WhUaOngg/fb7H5TRw5t/Kgrr7TDYvytPnjylr7t0p/SZPTlcpAcDap+e3zlsuuy8riAVK1mWy8fFzZ3qNWpGn7VoShUrlDf5IHJJnpynepGeilVr6mkhmjT+d1aWQHhlgoH1jzG/shWsXYevOBzU2ZRpM9j9balapRL9MmwIL/IvVLQkh1utZj228lqyY+dujjNlmox8YSDuq8sHpvWQvvHjRpObmyuVq1Sd3VEeFavWsvoLLNbAFG6KlCnY2ldEVx5tAUV1YP8fWKnp3fdHThPS/dPQ4Tz1OmhAPypXpjQ1ad6K04C0IG/Hj5+kl7os4FdJMmXLwWWcLlN2tmwN/l9/zoMladKk0fOX27x2LbznURbTJv9Fq9euJ8+c+dkPZHHAoCH0/Hkwp91e+iIDzl2cPOEPjguyksY9Kw0d9gv90KenLn+hhx1DvqDMwU+bz79kyxw2QODZ73r2oUlTppvLs0K5svzLGK5pM+nyXI4twDOmTDDLKPxBTqE0+hQsaN6oghcRlHuZkiXeeToXbfSbTl/Qb6OGc7saOmwk9yPfdPqSrctIgyAIQkwkFrbsnrt4mXJZLKh+VzB4NW7emv+fPztUacBu0BQuLm9Mq8IKce/+PbZgWBsUFco6Z7kBAAoXLCGwABhR4YaEaDz9ZC/syAILzNNnz8jZyYk3oThK2VMgj/j5KvyUlTEvsDxBwcMvXmAaFOmCX1tpikiZoO6wIB8DYUQ2W0QElX7scrZXXsb02YpflX2cOLGtylNUApnDhgFrZaXKCVYu7GbFlKpCuUUkjQv/W8IvEUsXzacihQvxvfCeN8oDpnetTdfaS19kMMb1rjKh0vS+2k1E+WnIcJq3YCGvH8VLanRh166D5OsbaiEVBEFQoG9ImiIJZc+amftb8N4UvqhUtoTXWCp8QvRDtZVUrilp0l9/vLViJkQMvBw6OzublWjMCjRq2pItkxP+HButrHyi8AmCYA1rCt8H36UrCJ86eBnCS9GIYYNNdwRHMmHSVJ7mxjQ9roJFSvDPtA3s31emdAVBiLE4zMKHdThqYf7HNHUT01DTbc5OzpHehSkInyJoM9hIpDYkwbKKDUHR0bIqFj5BEKzxXqd0BUEQBMciCp8gCNaQKV1BEARBEIRPEFH4BEEQBEEQYjii8AmCIAiCIMRwROETBEEQBEGI4YjCJwiCIAiCEMMRhU8QBEEQBCGGIwqfIAiCIAhCDCdGKXw47Pn4iZO0Z99+/t/RII4p0/6mNBk8+Efs8QP1t27fNrk6DvxAfbsOX/GF/x0JDqndvWcvnTx1mr9HJu6goIdUrVZ96tS5G/9GriAIgiAIH4Zoq/A9e/aM1m3YSDduBJjuEN2+c4dat+tIn3fsRIE3b5nuOg6/q1dp5OgxVLVyRTp2cA8tmDeLkiRObHJ1HFA0kT9ckVFs9x84xFdkOHP2HDVp0Zq+792Pf/M1MnEnTZqEOn3RnpYuX6nHe8B0VxAEQRCE9020Vfjw00ht239FR44eM90hck2ZkmZMnUhTJv5Jqd1Sme46Dvx03P37D6hp44aUIYM7ZcmcieLHj29y/biANe6nocNo8rTppjsRw8szO82bNYN+GTaYf/M1shQvXozc06ejf2bNjZRyKgiCIAhC1OFQhQ8DPKxgK1aupgMHD9Oz589NLqFguvDS5SvsDksSvluCqcCbt25RQOBNtjApXr58yf6hcMHtwYMgvp8ubVrK7uHB/yuM8Rw6fOSN6UWkC1Ox8Ae306fP0Oo16zjeiKDScPfuPbNSE16cyIvyDzfEb+nHCNKCNCFtwcEvTHfDotKOOFHuRgUL/798+YqePnnKaVX5BXjuwsVL/Nz2HbvClDPw8MhK6dOlM32zDsoQzyKNAQGB5rhTpkhBZUqVpG07dvJ9QRAEQRA+APgt3eOnz+rjc9SiKyVatx69tGSu6bRM2XJormkzavkK+WqBN2+yu7//da1StVrs7uGVhz/LV66h3QgIZPeQkBBt1Zp1mnsWL3bDlSaDh7Zr9x6tdv3G5nvq+uLrLtqjR4+06rUb8IX/gTEedWX1zK1t2bqd3cGq1Ws57E6du2mp3bOa/bm4uWsrV60x+QoL4jOGiUvFG5E4R48ZpxX2La39M2sO5xHx64qhyfU1KIff//grTFieOfPzM8Z8Hj12XMvv48tpRlzw17pdR3Yf9+eEMM/jypW/MJf1ho2b+RmjmypnAD/wi/wCa2V88NBhjtMYN+JUzPt3oZYyTUZzmIIgRA07dx4w/ScIgvAa9A3Q7aDjKRxm4duxcxfpygzNnTWDLp87SbeuX6Htm9eyxQfWuf4DfyJdmaEzJw7R+dNHae/OLeTv70/TZ/zDz2Oqtm37L3l93NmTh+n+LX+6oPsrWKAATZv0F/01bgz7w+fp44do+JCf+LsRFQ+sh2tWLuEwLp09QTlzelOPXn3p+vUbJp9ET58+JScnJzp6cDf7Q3rcUrnSkuUrTD7CgvgWzp/FU7gqDf9Mm0TOzs4RjvPsufO08L8lNG3yeDq4Zzt5Zs9mcnnNvv0HadCQn6lHty4UcPUC3bt5jebP+ZuSJUtq8hG6OUJXrqlA/nx07dIZunDmGC1dNJ9Wr13PV5tWLfSyX0dp0qSmOrVqcFo3rVtJqVxTUr58eejkkf0cLtKK/Kd2c+PNKLp8mGKwDSx7Pw8fSXnz5qarF09z3Kjrtq1bmnwQZczgzp9+V6/xpyAIgiAI7xeHKXzx48ejuHGdKCAgwDx1mDhxYooTJw5PH27cvIU6tm/HygXIns2DSpUsQZf9/Pj7suWrOIwe3bvqilfoeryECRPqCpUTpUjhQsmTJ+N7+EyT2i2MAqS4piuQmGZs37YNFS3sw/dcXJJT186deA2gcf0fgHKp4kqfLi15eHjQ1av+b0xxAsQH5TVWrFjmNCBd/tevRzjOBAkS0IB+fahi+XKUNm0azp8la3SFzSW5C7Vs0ZSVS8SXzSMrZcqY0eSD6OChw3Ti5Gm9PNuawyhYIB/lz5dXT/81Xnvn6uqq10dcSpAwAac1lf4ddYE8QBFEuCCDuzsV9ilI128ERGgHcFw9jPjxE9DDhw/N0+pOTnHD5AXphjJtVHYFQRAEQXh/OEzhK1SwIDVr0pC+/a4X5cpfmMb8/icrBQDWtGfPnlPPPv3YDVfuAkVo8dJl9OrlK7Ys+d+4zopKsmShit3bgLV1QXqcXl7ZTXdCweaOePHisRUuqonqOFEO6XTlM3my5KY7b4IdyyjTlq3bm8uzcPEytHfffnoV8ua6SCNQxtes20Ct2nakwr6lqfO3PejY8RMm1/CBEtmt69d06dIVrsPGzT7jncARsQ4KgiAIgvB+cJjCByvPqBE/0/7d26hu7Vr084hRVKJMJbZyKYYNHkQb1qwwX8cO7aORw4earU1CxIEVbcL4seay3LRuFZ08eoC+7PC5yYd1xk+YTC1ataM0adyoX99eVLpUCZNLxMFU8rFDe2jqpPF0+85dqlStFg3T61spfZi6x/+w8gmCIAiC8P5x6C5dNf04bMj/aMeW9TxFiClKTIEmTZKEAgIDeXrReKmp2fRp07FF8N7du/z9bVDx7Nt/IIzFCWf3wSqGI0eimqiOE+Vw8dIl/Xnb06GIMyTkFQU/D36jPO0dpYL6wFmGRYsU5qllrO9r3LA+5c+f1+Qj4mAKt27tmrqyuZy6fPMVzft3kfkQ6ps3b3HePT3fXKMoCIIgCILjcZjCF3jzJq/Vw5EfUHz8/K7So8ePKWuWzOSePj1VrlSBRo8dx9OJ8KOOMVHTiXVq1+DPrt/15F/PwFEiCA/hAig5mE48fPQYu+HID2zSMIJ4alSvQvMXLKL1Gzex++kzZ6nfgEHk5eVJPj4FTT6jjqiOs1bNanwMy6Chw3k6GOvgFixazOv2FHly56LCPj7Up99APgIGZYkyRbldvnKF/cSPF4/X7V2+7MflDAX0+fPnFM/Zmfz9r9MdXbHGMziaZdv2nfyMNaDEx40bh4KCgrjcEQZ+hUOt38PU8sVLlyl9+nSUyLSODxtPsFYT6zQFQRAEQXj/OEzhO3/+AhUrWZZSpctELm7uVK9RM/qsRVOqWKE8K2qDBvSjcmVKU5PmrdhPyjQZ+afJjh8/yc/nzZObJk/4gy5evEwly1Yi79wFeI3ZiROn2B1KDixSmDqE2zddv3vjfDrEM7D/D1ShXFlq1PQzck2bSU9TOV5LN2PKBFaAopqojjNf3jw0bfJfvBGkaImylDOfD23dtoNK+BYz+SC24o0fN5rc3FypXKXqXJYo04pVa5l/iQQKcquWzenAwYNUoHBx8i1dnvx15bFPrx5sSc1bsBg/M2f+ArtWSFjy6tetzYp5nQZNdKXvFg3/5VfKlC0H/7xcukzZ2bo5+H/9OV3Y8LJ77z49H7kpTZo0plAEQRAEQXifxMIZLed0pSqXxSaDqACWprv37umfIZQkcSKr04tQCB4+ekyxY8fi3ahY+2cE1kH8ogU2H6RwceGdpUbUYc6wYNlDxePs5MS7Zt/HOsGojFOVZZIkSezmFZa2p8+e6eUU22p5IRxY4bBjWgHL3r3799giZ28K2B4qr5bx7t13gGrXb0x/jP2VGtSrw/cEQYgadu06SL6+UT9TIQhC9AZ9Q9IUSSh71sysgwCHKnzCpw0UyQ5ffk23bt+h+bNnvLUyKQiCdUThEwTBGtYUPodu2hCEEcMGi7InCIIgCB8YUfgEh4HpeRxkLcqeIAiCIHxYROETBEEQBEGI4YjCJwiCIAiCEMMRhU8QBEEQBCGGIwqfIAiCIAhCDEcUPkEQBEEQhBiOKHyCIAiCIAgxHPPBy0F3H5puCYIgCIIgCNGZN35pIzj4hXbF35+OnDhFgbfv8E9vCYIgCIIgCNEP/LRpaldXypfLmzKlT2/+ydpYISEhmq700ZNnTyn4xUv+7VpBEARBEAQh+hFL/3N2jksJ4yfQP51Mv+NP9H/BeqjQx4chUQAAAABJRU5ErkJggg==;" parent="1" vertex="1">
                    <mxGeometry x="-120" y="392.5" width="207.62" height="190" as="geometry"/>
                </mxCell>
                <mxCell id="uCUXts_ET8Qx4ScvXAXh-43" value="" style="edgeStyle=orthogonalEdgeStyle;shape=connector;curved=1;rounded=0;sketch=1;jiggle=2;curveFitting=1;orthogonalLoop=1;jettySize=auto;html=1;strokeColor=default;align=center;verticalAlign=middle;fontFamily=Comic Sans MS;fontSize=12;fontColor=default;labelBackgroundColor=default;endArrow=classic;" parent="1" source="uCUXts_ET8Qx4ScvXAXh-40" target="uCUXts_ET8Qx4ScvXAXh-42" edge="1">
                    <mxGeometry relative="1" as="geometry"/>
                </mxCell>
                <mxCell id="uCUXts_ET8Qx4ScvXAXh-40" value="Use Cases" style="whiteSpace=wrap;html=1;fontFamily=Comic Sans MS;rounded=1;sketch=1;curveFitting=1;jiggle=2;fillColor=#d5e8d4;strokeColor=#82b366;" parent="1" vertex="1">
                    <mxGeometry x="810" y="207.5" width="120" height="35" as="geometry"/>
                </mxCell>
                <mxCell id="uCUXts_ET8Qx4ScvXAXh-42" value="Orchestrate Task" style="whiteSpace=wrap;html=1;fontFamily=Comic Sans MS;fillColor=#d5e8d4;strokeColor=#82b366;rounded=1;sketch=1;curveFitting=1;jiggle=2;" parent="1" vertex="1">
                    <mxGeometry x="650" y="332.5" width="120" height="37.5" as="geometry"/>
                </mxCell>
            </root>
        </mxGraphModel>
    </diagram>
</mxfile>